<?xml version="1.0" standalone="no"?>
<!DOCTYPE svg PUBLIC "-//W3C//DTD SVG 20010904//EN"
 "http://www.w3.org/TR/2001/REC-SVG-20010904/DTD/svg10.dtd">
<svg version="1.0" xmlns="http://www.w3.org/2000/svg"
 width="260.000000pt" height="260.000000pt" viewBox="0 0 260.000000 260.000000"
 preserveAspectRatio="xMidYMid meet">
<metadata>
Created by potrace 1.11, written by Peter Selinger 2001-2013
</metadata>
<g transform="translate(0.000000,260.000000) scale(0.100000,-0.100000)"
fill="#000000" stroke="none">
<path d="M1285 2305 c-5 -2 -27 -6 -47 -10 -21 -3 -38 -11 -38 -18 -1 -28 -19
-38 -83 -41 -69 -4 -75 -7 -200 -88 -37 -24 -50 -29 -60 -19 -9 9 -9 16 1 31
19 30 15 33 -33 28 -51 -6 -115 -49 -115 -77 0 -32 -52 -77 -140 -121 -231
-114 -379 -248 -465 -419 -79 -157 -66 -367 31 -526 16 -26 37 -62 48 -79 10
-17 25 -35 32 -39 8 -5 12 -12 9 -18 -4 -5 1 -9 10 -9 9 0 13 -5 10 -10 -3 -6
1 -10 10 -10 9 0 19 -9 22 -20 3 -11 11 -20 17 -20 6 0 18 -9 26 -20 8 -11 18
-20 23 -20 4 0 18 -10 30 -23 27 -27 62 -47 82 -47 9 0 13 -4 10 -10 -6 -10 7
-14 33 -11 7 1 11 -4 10 -11 -2 -8 5 -12 19 -11 15 2 21 -2 17 -11 -4 -10 5
-16 25 -21 17 -4 31 -11 31 -16 0 -5 5 -9 10 -9 19 0 89 -52 95 -70 3 -10 20
-33 39 -52 29 -30 39 -34 91 -36 31 -1 63 2 69 7 7 6 37 -3 86 -26 41 -20 106
-44 144 -55 39 -10 72 -22 76 -27 21 -35 124 -40 189 -10 70 32 81 36 144 55
31 9 57 20 57 24 0 4 25 13 55 20 30 7 55 17 55 22 0 5 8 5 18 0 41 -21 96
-13 140 19 23 17 45 42 48 55 3 13 10 24 16 24 5 0 21 11 36 25 15 14 32 25
39 25 7 0 13 5 13 10 0 6 9 10 20 10 11 0 25 9 32 20 8 12 24 20 40 20 18 0
29 7 33 21 4 12 12 18 21 15 8 -3 17 1 20 9 4 8 13 15 20 15 8 0 28 13 43 29
16 16 31 27 34 24 9 -9 116 106 163 176 89 128 124 235 124 370 0 69 -25 172
-55 232 -82 158 -245 303 -461 410 -97 48 -132 77 -140 117 -6 32 -51 65 -106
80 -45 12 -50 8 -42 -35 9 -46 -8 -43 -93 16 -76 54 -123 71 -195 71 -42 0
-48 3 -48 20 0 12 -9 24 -22 29 -27 10 -109 20 -123 16z m185 -313 c14 0 59
-6 100 -12 41 -6 84 -11 95 -11 11 0 22 -5 26 -10 3 -6 29 -11 57 -12 37 -2
57 -8 74 -24 15 -14 28 -19 37 -14 8 5 30 -1 58 -15 24 -13 51 -24 60 -24 9 0
38 -13 65 -30 26 -16 52 -30 57 -30 4 0 16 -9 26 -20 10 -11 21 -18 24 -15 4
2 20 -12 36 -31 16 -19 37 -34 46 -34 12 0 16 -5 13 -15 -4 -9 0 -15 10 -15 9
0 16 -4 16 -8 0 -5 22 -31 48 -58 148 -153 133 -434 -32 -606 -51 -54 -142
-119 -133 -95 4 11 2 14 -9 10 -7 -3 -14 -12 -14 -20 0 -33 -106 -102 -232
-152 -341 -135 -749 -145 -1104 -26 -163 54 -294 133 -291 174 0 9 12 26 26
36 21 16 23 16 12 2 -15 -19 -9 -22 19 -7 13 7 28 6 47 -1 34 -13 172 -19 193
-8 9 4 35 2 58 -4 30 -8 45 -8 53 0 7 7 22 8 45 2 23 -7 40 -6 54 1 16 9 25 8
36 -1 11 -9 17 -9 29 1 8 6 19 8 26 4 26 -16 104 -12 138 7 25 15 37 17 47 8
7 -6 18 -8 23 -4 6 3 24 -1 40 -10 34 -17 87 -20 96 -5 5 8 11 8 20 0 8 -7 21
-7 36 -1 14 5 34 5 48 0 13 -5 33 -7 44 -3 13 4 17 2 13 -5 -5 -7 3 -11 23
-11 16 0 32 6 35 13 4 6 4 2 2 -11 -5 -26 20 -82 36 -82 17 0 48 31 48 47 0
19 37 8 67 -19 30 -28 53 -20 77 27 16 31 21 36 24 21 3 -13 6 -15 12 -7 9 16
78 32 85 20 6 -9 55 -3 95 12 38 14 74 73 65 106 -3 16 -9 44 -12 63 -10 66
-48 86 -104 53 -26 -16 -29 -16 -47 0 -26 24 -77 22 -96 -4 l-14 -21 -21 21
c-27 27 -78 27 -106 1 l-22 -20 -18 20 c-20 22 -55 26 -72 9 -7 -7 -19 -9 -27
-6 -13 5 -15 17 -10 61 6 48 4 55 -14 65 -22 11 -40 0 -61 -36 -8 -15 -12 -14
-36 5 -35 28 -65 28 -101 0 -57 -44 -94 -103 -94 -149 0 -33 -15 -45 -35 -29
-19 16 -19 50 0 50 18 0 19 25 4 86 -8 32 -16 44 -30 44 -11 0 -19 5 -19 10 0
6 6 10 13 10 6 0 20 21 31 48 25 62 39 72 103 72 29 0 53 4 53 9 0 5 -14 9
-30 9 -17 -1 -33 2 -37 5 -3 4 14 7 40 7 25 0 49 -5 53 -11 3 -6 15 -9 25 -6
11 3 33 0 49 -6 23 -9 32 -8 42 2 11 11 8 12 -14 7 -18 -4 -28 -2 -28 4 0 12
161 7 181 -6 8 -4 9 -3 5 4 -5 9 8 12 45 12 44 0 55 4 76 28 34 37 65 109 58
131 -3 11 -20 24 -37 30 l-31 11 6 74 c7 80 -4 103 -43 93 -25 -6 -25 -5 0 43
23 46 26 83 6 99 -19 16 -39 6 -61 -31 l-18 -32 -15 22 c-26 39 -57 28 -100
-35 -21 -32 -46 -75 -56 -95 -17 -39 -30 -47 -41 -27 -24 38 -106 25 -138 -22
-9 -12 -18 -21 -20 -18 -1 2 -9 16 -16 31 -8 16 -25 30 -41 33 -29 6 -92 -15
-105 -34 -5 -8 -14 -5 -28 11 -30 33 -114 31 -159 -2 -28 -20 -30 -21 -23 -4
12 30 35 117 35 135 0 9 -9 27 -20 40 l-20 24 -24 -29 c-13 -16 -34 -52 -47
-80 -13 -28 -27 -53 -30 -56 -4 -3 -9 -14 -11 -25 -5 -20 -5 -20 -13 -1 -6 13
-4 21 3 24 16 5 15 100 -1 132 -7 14 -19 25 -26 25 -16 0 -53 -67 -95 -170
-16 -38 -39 -78 -50 -87 -14 -11 -22 -30 -23 -55 -2 -21 -5 -66 -9 -100 -5
-54 -3 -63 13 -72 14 -7 26 -6 44 4 13 8 34 19 46 24 13 6 23 22 26 38 4 28 4
28 6 -3 2 -43 29 -64 87 -68 27 -2 51 -4 54 -6 3 -1 24 -1 47 0 33 1 42 -2 38
-13 -4 -10 2 -14 22 -14 16 0 41 -3 56 -7 24 -6 27 -11 27 -50 0 -23 8 -58 17
-77 19 -38 26 -79 13 -79 -5 0 -12 5 -15 10 -10 16 -41 11 -60 -10 -13 -14
-25 -18 -47 -13 -21 4 -37 0 -59 -16 l-29 -22 0 26 c0 29 -25 43 -48 28 -9 -5
-25 -27 -36 -49 l-21 -39 -5 45 c-6 56 -29 63 -68 21 -26 -29 -28 -30 -39 -11
-7 10 -26 20 -44 22 -26 2 -33 9 -43 38 -7 21 -23 41 -43 53 -31 18 -33 18
-82 -4 -48 -20 -51 -23 -49 -58 0 -20 -4 -45 -9 -56 -25 -48 -54 -147 -49
-168 3 -12 3 -16 0 -9 -3 6 -12 12 -19 12 -18 0 -89 82 -124 144 -54 95 -77
242 -49 325 32 100 94 199 144 231 13 9 21 20 17 23 -3 4 0 7 8 7 8 1 32 19
54 40 22 22 46 40 53 40 7 0 10 5 7 10 -3 6 5 10 19 10 13 0 26 4 28 9 6 16
121 71 148 71 16 0 30 7 34 16 3 8 10 13 15 9 6 -3 14 3 20 12 9 15 12 16 20
3 8 -12 13 -12 30 4 11 10 24 15 29 12 13 -8 74 18 65 27 -4 4 6 7 23 5 16 -1
43 -1 59 1 25 2 27 4 11 10 -12 5 3 8 40 8 32 0 133 4 224 9 91 5 170 6 175 3
6 -4 21 -7 35 -7z m-620 -312 c0 -5 -2 -10 -4 -10 -3 0 -8 5 -11 10 -3 6 -1
10 4 10 6 0 11 -4 11 -10z m860 -40 c0 -5 -5 -10 -11 -10 -5 0 -7 5 -4 10 3 6
8 10 11 10 2 0 4 -4 4 -10z m-887 -27 c-7 -2 -21 -2 -30 0 -10 3 -4 5 12 5 17
0 24 -2 18 -5z m857 3 c0 -3 -4 -8 -10 -11 -5 -3 -10 -1 -10 4 0 6 5 11 10 11
6 0 10 -2 10 -4z m-60 -46 c0 -5 -5 -10 -11 -10 -5 0 -7 5 -4 10 3 6 8 10 11
10 2 0 4 -4 4 -10z m-493 -180 c3 -10 2 -11 -4 -3 -4 6 -22 13 -38 16 -27 4
-27 5 4 3 21 0 36 -7 38 -16z m178 -430 c3 -5 1 -10 -4 -10 -6 0 -11 5 -11 10
0 6 2 10 4 10 3 0 8 -4 11 -10z"/>
<path d="M975 1390 c-3 -5 -2 -10 4 -10 5 0 13 5 16 10 3 6 2 10 -4 10 -5 0
-13 -4 -16 -10z"/>
<path d="M1744 1391 c6 -10 54 -12 60 -2 2 3 -12 7 -31 9 -19 1 -32 -2 -29 -7z"/>
</g>
</svg>
