<?xml version="1.0" standalone="no"?>
<!DOCTYPE svg PUBLIC "-//W3C//DTD SVG 1.1//EN" "http://www.w3.org/Graphics/SVG/1.1/DTD/svg11.dtd" >
<svg>
<metadata>
Created by FontForge 20090914 at Wed Jan 27 18:04:09 2016
 By www-data
Sign Painter House Script (C) 1993-1999 House Industries/Brand Design Co. Inc.
</metadata>
<defs>
<font id="SignPainter-HouseScript" horiz-adv-x="407" >
  <font-face 
    font-family="SignPainter"
    font-weight="550"
    font-stretch="normal"
    units-per-em="1000"
    panose-1="2 0 6 6 7 0 0 2 0 3"
    ascent="800"
    descent="-200"
    x-height="389.996"
    cap-height="625.002"
    bbox="-306.998 -390.847 1082.1 764.113"
    underline-thickness="20"
    underline-position="-113"
    unicode-range="U+0020-U+FB02"
  />
<missing-glyph horiz-adv-x="500" 
 />
    <glyph glyph-name="fi" unicode="fi" horiz-adv-x="649" 
d="M248 219c-16.667 9.33301 -31.6699 22.8262 -45.0029 40.4932s-20 36.834 -20 57.501c-13.333 -11.333 -26.666 -25.166 -39.999 -41.499s-25.666 -34.166 -36.999 -53.499c-10.667 -18.667 -19.5 -38 -26.5 -58s-12 -38.667 -15 -56s-3.66699 -32.666 -2 -45.999
s5.83398 -22.666 12.501 -27.999s15.334 -7.33301 26.001 -6s22.167 6.33301 34.5 15s25.166 20.834 38.499 36.501s26 34.834 38 57.501c15.333 28 27.333 55.333 36 82zM255.997 246.993c3.33301 14.667 5.5 28.002 6.5 40.002s0.833008 22.667 -0.5 32
c-2 15.333 -7 22.166 -15 20.499s-13 -9.83398 -15 -24.501c-4 -27.333 4 -50 24 -68zM666.997 299.995c-12 -16 -26.6641 -33.998 -43.9971 -53.998l-56.5 -67.5c-20.333 -25 -41.833 -53 -64.5 -84s-46 -65.5 -70 -103.5c-2.66699 -4 -5.5 -7.33301 -8.5 -10
s-7.16699 -2.66699 -12.5 0c-19.333 9.33301 -32.666 20.333 -39.999 33s-10.333 32 -9 58c1.33301 20 4.33301 44.833 9 74.5s10.334 60.834 17.001 93.501c-9.33301 -10 -20.666 -17.833 -33.999 -23.5s-27 -9.16699 -41 -10.5
c-5.33301 -21.333 -12.833 -43.333 -22.5 -66s-21.334 -43.834 -35.001 -63.501s-29 -36.834 -46 -51.501s-34.833 -25 -53.5 -31c-9.33301 -3.33301 -19.333 -5.33301 -30 -6s-21.334 0.333008 -32.001 3s-21.334 7.66699 -32.001 15s-21 17.666 -31 30.999
c-11.333 14.667 -19 30.834 -23 48.501s-5 36.334 -3 56.001s6.5 39.667 13.5 60s16.167 40.5 27.5 60.5c9.33301 17.333 20.166 33.666 32.499 48.999s25.5 28.666 39.5 39.999s28.333 20.5 43 27.5s29.667 11.167 45 12.5s27.666 -0.5 36.999 -5.5s19.333 -14.5 30 -28.5
c6 -7.33301 12 -13.833 18 -19.5s11.5 -12 16.5 -19s8.83301 -16 11.5 -27s3.33398 -25.833 2.00098 -44.5c0 -1.33301 -0.166992 -3 -0.5 -5s-0.5 -4.33301 -0.5 -7c14 3.33301 26.5 9.66602 37.5 18.999s20.833 20.833 29.5 34.5s16.167 28.834 22.5 45.501
s11.833 34 16.5 52c2 7.33301 5 11.333 9 12s8 -0.666016 12 -3.99902c16.667 -14 26.667 -30.667 30 -50s1.33301 -44 -6 -74c-4.66699 -19.333 -9.33398 -37.5 -14.001 -54.5s-9.16699 -34.667 -13.5 -53s-8.5 -38 -12.5 -59s-7.66699 -44.833 -11 -71.5
c18 29.333 39 61.166 63 95.499l73.5 101l72.5 92.5c23.333 28.667 43.666 51.667 60.999 69c10 10 16 8.66699 18 -4c2.66699 -19.333 -11 -48 -41 -86z" />
    <glyph glyph-name="fl" unicode="fl" horiz-adv-x="863" 
d="M249 219c-17.333 9.33301 -32.4971 22.8252 -45.4971 40.4922s-19.5 36.834 -19.5 57.501c-14 -11.333 -27.833 -25.166 -41.5 -41.499s-25.834 -34.166 -36.501 -53.499c-10.667 -18.667 -19.5 -38 -26.5 -58s-11.833 -38.667 -14.5 -56
s-3.33398 -32.666 -2.00098 -45.999s5.33301 -22.666 12 -27.999c6.66699 -6 15.334 -8.16699 26.001 -6.5s22.167 6.83398 34.5 15.501s25.166 20.834 38.499 36.501s26 34.834 38 57.501c15.333 28.667 27.666 56 36.999 82zM256.003 246.992
c4 14.667 6.33203 27.998 6.99902 39.998s0.333984 22.667 -0.999023 32c-0.666992 8 -2.5 13.5 -5.5 16.5s-6.16699 4.33301 -9.5 4s-6.5 -2.66602 -9.5 -6.99902s-4.83301 -10.166 -5.5 -17.499c-4 -27.333 4 -50 24 -68zM887.002 359.99
c-2 -10 -4.6748 -20.501 -8.00781 -31.501s-8 -23.833 -14 -38.5s-14.167 -31.5 -24.5 -50.5s-23.5 -41.5 -39.5 -67.5c-17.333 -28 -34.666 -53.5 -51.999 -76.5s-34.5 -42.833 -51.5 -59.5s-34 -29.334 -51 -38.001s-33.5 -13 -49.5 -13
c-21.333 0.666992 -37.666 9 -48.999 25s-16 34.667 -14 56c-16.667 -20 -35.167 -38.167 -55.5 -54.5s-42.5 -23.5 -66.5 -21.5c-15.333 1.33301 -27.5 6 -36.5 14s-15.333 18.5 -19 31.5s-4.66699 27.833 -3 44.5s5.5 34 11.5 52c4.66699 13.333 10 27 16 41
s13 29.333 21 46c-15.333 -7.33301 -30.5 -12.5 -45.5 -15.5s-29.833 -4.16699 -44.5 -3.5c-5.33301 -21.333 -13.166 -42.833 -23.499 -64.5s-22.166 -42 -35.499 -61s-28.333 -35.667 -45 -50s-34 -24.5 -52 -30.5c-9.33301 -2.66699 -19.166 -4.5 -29.499 -5.5
s-20.833 0 -31.5 3s-21.5 8 -32.5 15s-21.5 17.167 -31.5 30.5c-11.333 14.667 -19 30.834 -23 48.501s-5 36.334 -3 56.001s6.5 39.667 13.5 60s16.167 40.5 27.5 60.5c9.33301 17.333 20.166 33.666 32.499 48.999s25.5 28.666 39.5 39.999s28.333 20.5 43 27.5
s29.667 11.167 45 12.5s27.833 -0.333984 37.5 -5.00098s19.834 -14.334 30.501 -29.001c5.33301 -7.33301 11 -13.833 17 -19.5s11.5 -12 16.5 -19s8.83301 -16 11.5 -27s3.33398 -25.833 2.00098 -44.5c0 -3.33301 -0.166992 -6.66602 -0.5 -9.99902
s-0.833008 -6.66602 -1.5 -9.99902c29.333 1.33301 56.833 11.833 82.5 31.5s47.167 43.834 64.5 72.501l18 27l18 27c4 6 8.33301 8.83301 13 8.5s8.66699 -2.83301 12 -7.5c11.333 -16 15.666 -34.833 12.999 -56.5s-13 -47.5 -31 -77.5s-33.333 -56.667 -46 -80
s-24 -47 -34 -71c-10 -24.667 -14.833 -44.667 -14.5 -60s6.16602 -22.666 17.499 -21.999c19.333 0.666992 39 15.334 59 44.001s43.667 65 71 109c32 50.667 56.833 93.5 74.5 128.5s34.167 63.167 49.5 84.5c9.33301 13.333 17.666 15.333 24.999 6
c7.33301 -8.66699 12 -23 14 -43s-3.33301 -42.667 -16 -68c-5.33301 -11.333 -12.166 -24.166 -20.499 -38.499l-26 -45l-26.5 -47c-8.66699 -15.667 -16 -29.834 -22 -42.501c-13.333 -28 -19.666 -50.333 -18.999 -67s8 -25 22 -25c9.33301 0 19.833 4 31.5 12
s24 19.167 37 33.5s26.333 31.333 40 51s27.167 41.167 40.5 64.5c4.66699 37.333 11.834 69.666 21.501 96.999s19.834 49.833 30.501 67.5s20.834 30.834 30.501 39.501s17.167 13.667 22.5 15c14.667 3.33301 20 -8.33398 16 -35.001z" />
    <glyph glyph-name=".notdef" horiz-adv-x="500" 
 />
    <glyph glyph-name="space" unicode=" " horiz-adv-x="220" 
 />
    <glyph glyph-name="exclam" unicode="!" horiz-adv-x="317" 
d="M131 52c5.33301 -11.333 6.83203 -23 4.49902 -35s-6.16602 -21.667 -11.499 -29c-6 -7.33301 -14.833 -9.66602 -26.5 -6.99902s-21.167 9.66699 -28.5 21c-8 13.333 -11.167 26.666 -9.5 39.999s6.5 24.333 14.5 33c7.33301 8 17 9.66699 29 5s21.333 -14 28 -28z
M355.999 615c4 6 8.33203 9.00098 12.999 9.00098s8.66699 -3.66699 12 -11c6.66699 -14 8.5 -33.333 5.5 -58s-14.833 -55.667 -35.5 -93l-46 -83.5l-50.5 -95.5l-50 -97.5c-16.333 -32.333 -30.833 -62.5 -43.5 -90.5c-2.66699 -5.33301 -5.16699 -8.33301 -7.5 -9
s-5.5 1 -9.5 5c-7.33301 8 -12.5 20.667 -15.5 38s1.16699 41 12.5 71c10 26.667 23.333 58.167 40 94.5s34.834 73.666 54.501 111.999s40 75.833 61 112.5s40.833 68.667 59.5 96z" />
    <glyph glyph-name="quotedbl" unicode="&#x22;" horiz-adv-x="318" 
d="M239 398c-5.33301 -5.33301 -10.498 -9.16406 -15.498 -11.4971s-8.5 -2.83301 -10.5 -1.5c-4 3.33301 -6.16699 6.16602 -6.5 8.49902s1.16699 6.16602 4.5 11.499c6.66699 12 15.834 26.833 27.501 44.5l37 54l38.5 52c12.667 16.333 23.667 29.166 33 38.499
c5.33301 5.33301 10.666 7.5 15.999 6.5s8.66602 -4.16699 9.99902 -9.5c2 -11.333 0.833008 -22.333 -3.5 -33s-9.83301 -20.667 -16.5 -30c-6 -8.66699 -14 -19 -24 -31l-31 -36.5c-10.667 -12.333 -21.334 -24 -32.001 -35zM191.002 433.002
c-5.33301 -7.33301 -9.83301 -12.001 -13.5 -14.001s-7.16699 -2.66699 -10.5 -2c-8 0.666992 -10.333 6 -7 16c4.66699 12.667 11 28.334 19 47.001s16.667 37.334 26 56.001s19 36.5 29 53.5s19 30.5 27 40.5c5.33301 6.66699 9.83301 9.66699 13.5 9
s6.83398 -3.33398 9.50098 -8.00098c5.33301 -10 6.66602 -20.5 3.99902 -31.5s-6.66699 -21.5 -12 -31.5l-18.5 -32l-22.5 -37l-23.5 -36.5c-7.66699 -11.667 -14.5 -21.5 -20.5 -29.5z" />
    <glyph glyph-name="numbersign" unicode="#" horiz-adv-x="510" 
d="M367 349l-90.001 0.000976562c-11.333 -23.333 -23.5 -47 -36.5 -71l-40.5 -76c14.667 1.33301 29.834 2.16602 45.501 2.49902s31.5 0.833008 47.5 1.5l35.5 70.5zM216.999 347.001c-34 -0.666992 -68.6719 -2.66504 -104.005 -5.99805
c-5.33301 -0.666992 -8.83301 0.5 -10.5 3.5s-0.833984 6.16699 2.49902 9.5c5.33301 6.66699 13.833 12.667 25.5 18s30.5 10 56.5 14c13.333 2 31 4 53 6l49 88c15.333 26.667 28 48 38 64c3.33301 6 6.83301 9.16699 10.5 9.5s6.5 -2.16699 8.5 -7.5
c4.66699 -12 3.83398 -28.333 -2.49902 -49s-14.5 -42 -24.5 -64l-8.5 -18.5l-9.5 -19.5c30 2 61 3 93 3c18 32.667 35 62.167 51 88.5s29.667 47.166 41 62.499c4 5.33301 7.83301 8 11.5 8s6.16699 -3 7.5 -9c3.33301 -12 2 -28 -4 -48s-14.333 -40.667 -25 -62
c-3.33301 -6.66699 -6.83301 -13.167 -10.5 -19.5s-7.16699 -13.166 -10.5 -20.499c17.333 0 33.833 -0.333008 49.5 -1s29.5 -1.66699 41.5 -3c14 -2 17 -7 9 -15c-11.333 -12 -27.166 -20 -47.499 -24s-42.166 -6 -65.499 -6h-14l-38 -68l-41 -74
c21.333 0.666992 41.333 0.833984 60 0.500977s35 -1.16602 49 -2.49902c14.667 -1.33301 17.667 -6.33301 9 -15c-11.333 -11.333 -27.166 -19.333 -47.499 -24s-41.833 -7 -64.5 -7h-32l-37.5 -70.5c-12.333 -23.667 -24.166 -47.834 -35.499 -72.501
c-4 -8 -8.66699 -8 -14 0c-3.33301 5.33301 -4.83301 15 -4.5 29s5.16602 33.333 14.499 58c3.33301 7.33301 6.83301 15.666 10.5 24.999s8.16699 19.333 13.5 30c-16 0 -31.667 -0.166992 -47 -0.5s-30.666 -0.833008 -45.999 -1.5l-30.5 -62l-31.5 -66
c-4 -8.66699 -8.66699 -8.66699 -14 0c-3.33301 5.33301 -5.16602 14.833 -5.49902 28.5s4.16699 33.167 13.5 58.5l6.5 17.5c2.33301 6.33301 5.16602 13.166 8.49902 20.499c-16 -1.33301 -32.167 -2.5 -48.5 -3.5s-32.833 -2.16699 -49.5 -3.5
c-11.333 -0.666992 -14 3 -8 11c4.66699 7.33301 12.834 14 24.501 20s30.5 11 56.5 15c12 2 27 4 45 6c10 23.333 21.333 47.666 34 72.999z" />
    <glyph glyph-name="dollar" unicode="$" horiz-adv-x="351" 
d="M290 499l59.9951 102.004c6.66699 12 13 12.667 19 2c4.66699 -7.33301 5.83398 -18.666 3.50098 -33.999s-8.5 -33.666 -18.5 -54.999c-3.33301 -6 -6.5 -12.167 -9.5 -18.5s-6.5 -13.166 -10.5 -20.499c14 -12 24 -26 30 -42c4 -11.333 5 -22.833 3 -34.5
s-5.66699 -23.5 -11 -35.5s-11.333 -24.5 -18 -37.5s-12.667 -25.833 -18 -38.5c-2.66699 -5.33301 -5.16699 -8.83301 -7.5 -10.5s-7.16602 -0.166992 -14.499 4.5c-12 7.33301 -19.833 17.666 -23.5 30.999s-1.16699 30.666 7.5 51.999
c2.66699 8 6.33398 16.333 11.001 25s8.83398 17 12.501 25s5.83398 15.333 6.50098 22s-1 11.667 -5 15c-4.66699 4 -14.667 3 -30 -3s-31.5 -15.333 -48.5 -28s-32.333 -27.834 -46 -45.501s-20.834 -36.5 -21.501 -56.5c-0.666992 -10 3 -19.167 11 -27.5
s17.667 -16.166 29 -23.499s23.166 -14.333 35.499 -21s22.833 -13.334 31.5 -20.001c15.333 -11.333 21.5 -25.333 18.5 -42s-11.833 -32.667 -26.5 -48c-11.333 -12.667 -27.833 -21.834 -49.5 -27.501s-45.167 -4.83398 -70.5 2.49902l-24.5 -48.5l-22.5 -46.5
c-4.66699 -8.66699 -9.33398 -9.66699 -14.001 -3c-4 5.33301 -6.33301 13.666 -7 24.999s3 27.666 11 48.999c2.66699 6 5.16699 12.5 7.5 19.5s5.16602 14.167 8.49902 21.5c-25.333 14.667 -48.666 37 -69.999 67c-6 8.66699 -4 14 6 16
c8.66699 2 18.834 1.66699 30.501 -1s22.834 -8 33.501 -16l20 -16.5c6.66699 -5.66699 13.5 -11 20.5 -16s14.667 -9.16699 23 -12.5s17.833 -5.33301 28.5 -6c8 -0.666992 15.5 0.166016 22.5 2.49902s12.5 5.5 16.5 9.5c5.33301 5.33301 7.33301 10.833 6 16.5
s-4.66602 10.5 -9.99902 14.5c-8 6.66699 -19.5 14.167 -34.5 22.5s-30 17.5 -45 27.5s-27.833 21.333 -38.5 34s-16 27 -16 43c0 21.333 4.66699 41.5 14 60.5s21 36.167 35 51.5s29.5 28.833 46.5 40.5s33.833 21.167 50.5 28.5c8.66699 3.33301 17.5 5.33301 26.5 6
s17.5 0.333984 25.5 -0.999023z" />
    <glyph glyph-name="percent" unicode="%" horiz-adv-x="596" 
d="M526 248c-4.66699 4.66699 -11.332 5.66797 -19.999 3.00098s-18.167 -8 -28.5 -16s-20.833 -18.167 -31.5 -30.5s-20.334 -25.833 -29.001 -40.5c-8 -14 -14.667 -28.5 -20 -43.5s-9 -29 -11 -42s-2.5 -24.333 -1.5 -34s3.83301 -16.5 8.5 -20.5
c10.667 -8 25.667 -5.83301 45 6.5s38 35.5 56 69.5c8.66699 16.667 16 33.167 22 49.5s10.333 31.166 13 44.499s3.66699 24.833 3 34.5s-2.66699 16.167 -6 19.5zM327.002 542.001c-5.33301 4.66699 -12.502 5.83398 -21.502 3.50098s-18.667 -7.5 -29 -15.5
s-21 -18 -32 -30s-20.833 -25.333 -29.5 -40c-8 -13.333 -14.833 -27.333 -20.5 -42s-9.66699 -28.5 -12 -41.5s-3.16602 -24.5 -2.49902 -34.5s3.33398 -17 8.00098 -21c9.33301 -8.66699 23.833 -6.83398 43.5 5.49902s39.167 34.833 58.5 67.5
c9.33301 16.667 17.333 33 24 49s11.5 30.667 14.5 44s4.5 24.833 4.5 34.5s-2 16.5 -6 20.5zM453 -14.999c-7.33301 -2 -15.1699 -3.33203 -23.5029 -3.99902s-16.833 0.166016 -25.5 2.49902s-17.167 6.33301 -25.5 12s-16.5 13.834 -24.5 24.501
c-17.333 23.333 -23.833 50.666 -19.5 81.999s15.166 62.333 32.499 93c16 28 35 51.667 57 71s44.667 29.666 68 30.999c12 1.33301 22 0.166016 30 -3.50098s16 -11.167 24 -22.5c4.66699 -6 9.33398 -11.333 14.001 -16s8.83398 -9.66699 12.501 -15
s6.33398 -12.333 8.00098 -21s2.16699 -20 1.5 -34c-1.33301 -17.333 -5.66602 -36.666 -12.999 -57.999s-16.833 -41.666 -28.5 -60.999s-25 -36.5 -40 -51.5s-30.833 -24.833 -47.5 -29.5zM477.996 469.002c-17.333 -1.33301 -34.3271 0.333984 -50.9941 5.00098
s-31.667 11.667 -45 21v-9.5c0 -3 -0.333008 -6.16699 -1 -9.5c-2 -17.333 -7 -36.333 -15 -57s-18.167 -40.5 -30.5 -59.5s-26.333 -35.833 -42 -50.5s-31.834 -24.334 -48.501 -29.001c-14.667 -4 -30.667 -4 -48 0s-33.666 16.667 -48.999 38c-8 12 -13.333 25 -16 39
s-3 28.5 -1 43.5s5.83301 30.5 11.5 46.5s13.167 31.667 22.5 47c15.333 26.667 34.666 49.334 57.999 68.001s47 28.334 71 29.001c12 0.666992 21.667 -0.833008 29 -4.5s15 -11.5 23 -23.5c11.333 -17.333 26.166 -30.333 44.499 -39s37.166 -13.667 56.499 -15
s38.166 1 56.499 7s33.166 15.333 44.499 28c9.33301 9.33301 15.833 14.166 19.5 14.499s6.16699 -3.16699 7.5 -10.5c3.33301 -17.333 0.166016 -35.5 -9.50098 -54.5s-23.167 -38.5 -40.5 -58.5l-48 -55.5l-60 -69l-66.5 -77.5l-67.5 -80.5l-63 -79.5
c-20 -26 -37.667 -50 -53 -72c-3.33301 -4.66699 -6.5 -6.83398 -9.5 -6.50098s-5.5 3.16602 -7.5 8.49902c-3.33301 10 -3.5 22.5 -0.5 37.5s10.833 32.5 23.5 52.5c12 18.667 29.333 42.834 52 72.501l76.5 96.5l88.5 106z" />
    <glyph glyph-name="ampersand" unicode="&#x26;" horiz-adv-x="523" 
d="M337 142c-8.66699 -1.33301 -16.668 -2.83594 -24.001 -4.50293s-14.666 -2.83398 -21.999 -3.50098c-47.333 -4.66699 -78.333 8.66602 -93 39.999c-4.66699 10.667 -1.33398 16 9.99902 16c16 0 32.667 1.5 50 4.5s35 6.5 53 10.5s35.667 7.66699 53 11
s33.666 5.66602 48.999 6.99902c24 1.33301 43.167 -2.5 57.5 -11.5s25.166 -21.167 32.499 -36.5c3.33301 -11.333 0 -16.666 -10 -15.999c-16.667 2 -33.5 2.33301 -50.5 1s-33.833 -3.66602 -50.5 -6.99902c3.33301 -14 2.5 -30.167 -2.5 -48.5
s-15.5 -38.166 -31.5 -59.499c-14 -18.667 -32.167 -35.5 -54.5 -50.5s-46.166 -25.833 -71.499 -32.5s-51.333 -7.66699 -78 -3s-52 17.334 -76 38.001c-27.333 23.333 -42.833 50.833 -46.5 82.5s1.5 63 15.5 94s35.667 59.333 65 85s63.666 44.167 102.999 55.5
c-16 5.33301 -29.5 14.333 -40.5 27s-17.167 29.667 -18.5 51c-1.33301 24.667 3.83398 48.167 15.501 70.5s26.5 42.666 44.5 60.999s37.333 34 58 47s39.334 22.167 56.001 27.5c25.333 8 49.5 12.333 72.5 13s45.833 -8.66602 68.5 -27.999
c21.333 -18.667 33.333 -36.667 36 -54s-2 -38.666 -14 -63.999c-7.33301 -15.333 -14.833 -32.166 -22.5 -50.499s-13.834 -33.833 -18.501 -46.5c-3.33301 -8.66699 -10.333 -10.334 -21 -5.00098c-11.333 6 -20.166 17.167 -26.499 33.5s-4.83301 37.166 4.5 62.499
c4.66699 14 9.83398 26.333 15.501 37s10.5 20.167 14.5 28.5s6.5 15.5 7.5 21.5s-0.833008 11 -5.5 15c-5.33301 4.66699 -14.333 5.83398 -27 3.50098s-27.167 -7.5 -43.5 -15.5s-33.166 -18.167 -50.499 -30.5s-33.166 -26.166 -47.499 -41.499
s-25.833 -31.333 -34.5 -48s-12.334 -33.334 -11.001 -50.001c1.33301 -20 9 -32.667 23 -38s30.667 -7.66602 50 -6.99902c12 0 22.333 -1.33301 31 -4s16 -6.16699 22 -10.5s10.667 -9 14 -14s5.66602 -9.5 6.99902 -13.5c2 -5.33301 2 -8.83301 0 -10.5
s-5.66699 -2.83398 -11 -3.50098c-37.333 -3.33301 -72.333 -11 -105 -23s-61.5 -27 -86.5 -45s-44.833 -38.333 -59.5 -61s-22.334 -46 -23.001 -70c-0.666992 -20.667 4.83301 -38 16.5 -52s28.5 -21.667 50.5 -23c12 -0.666992 26.167 1.5 42.5 6.5
s32.833 13.167 49.5 24.5s32.834 25.833 48.501 43.5s29.167 38.834 40.5 63.501z" />
    <glyph glyph-name="quotesingle" unicode="'" horiz-adv-x="241" 
d="M190 436c-5.33301 -6.66699 -10.168 -10.834 -14.501 -12.501s-8.16602 -2.16699 -11.499 -1.5c-6 0.666992 -7.33301 6.33398 -4 17.001c5.33301 12.667 12.5 28.167 21.5 46.5l28.5 56c10 19 20.167 37 30.5 54s19.5 30.5 27.5 40.5c6 7.33301 11.167 10.5 15.5 9.5
s7.5 -4.16699 9.5 -9.5c4 -10 4.5 -20.333 1.5 -31s-7.16699 -20.667 -12.5 -30s-12 -20.333 -20 -33l-24.5 -38.5l-25 -37.5c-8.33301 -12 -15.833 -22 -22.5 -30z" />
    <glyph glyph-name="parenleft" unicode="(" horiz-adv-x="228" 
d="M346 643c10.667 6.66699 17.001 4.33203 19.001 -7.00098c2.66699 -15.333 -1.33301 -33.666 -12 -54.999s-29.667 -44 -57 -68c-34 -30 -64.5 -65.167 -91.5 -105.5s-49.5 -84.666 -67.5 -132.999s-31 -100.333 -39 -156s-9.66699 -114.167 -5 -175.5
c0.666992 -4.66699 -0.333008 -7.16699 -3 -7.5s-5.33398 0.166992 -8.00098 1.5c-5.33301 3.33301 -10.666 9.5 -15.999 18.5s-9.33301 20.833 -12 35.5c-9.33301 56.667 -10.5 115.5 -3.5 176.5s22.667 120.667 47 179s57.166 113.166 98.499 164.499
s91.333 95.333 150 132z" />
    <glyph glyph-name="parenright" unicode=")" horiz-adv-x="245" 
d="M279 633c14.667 -68 17.5 -135.331 8.5 -201.998s-25.667 -129.334 -50 -188.001s-54.333 -111.5 -90 -158.5s-72.5 -84.5 -110.5 -112.5c-15.333 -11.333 -29.833 -19.5 -43.5 -24.5s-25.5 -7.5 -35.5 -7.5c-4 0 -6.33301 1.16699 -7 3.5s0.666016 4.83301 3.99902 7.5
c47.333 40 88.166 83.5 122.499 130.5s62.333 94.833 84 143.5s37.5 97.167 47.5 145.5s14 93.833 12 136.5c-1.33301 36 1.83398 65 9.50098 87s17.834 37.667 30.501 47c9.33301 7.33301 15.333 4.66602 18 -8.00098z" />
    <glyph glyph-name="asterisk" unicode="*" horiz-adv-x="366" 
d="M429 531c-2.66699 -11.333 -8.33203 -20.666 -16.999 -27.999s-19.667 -12.666 -33 -15.999c-7.33301 -2 -17.333 -4.33301 -30 -7s-26 -5.66699 -40 -9l26 -41.5c8 -13 15.667 -23.833 23 -32.5c3.33301 -3.33301 4 -6.5 2 -9.5s-5.66699 -4.83301 -11 -5.5
c-8 -0.666992 -15.833 0.5 -23.5 3.5s-16.5 10.833 -26.5 23.5c-3.33301 4.66699 -7 9.33398 -11 14.001s-7.66699 9.66699 -11 15l-27 -47.5c-8.66699 -15.667 -15.667 -29.834 -21 -42.501c-1.33301 -3.33301 -3.5 -5.16602 -6.5 -5.49902s-5.83301 1.16699 -8.5 4.5
c-5.33301 5.33301 -8.5 13.166 -9.5 23.499s1.5 23.166 7.5 38.499c2 4.66699 4.16699 10.667 6.5 18s5.83301 15.666 10.5 24.999c-28.667 -6.66699 -54 -13 -76 -19c-10.667 -2.66699 -15 0.333008 -13 9c1.33301 7.33301 5.5 15 12.5 23s18.833 15 35.5 21l20.5 7
c7.66699 2.66699 16.167 5.33398 25.5 8.00098l-26 41.5c-8.66699 14.333 -16.667 28.166 -24 41.499c-2 4 -2.5 7.66699 -1.5 11s4.16699 5.33301 9.5 6c22.667 2 42 -10.333 58 -37c2.66699 -4 5.83398 -8.5 9.50098 -13.5s7.83398 -11.167 12.501 -18.5
c11.333 23.333 23.166 45.333 35.499 66l29.5 49c2.66699 4 5 5.83301 7 5.5s4.66699 -1.5 8 -3.5c6 -4 10.167 -11.833 12.5 -23.5s-0.833984 -26.167 -9.50098 -43.5c-2.66699 -5.33301 -6.83398 -13 -12.501 -23l-19.5 -36c16 4 32 7.66699 48 11l44 9
c11.333 2 16 -2 14 -12z" />
    <glyph glyph-name="plus" unicode="+" horiz-adv-x="314" 
d="M250 314c23.333 -0.666992 40.3291 -6.00195 50.9961 -16.002s17.334 -22.667 20.001 -38c1.33301 -4.66699 1.5 -8.16699 0.5 -10.5s-4.83301 -3.16602 -11.5 -2.49902c-18 2 -35 2.5 -51 1.5s-31.333 -2.16699 -46 -3.5l-29 -51c-9.33301 -16.667 -17 -32.667 -23 -48
c-2.66699 -12 -8.66699 -14.333 -18 -7c-7.33301 5.33301 -13.5 14.666 -18.5 27.999s-2.83301 31.666 6.5 54.999c1.33301 2.66699 2.5 5.33398 3.5 8.00098l3.5 9h-2c-23.333 0.666992 -40.666 5.83398 -51.999 15.501s-18.666 22.167 -21.999 37.5
c-1.33301 4.66699 -1.16602 8.33398 0.500977 11.001s5.5 3.66699 11.5 3c14.667 -1.33301 30.5 -1.5 47.5 -0.5s33.833 2.16699 50.5 3.5l28 51l26 46c6 10.667 13.667 11 23 1c8 -9.33301 12.833 -21.833 14.5 -37.5s-2.83301 -34.167 -13.5 -55.5z" />
    <glyph glyph-name="comma" unicode="," horiz-adv-x="239" 
d="M86 -16c-6.66699 3.33301 -11.6709 9.16895 -15.0039 17.502s-3.66602 18.166 -0.999023 29.499c3.33301 15.333 10.166 27.166 20.499 35.499s20.833 12.166 31.5 11.499c12 -0.666992 21 -7.66699 27 -21s6 -29 0 -47c-3.33301 -10 -8.16602 -19 -14.499 -27
s-13.666 -14.667 -21.999 -20s-17.166 -8.66602 -26.499 -9.99902s-18.333 -0.333008 -27 3c-3.33301 1.33301 -4.83301 3.33301 -4.5 6s1.83301 4.66699 4.5 6c4 1.33301 8.33301 3.33301 13 6s9.33398 6 14.001 10z" />
    <glyph glyph-name="hyphen" unicode="-" horiz-adv-x="325" 
d="M118 199c-23.333 1.33301 -40.5 6.66699 -51.5 16s-18.167 21.666 -21.5 36.999c-1.33301 4.66699 -1.33301 8.33398 0 11.001s4.66602 3.66699 9.99902 3c13.333 -0.666992 27.833 -0.666992 43.5 0s31.167 1.66699 46.5 3s30.333 2.5 45 3.5s27.667 1.5 39 1.5
c25.333 0 43.333 -5 54 -15s17.667 -22.333 21 -37c2 -10 -1.66699 -14.667 -11 -14c-18 1.33301 -35.167 1.5 -51.5 0.5s-31.666 -2.16699 -45.999 -3.5s-28 -2.83301 -41 -4.5s-25.167 -2.16699 -36.5 -1.5z" />
    <glyph glyph-name="hyphen" unicode="&#xad;" horiz-adv-x="325" 
d="M118 199c-23.333 1.33301 -40.5 6.66699 -51.5 16s-18.167 21.666 -21.5 36.999c-1.33301 4.66699 -1.33301 8.33398 0 11.001s4.66602 3.66699 9.99902 3c13.333 -0.666992 27.833 -0.666992 43.5 0s31.167 1.66699 46.5 3s30.333 2.5 45 3.5s27.667 1.5 39 1.5
c25.333 0 43.333 -5 54 -15s17.667 -22.333 21 -37c2 -10 -1.66699 -14.667 -11 -14c-18 1.33301 -35.167 1.5 -51.5 0.5s-31.666 -2.16699 -45.999 -3.5s-28 -2.83301 -41 -4.5s-25.167 -2.16699 -36.5 -1.5z" />
    <glyph glyph-name="period" unicode="." horiz-adv-x="223" 
d="M60 43c6 13.333 14.499 23.334 25.499 30.001s21.5 8.33398 31.5 5.00098s16.333 -10.833 19 -22.5s1.33398 -24.167 -3.99902 -37.5s-13.666 -23.333 -24.999 -30s-22 -8.33398 -32 -5.00098s-16.333 11.166 -19 23.499s-1.33398 24.5 3.99902 36.5z" />
    <glyph glyph-name="slash" unicode="/" horiz-adv-x="396" 
d="M549 645c12.667 12 20.6689 9.99902 24.002 -6.00098c3.33301 -14.667 0.833008 -33.167 -7.5 -55.5s-26.166 -49.5 -53.499 -81.5l-55 -60.5l-78 -84l-90.5 -98.5l-92.5 -103.5l-83.5 -99.5c-25.667 -32 -46.834 -60.667 -63.501 -86
c-2.66699 -4 -5.83398 -6.16699 -9.50098 -6.5s-6.83398 2.5 -9.50098 8.5c-4 10.667 -5 23.667 -3 39s8.66699 33.333 20 54c10 18.667 26.667 43.334 50 74.001l81 101.5l99 115l104 114.5l95 101z" />
    <glyph glyph-name="zero" unicode="0" horiz-adv-x="489" 
d="M441 588c29.333 -11.333 50.335 -30.502 63.002 -57.502s19.167 -58 19.5 -93s-4.5 -71.833 -14.5 -110.5s-23.333 -75 -40 -109c-18 -36.667 -38.333 -71 -61 -103s-47.5 -58.667 -74.5 -80s-55.5 -36.166 -85.5 -44.499s-61 -7.5 -93 2.5
c-38.667 12.667 -67 34.667 -85 66s-27.333 66.333 -28 105c-0.666992 34 3.33301 67.5 12 100.5s20.167 64.5 34.5 94.5s30.833 58 49.5 84s38.167 49.5 58.5 70.5s40.666 39 60.999 54s39.166 26.167 56.499 33.5c27.333 11.333 52 15.333 74 12
s39.667 -11.666 53 -24.999zM400.002 238.998c20 42 34.999 81.666 44.999 118.999s15.5 70.666 16.5 99.999s-2 53.5 -9 72.5s-16.833 30.833 -29.5 35.5c-11.333 4 -26.666 2.5 -45.999 -4.5s-40.5 -19.167 -63.5 -36.5s-46.5 -39.666 -70.5 -66.999
s-46.667 -59.333 -68 -96c-21.333 -37.333 -37.5 -74.5 -48.5 -111.5s-17 -71 -18 -102s2.5 -57.333 10.5 -79s20 -35.5 36 -41.5c15.333 -6 33.333 -5.5 54 1.5s42 19.833 64 38.5s44.167 42.334 66.5 71.001s42.5 62 60.5 100z" />
    <glyph glyph-name="one" unicode="1" horiz-adv-x="218" 
d="M199 479c-12.667 -0.666992 -22.168 -0.333984 -28.501 0.999023s-10.333 3 -12 5s-1.83398 4.5 -0.500977 7.5s3 5.5 5 7.5l48 47l48 49c8.66699 8 17.334 8 26.001 0c14.667 -13.333 22 -30.333 22 -51s-9.66699 -49 -29 -85l-52 -96l-64 -117l-68 -132
c-22.667 -46 -44 -92.667 -64 -140c-4.66699 -11.333 -10.667 -12.666 -18 -3.99902c-8 9.33301 -13.167 22.333 -15.5 39s1.16699 40.667 10.5 72c4.66699 16 13.834 39.167 27.501 69.5l47.5 101.5l58 115.5z" />
    <glyph glyph-name="two" unicode="2" horiz-adv-x="423" 
d="M84 52c25.333 7.33301 49.998 13.0039 73.998 17.0039s44.667 6.33301 62 7c24.667 0.666992 44.334 -3.33301 59.001 -12s24.667 -20.667 30 -36c1.33301 -4.66699 1.66602 -8.33398 0.999023 -11.001s-4.33398 -4 -11.001 -4
c-14.667 0.666992 -33 -0.166016 -55 -2.49902s-44.833 -5.5 -68.5 -9.5s-46.5 -8.5 -68.5 -13.5s-40.333 -9.5 -55 -13.5c-13.333 -4 -23.666 -5.33301 -30.999 -4s-13.666 5 -18.999 11c-6 6.66699 -11 13.5 -15 20.5s-7.33301 14.167 -10 21.5c-4 10 -5 17.5 -3 22.5
s8.33301 10.833 19 17.5c44.667 26.667 88 55.5 130 86.5s81 62.333 117 94s68.167 63.167 96.5 94.5s51.166 60.666 68.499 87.999s28.333 51.833 33 73.5s1.33398 38.834 -9.99902 51.501s-24.666 16.667 -39.999 12s-30.666 -13.834 -45.999 -27.501
s-29.833 -29.167 -43.5 -46.5s-24.5 -32.333 -32.5 -45c-15.333 -23.333 -30.333 -40.666 -45 -51.999s-33 -16.333 -55 -15c-6.66699 0.666992 -10.5 2 -11.5 4s-0.5 6 1.5 12c4 12 10.833 27 20.5 45s21.334 36.5 35.001 55.5s29 37 46 54s35.5 30.5 55.5 40.5
c23.333 12 48.5 17 75.5 15s50.167 -12.667 69.5 -32c18.667 -18.667 30.334 -41.834 35.001 -69.501s-3.33301 -62.834 -24 -105.501c-10 -19.333 -26.333 -43.333 -49 -72s-50.834 -58.834 -84.501 -90.501s-71.834 -63.334 -114.501 -95.001
s-88.334 -60.5 -137.001 -86.5z" />
    <glyph glyph-name="three" unicode="3" horiz-adv-x="429" 
d="M472 415c-12.667 -16.667 -30.999 -34.333 -54.999 -53s-51 -34.334 -81 -47.001c8.66699 -2 17 -4.5 25 -7.5s15 -7.16699 21 -12.5c12.667 -10.667 21.334 -23.834 26.001 -39.501s5.5 -33.167 2.5 -52.5s-10 -39.833 -21 -61.5s-25.833 -43.834 -44.5 -66.501
c-21.333 -26 -44.333 -46 -69 -60s-49.167 -23 -73.5 -27s-47.5 -3.83301 -69.5 0.5s-41 11.833 -57 22.5c-17.333 11.333 -30.5 24 -39.5 38s-15 28.167 -18 42.5s-3.66699 28 -2 41s4.5 24.167 8.5 33.5c8.66699 21.333 20.667 37.5 36 48.5s30.666 16.5 45.999 16.5
c11.333 0 14 -4.66699 8 -14c-12.667 -20 -22.167 -39.167 -28.5 -57.5s-10 -35.166 -11 -50.499s0.5 -28.666 4.5 -39.999s10.667 -20 20 -26c12.667 -8 27 -11.667 43 -11s32.333 4.66699 49 12s33.334 17.5 50.001 30.5s31.667 28.167 45 45.5c12 14.667 22.667 30 32 46
s16.333 31 21 45s6.66699 26.5 6 37.5s-5 19.167 -13 24.5c-10 6.66699 -21.5 9.16699 -34.5 7.5s-26.333 -3.5 -40 -5.5s-27.667 -1.83301 -42 0.5s-27.833 11.5 -40.5 27.5c-3.33301 3.33301 -4.33301 6.83301 -3 10.5s5.33301 6.5 12 8.5c53.333 16 99 35.667 137 59
s68.167 47 90.5 71s36.5 46.5 42.5 67.5s3.66699 37.167 -7 48.5c-9.33301 10 -19.833 14.333 -31.5 13s-24 -6.16602 -37 -14.499s-26 -19.333 -39 -33s-25.5 -27.834 -37.5 -42.501c-16 -20 -32.833 -35.333 -50.5 -46s-36.834 -14 -57.501 -10c-12 2 -15.333 8 -10 18
c7.33301 14.667 16.833 29.834 28.5 45.501s24.167 30.5 37.5 44.5s27 26.667 41 38s27 20 39 26c24.667 12 51 16.5 79 13.5s50.667 -13.167 68 -30.5c21.333 -22 32.666 -47.5 33.999 -76.5s-12 -61.833 -40 -98.5z" />
    <glyph glyph-name="four" unicode="4" horiz-adv-x="426" 
d="M371 252c10.667 -5.33301 18.832 -11.835 24.499 -19.502s9.83398 -15.5 12.501 -23.5c2 -10 -1.66699 -14 -11 -12c-15.333 2.66699 -33.333 3.66699 -54 3c-21.333 -38.667 -41.166 -76.667 -59.499 -114s-33.833 -72 -46.5 -104
c-2 -5.33301 -4.66699 -8.16602 -8 -8.49902s-6.33301 1.16699 -9 4.5c-4 5.33301 -7.5 11.166 -10.5 17.499s-5 13.833 -6 22.5s-0.833008 18.5 0.5 29.5s4.66602 24.167 9.99902 39.5c10.667 28 26 63.333 46 106c-25.333 -3.33301 -50.833 -7.16602 -76.5 -11.499
s-48.834 -9.16602 -69.501 -14.499c-7.33301 -1.33301 -13.666 -1.66602 -18.999 -0.999023s-10.333 3.66699 -15 9c-6.66699 8.66699 -13.167 18.5 -19.5 29.5l-15.5 27.5c-6 11.333 -4.66699 22 4 32c20.667 24.667 47.334 52.167 80.001 82.5s67.667 60.666 105 90.999
l113.5 88c38.333 28.333 73.5 52.833 105.5 73.5c6 4 12.667 6.5 20 7.5s13.666 -2.5 18.999 -10.5s10 -15.5 14 -22.5l14 -24.5c2.66699 -5.33301 4.83398 -10 6.50098 -14s2.16699 -8 1.5 -12s-2.33398 -8.33301 -5.00098 -13l-11 -19l-63.5 -104zM439.998 511.998
l-91.001 -64.501l-92.5 -70.5c-30.333 -24 -59.5 -48.333 -87.5 -73s-53 -48.667 -75 -72c30.667 8 63.834 15 99.501 21s69.5 9.66699 101.5 11c22 42.667 45.667 85.834 71 129.501s50 83.167 74 118.5z" />
    <glyph glyph-name="five" unicode="5" horiz-adv-x="415" 
d="M552 556c-44 0 -83.333 -3.66309 -118 -10.9961s-68 -13 -100 -17c-3.33301 -0.666992 -6.16602 -1 -8.49902 -1h-7.5l-49.5 -75.5l-49.5 -77.5c24 9.33301 48.5 12.333 73.5 9s44.833 -10.666 59.5 -21.999c12.667 -9.33301 23.5 -21.333 32.5 -36
s14.333 -32.167 16 -52.5s-1.16602 -43.833 -8.49902 -70.5s-21.333 -57 -42 -91c-18.667 -30.667 -39.667 -55.334 -63 -74.001s-47.333 -32 -72 -40s-48.834 -11 -72.501 -9s-44.834 8 -63.501 18c-17.333 9.33301 -30.833 20.666 -40.5 33.999s-16.167 27.333 -19.5 42
s-4.33301 29.334 -3 44.001s4.33301 28 9 40c8.66699 23.333 20.834 39.666 36.501 48.999s30.834 14.666 45.501 15.999c4 0.666992 6.66699 -0.5 8 -3.5s0.666016 -6.5 -2.00098 -10.5c-12 -18.667 -21.167 -37.334 -27.5 -56.001s-9.83301 -36.334 -10.5 -53.001
s1.16602 -31.167 5.49902 -43.5s11.5 -21.5 21.5 -27.5c12.667 -7.33301 27.334 -9.33301 44.001 -6s33.667 10.666 51 21.999s34.166 25.833 50.499 43.5s30.5 36.5 42.5 56.5c12 21.333 21.5 42 28.5 62s11.333 38.333 13 55s0.833984 30.834 -2.49902 42.501
s-9 19.834 -17 24.501c-8.66699 4.66699 -19 6.5 -31 5.5s-24.333 -4.5 -37 -10.5s-25.5 -14.333 -38.5 -25s-24.833 -23.334 -35.5 -38.001c-4 -5.33301 -7.5 -7.83301 -10.5 -7.5s-6.16699 2.5 -9.5 6.5c-8 9.33301 -13.833 22.833 -17.5 40.5
s1.16602 40.834 14.499 69.501c11.333 24 25.5 50.833 42.5 80.5s36.167 61.167 57.5 94.5c-4.66699 4.66699 -8.33398 9.5 -11.001 14.5s-4.66699 10.167 -6 15.5c-2.66699 8.66699 1.33301 13 12 13c23.333 -0.666992 46.5 0.333008 69.5 3s45 5.66699 66 9
s40.333 6.66602 58 9.99902s33.167 5 46.5 5c21.333 0.666992 38.5 -3.83301 51.5 -13.5s22.5 -23.167 28.5 -40.5c2.66699 -8.66699 -0.666016 -13 -9.99902 -13z" />
    <glyph glyph-name="six" unicode="6" horiz-adv-x="383" 
d="M89 166c-9.33301 -36 -10.5 -64.833 -3.5 -86.5s15.5 -35.5 25.5 -41.5s21.667 -7.66699 35 -5s27 8.83398 41 18.501s28 22.834 42 39.501s26.333 36 37 58c21.333 42.667 33 80.5 35 113.5s-7 54.167 -27 63.5c-10 4.66699 -23.667 5.16699 -41 1.5
s-35.166 -11.834 -53.499 -24.501s-35.833 -30.334 -52.5 -53.001s-29.334 -50.667 -38.001 -84zM466 528c-0.666992 -13.333 -2.16602 -27.167 -4.49902 -41.5s-5.5 -28.5 -9.5 -42.5s-8.5 -27.167 -13.5 -39.5s-9.83301 -23.5 -14.5 -33.5s-11.667 -11.667 -21 -5
c-13.333 9.33301 -21.333 24.166 -24 44.499s0.666016 43.5 9.99902 69.5c4 10.667 7.83301 21.5 11.5 32.5s6.5 20.833 8.5 29.5s2.83301 15.834 2.5 21.501s-2.5 8.83398 -6.5 9.50098c-10 1.33301 -24 -2.16699 -42 -10.5s-38.167 -21.5 -60.5 -39.5
s-45.833 -41.333 -70.5 -70s-48.667 -62.667 -72 -102c22 13.333 45.5 20.833 70.5 22.5s49.167 -4.83301 72.5 -19.5c15.333 -10 28.333 -22.667 39 -38s17.5 -33.5 20.5 -54.5s1.66699 -44.5 -4 -70.5s-17.167 -54.667 -34.5 -86c-17.333 -30.667 -35.833 -55 -55.5 -73
s-40 -30.5 -61 -37.5s-41.833 -9.16699 -62.5 -6.5s-40.334 9.33398 -59.001 20.001c-22 12.667 -39 31.167 -51 55.5s-18.167 52.833 -18.5 85.5s5.16699 68.667 16.5 108s29 80.333 53 123c23.333 41.333 47.333 76.166 72 104.499s48.334 51.5 71.001 69.5
s43.167 31.667 61.5 41s32.833 15.666 43.5 18.999c20 6.66699 38.333 8.5 55 5.5s30.334 -8.16699 41.001 -15.5c12 -8 21.167 -18.167 27.5 -30.5s9.16602 -27.5 8.49902 -45.5z" />
    <glyph glyph-name="seven" unicode="7" horiz-adv-x="337" 
d="M383 536c-26.667 -5.33301 -51.4951 -10.665 -74.4951 -15.998s-44.5 -9.33301 -64.5 -12c-16.667 -2 -31 -2 -43 0s-22.333 5.5 -31 10.5s-15.5 11.333 -20.5 19s-8.83301 15.5 -11.5 23.5s1 12 11 12c20 0 40.167 1.16699 60.5 3.5s40.333 5.16602 60 8.49902
s38.167 6.66602 55.5 9.99902s33 5.66602 47 6.99902c10.667 1.33301 19.167 1.5 25.5 0.5s13.166 -6.5 20.499 -16.5c6 -9.33301 11.5 -19.5 16.5 -30.5s9.16699 -21.5 12.5 -31.5s3.66602 -17.667 0.999023 -23s-9.33398 -13 -20.001 -23
c-29.333 -28 -62.333 -62.5 -99 -103.5l-110.5 -129.5c-37 -45.333 -72.167 -91 -105.5 -137s-61.333 -88 -84 -126c-6 -9.33301 -12 -9.33301 -18 0c-6.66699 10 -9.33398 24.333 -8.00098 43s9.66602 42.334 24.999 71.001c10 18.667 23 40.167 39 64.5s34 50 54 77l64 83
l68.5 82c23 26.333 45.667 51 68 74s42.833 42.833 61.5 59.5z" />
    <glyph glyph-name="eight" unicode="8" horiz-adv-x="388" 
d="M216 279c-30 -25.333 -56.832 -51.332 -80.499 -77.999s-41.5 -53 -53.5 -79c-10.667 -23.333 -15.667 -44.666 -15 -63.999s9.66699 -33.333 27 -42c8.66699 -4 18.167 -6.33301 28.5 -7s21 0.5 32 3.5s21.833 7.66699 32.5 14s20.334 14.166 29.001 23.499
c8.66699 8.66699 16.5 18 23.5 28s12.5 21 16.5 33s5.66699 25.667 5 41s-4.33398 32.666 -11.001 51.999c-4.66699 12 -9.83398 24.167 -15.501 36.5zM396.001 477.001c0.666992 12.667 0.166992 25 -1.5 37s-5 22.333 -10 31s-11.5 15.167 -19.5 19.5s-17.667 5.5 -29 3.5
c-12 -2 -24 -7 -36 -15s-22.5 -17.833 -31.5 -29.5s-16.333 -24.167 -22 -37.5s-8.5 -26.666 -8.5 -39.999c0 -16 3.66699 -34 11 -54c24.667 17.333 49.5 33.166 74.5 47.499s49.167 26.833 72.5 37.5zM277.001 327.001l18.999 -37.002c6.66699 -12.667 13 -25.667 19 -39
c8.66699 -19.333 15.667 -38.666 21 -57.999s7.33301 -38.5 6 -57.5s-6.33301 -37.833 -15 -56.5s-22 -37.334 -40 -56.001c-13.333 -13.333 -29.166 -24.333 -47.499 -33s-37.333 -14.834 -57 -18.501s-39.167 -4.66699 -58.5 -3s-36.333 6.16699 -51 13.5
c-21.333 10.667 -37.333 23.834 -48 39.501s-17 32.334 -19 50.001s-0.666992 35.834 4 54.501s11.667 36 21 52c15.333 27.333 36.5 55.333 63.5 84s57.167 56.334 90.5 83.001c-8 18 -14.5 35.667 -19.5 53s-6.5 33.333 -4.5 48c4 34 17.667 63.667 41 89s50.333 44 81 56
c22 8.66699 43.833 13.5 65.5 14.5s41 -2.16699 58 -9.5s30.333 -18.833 40 -34.5s13.5 -35.834 11.5 -60.501c27.333 6.66699 48 5.66699 62 -3c4.66699 -2.66699 7 -5.66699 7 -9s-2.66699 -6.33301 -8 -9c-34 -18.667 -72.333 -41.167 -115 -67.5s-85 -54.833 -127 -85.5
z" />
    <glyph glyph-name="nine" unicode="9" horiz-adv-x="427" 
d="M308 220c-20 -11.333 -41.8301 -18.1621 -65.4971 -20.4951s-47.834 2.5 -72.501 14.5c-15.333 7.33301 -28.666 18.166 -39.999 32.499s-19.333 31.833 -24 52.5s-4.5 44.667 0.5 72s16.5 57.666 34.5 90.999c33.333 61.333 71.833 103 115.5 125s87.167 22.333 130.5 1
c23.333 -12 40.5 -29.833 51.5 -53.5s16 -52.334 15 -86.001s-8 -71.834 -21 -114.501s-31.833 -88.667 -56.5 -138c-38 -76 -77.333 -132.5 -118 -169.5s-86 -56.167 -136 -57.5c-14 0 -28.5 1.66699 -43.5 5s-28.833 9.16602 -41.5 17.499s-23.334 19.5 -32.001 33.5
s-13.334 31.667 -14.001 53c-0.666992 11.333 0.333008 21.666 3 30.999s6 17.5 10 24.5s8.5 12.833 13.5 17.5s9.5 8.33398 13.5 11.001c5.33301 3.33301 10.166 5 14.499 5s5.83301 -3.66699 4.5 -11c-10 -44.667 -11.167 -78.5 -3.5 -101.5s20.167 -37.5 37.5 -43.5
c29.333 -10 64 2 104 36s80 91.667 120 173zM361.003 369.004c10.667 26.667 18.165 51.002 22.498 73.002s6.33301 41 6 57s-2.66602 29 -6.99902 39s-9.83301 17 -16.5 21c-9.33301 4.66699 -20.833 4.66699 -34.5 0s-28 -13 -43 -25s-30 -27.167 -45 -45.5
s-28.167 -38.5 -39.5 -60.5c-12 -22.667 -21 -44.167 -27 -64.5s-9.16699 -38.833 -9.5 -55.5s1.83398 -30.834 6.50098 -42.501s12 -19.834 22 -24.501c11.333 -5.33301 24.5 -6.5 39.5 -3.5s30 10 45 21s29.667 25.833 44 44.5s26.5 40.667 36.5 66z" />
    <glyph glyph-name="colon" unicode=":" horiz-adv-x="255" 
d="M43 43c6.66699 13.333 15.4971 23.332 26.4971 29.999s21.167 8.33398 30.5 5.00098c10 -3.33301 16.333 -10.833 19 -22.5s1.33398 -24.167 -3.99902 -37.5c-5.33301 -12.667 -13.666 -22.5 -24.999 -29.5s-22 -8.83301 -32 -5.5
c-9.33301 3.33301 -15.666 11 -18.999 23s-2 24.333 4 37zM199.997 342.999c5.33301 12 13.5 21.668 24.5 29.001s21.5 9 31.5 5c9.33301 -4 15.5 -11.5 18.5 -22.5s1.83301 -23.167 -3.5 -36.5s-13.5 -23.333 -24.5 -30s-21.5 -8.33398 -31.5 -5.00098
s-16.5 10.833 -19.5 22.5s-1.5 24.167 4.5 37.5z" />
    <glyph glyph-name="semicolon" unicode=";" horiz-adv-x="264" 
d="M63 -16c-6.66699 3.33301 -11.668 9.16992 -15.001 17.5029s-3.33301 18.166 0 29.499c4 15.333 11.167 27.166 21.5 35.499s20.833 12.166 31.5 11.499c12 -0.666992 20.667 -7.66699 26 -21s5 -29 -1 -47c-3.33301 -10 -8.16602 -19 -14.499 -27
s-13.5 -14.667 -21.5 -20s-16.667 -8.66602 -26 -9.99902s-18.333 -0.333008 -27 3c-3.33301 1.33301 -5 3.33301 -5 6s1.66699 4.66699 5 6c10 3.33301 18.667 8.66602 26 15.999zM209.999 343.004c5.33301 11.333 13.5 20.832 24.5 28.499s21.5 9.5 31.5 5.5
c8.66699 -3.33301 14.667 -10.666 18 -21.999s2.33301 -23.666 -3 -36.999s-13.5 -23.333 -24.5 -30s-21.5 -8.33398 -31.5 -5.00098s-16.5 10.833 -19.5 22.5s-1.5 24.167 4.5 37.5z" />
    <glyph glyph-name="semicolon" unicode="&#x37e;" horiz-adv-x="264" 
d="M63 -16c-6.66699 3.33301 -11.668 9.16992 -15.001 17.5029s-3.33301 18.166 0 29.499c4 15.333 11.167 27.166 21.5 35.499s20.833 12.166 31.5 11.499c12 -0.666992 20.667 -7.66699 26 -21s5 -29 -1 -47c-3.33301 -10 -8.16602 -19 -14.499 -27
s-13.5 -14.667 -21.5 -20s-16.667 -8.66602 -26 -9.99902s-18.333 -0.333008 -27 3c-3.33301 1.33301 -5 3.33301 -5 6s1.66699 4.66699 5 6c10 3.33301 18.667 8.66602 26 15.999zM209.999 343.004c5.33301 11.333 13.5 20.832 24.5 28.499s21.5 9.5 31.5 5.5
c8.66699 -3.33301 14.667 -10.666 18 -21.999s2.33301 -23.666 -3 -36.999s-13.5 -23.333 -24.5 -30s-21.5 -8.33398 -31.5 -5.00098s-16.5 10.833 -19.5 22.5s-1.5 24.167 4.5 37.5z" />
    <glyph glyph-name="less" unicode="&#x3c;" horiz-adv-x="288" 
d="M158 267c11.333 -6 21.6631 -12.002 30.9961 -18.002s18 -12.667 26 -20c10.667 -9.33301 17.834 -19.666 21.501 -30.999s4.83398 -22 3.50098 -32c-2 -12 -8 -14.333 -18 -7c-17.333 12.667 -37.166 24.834 -59.499 36.501l-61.5 31.5
c-9.33301 4.66699 -15.666 10.834 -18.999 18.501s-6.33301 19.167 -9 34.5c-1.33301 8 -1 13.667 1 17s7.33301 6.66602 16 9.99902c12.667 4 27.667 9.66699 45 17l52.5 23c17.667 8 34.5 16.167 50.5 24.5s29 15.833 39 22.5c5.33301 3.33301 9.33301 4 12 2
s4 -5.66699 4 -11c0 -9.33301 -3 -20.333 -9 -33s-15.333 -23.667 -28 -33c-11.333 -9.33301 -26 -18.333 -44 -27z" />
    <glyph glyph-name="equal" unicode="=" horiz-adv-x="361" 
d="M126 182c-24 1.33301 -41.499 6.83301 -52.499 16.5s-18.167 22.167 -21.5 37.5c-1.33301 4.66699 -1.33301 8.33398 0 11.001s5 3.66699 11 3c13.333 -1.33301 27.666 -1.5 42.999 -0.5s30.833 2.33301 46.5 4s30.667 3.16699 45 4.5s27.166 1.66602 38.499 0.999023
c25.333 -1.33301 43.333 -6.83301 54 -16.5s17.667 -22.167 21 -37.5c2 -10 -1.66699 -14.667 -11 -14c-18 1.33301 -35.167 1.5 -51.5 0.5s-31.666 -2.16699 -45.999 -3.5s-27.833 -2.83301 -40.5 -4.5s-24.667 -2.16699 -36 -1.5zM173.001 290
c-23.333 0.666992 -40.3301 6.00293 -50.9971 16.0029s-17.667 22.667 -21 38c-2 9.33301 1.66699 13.666 11 12.999c13.333 -0.666992 27.833 -0.5 43.5 0.5l46.5 3l45 3c14.667 1 27.667 1.16699 39 0.5c24.667 -1.33301 42.5 -7 53.5 -17s17.833 -22.667 20.5 -38
c1.33301 -4.66699 1.16602 -8.33398 -0.500977 -11.001s-5.83398 -3.66699 -12.501 -3c-36 3.33301 -68.333 3.16602 -97 -0.500977s-54.334 -5.16699 -77.001 -4.5z" />
    <glyph glyph-name="greater" unicode="&#x3e;" horiz-adv-x="290" 
d="M192 276c-12.667 6.66699 -24.3301 13.5 -34.9971 20.5s-19.334 13.5 -26.001 19.5c-11.333 10 -18.833 21.167 -22.5 33.5s-4.83398 22.833 -3.50098 31.5c2 13.333 8 16 18 8c20.667 -14.667 44.5 -29.5 71.5 -44.5s52.167 -27.5 75.5 -37.5
c13.333 -5.33301 16.333 -15.333 9 -30c-7.33301 -15.333 -14 -26.666 -20 -33.999s-14 -13 -24 -17l-80.5 -30.5c-29 -11 -55.167 -23.167 -78.5 -36.5c-5.33301 -2.66699 -9 -3.33398 -11 -2.00098s-3.33301 5.33301 -4 12c-0.666992 8.66699 2.66602 19 9.99902 31
s16.666 22.333 27.999 31c12.667 9.33301 26.834 17.5 42.501 24.5s32.5 13.833 50.5 20.5z" />
    <glyph glyph-name="question" unicode="?" horiz-adv-x="385" 
d="M130 52c5.33301 -13.333 7.33203 -25.499 5.99902 -36.499s-5.33301 -20.167 -12 -27.5s-15.667 -10 -27 -8s-20.666 9.33301 -27.999 22c-7.33301 13.333 -10.333 26.666 -9 39.999s6 24.333 14 33s18 10.5 30 5.5s20.667 -14.5 26 -28.5zM193.999 528.001
c13.333 22 29.001 40.8389 47.001 56.5059s37 27.334 57 35.001s40.333 11 61 10s40 -7.5 58 -19.5c28 -18 45.167 -44.5 51.5 -79.5s-0.5 -73.5 -20.5 -115.5c-19.333 -39.333 -45.333 -71.833 -78 -97.5s-68.334 -48.834 -107.001 -69.501
c-37.333 -20.667 -64 -43.5 -80 -68.5s-27.667 -50.5 -35 -76.5c-3.33301 -11.333 -9.33301 -12.333 -18 -3c-6.66699 6.66699 -12 18 -16 34s-1 35.667 9 59c8.66699 20.667 22.5 40 41.5 58s47.167 37.667 84.5 59c30.667 17.333 58.5 38.833 83.5 64.5
s45.167 54.5 60.5 86.5c4.66699 10 8.83398 21.167 12.501 33.5s6 24.166 7 35.499s0.166992 21.666 -2.5 30.999s-8 16.333 -16 21c-13.333 6.66699 -28.333 6.66699 -45 0s-34 -18.334 -52 -35.001s-35.667 -37.334 -53 -62.001s-33 -51.334 -47 -80.001
c-3.33301 -6.66699 -6.5 -10.167 -9.5 -10.5s-6.16699 2.16699 -9.5 7.5c-7.33301 11.333 -10.833 28.166 -10.5 50.499s9.16602 47.5 26.499 75.5z" />
    <glyph glyph-name="at" unicode="@" horiz-adv-x="586" 
d="M385 396c-6 0 -14.002 -2.83301 -24.002 -8.5s-20.667 -13.667 -32 -24s-23.166 -22.833 -35.499 -37.5s-23.833 -31 -34.5 -49c-10.667 -17.333 -19.167 -34 -25.5 -50s-10.5 -30.5 -12.5 -43.5s-1.5 -23.5 1.5 -31.5s8.5 -12 16.5 -12
c15.333 -0.666992 32.833 9.83301 52.5 31.5s39.834 50.167 60.501 85.5c25.333 44 40 78 44 102s0.333008 36.333 -11 37zM325.998 165c-12.667 -14.667 -27.165 -27.501 -43.498 -38.501s-33.833 -16.5 -52.5 -16.5s-33.5 5.83301 -44.5 17.5s-17.833 26.834 -20.5 45.501
s-0.666992 40 6 64s18.334 48 35.001 72c32 46.667 62.833 79.834 92.5 99.501s54.834 29.5 75.501 29.5c15.333 0 27.333 -4.83301 36 -14.5s13.667 -21.167 15 -34.5l13 21c4 6.66699 8.33301 12.667 13 18c4 4.66699 7.16699 7.5 9.5 8.5s5.16602 -0.166992 8.49902 -3.5
c6.66699 -6.66699 10.667 -17.834 12 -33.501s-2.66699 -33.834 -12 -54.501c-4 -8.66699 -9.33301 -18.667 -16 -30l-21 -35.5l-21.5 -37c-7 -12.333 -12.833 -23.833 -17.5 -34.5c-8.66699 -19.333 -13.5 -36.333 -14.5 -51s2.16699 -23 9.5 -25
c10.667 -2.66699 25.5 5.33301 44.5 24s38.5 51 58.5 97c12 28 20.167 55.5 24.5 82.5s5 51.833 2 74.5s-9.5 42.334 -19.5 59.001s-23 28.667 -39 36c-17.333 7.33301 -37.333 9.83301 -60 7.5s-46.5 -9.33301 -71.5 -21s-50.167 -28.167 -75.5 -49.5
s-49 -47.666 -71 -78.999c-22.667 -32 -39.5 -64.667 -50.5 -98s-16.5 -64.5 -16.5 -93.5s5.16699 -54.667 15.5 -77s25.5 -37.833 45.5 -46.5c14 -6 29 -9.33301 45 -10s32 1 48 5s31.167 9.83301 45.5 17.5s26.5 16.5 36.5 26.5
c3.33301 3.33301 6.66602 4.83301 9.99902 4.5s5 -3.16602 5 -8.49902c0 -7.33301 -2.33301 -17.166 -7 -29.499s-15 -23.166 -31 -32.499c-13.333 -8 -27.5 -13.333 -42.5 -16s-29.5 -3.66699 -43.5 -3s-26.833 2.16699 -38.5 4.5s-21.5 5.16602 -29.5 8.49902
c-20.667 8 -38 18.167 -52 30.5s-25.5 26.166 -34.5 41.499s-15.667 31.833 -20 49.5s-6.5 35.5 -6.5 53.5c-0.666992 46.667 8.66602 91 27.999 133s43.5 79.333 72.5 112s60.333 59.667 94 81s64.167 35 91.5 41c32 7.33301 59.333 7.66602 82 0.999023
s41 -17.334 55 -32.001c27.333 -12.667 48 -30.167 62 -52.5s22.833 -46.5 26.5 -72.5s3.16699 -52.5 -1.5 -79.5s-11.334 -51.833 -20.001 -74.5c-19.333 -48 -43.5 -84.667 -72.5 -110s-58.167 -37 -87.5 -35c-19.333 1.33301 -34.5 7.83301 -45.5 19.5
s-17.167 26.167 -18.5 43.5z" />
    <glyph glyph-name="A" unicode="A" horiz-adv-x="442" 
d="M152 201c30.667 2.66699 60.668 5.99902 90.001 9.99902s55.666 6.33301 78.999 7c4 26 8.5 53 13.5 81s10.833 55.5 17.5 82.5s13.5 53 20.5 78s14.5 47.167 22.5 66.5c-19.333 -21.333 -39.166 -44.666 -59.499 -69.999l-62 -80l-62.5 -86
c-20.667 -29.333 -40.334 -59 -59.001 -89zM313.001 156.999c-18 -1.33301 -36.168 -3.00488 -54.501 -5.00488s-36.333 -3.83301 -54 -5.5s-34.167 -3 -49.5 -4s-29 -1.5 -41 -1.5c-30.667 -52.667 -56 -100.667 -76 -144c-2 -4.66699 -4.83301 -7 -8.5 -7
s-6.83398 1.66699 -9.50098 5c-6 8 -9.33301 20 -10 36s4.33301 38 15 66l11.5 25.5c4.33301 9.66699 9.5 20.167 15.5 31.5c-11.333 6 -19.333 12.333 -24 19s-7.66699 11.667 -9 15c-2.66699 6.66699 -3.16699 11.167 -1.5 13.5s6.16699 2.83301 13.5 1.5
s14.666 -2.33301 21.999 -3l23 -2c19.333 34 42.166 71 68.499 111s53.833 79.333 82.5 118s57.834 74.834 87.501 108.501s57.834 61.5 84.501 83.5c14.667 12 26.667 11.667 36 -1c2.66699 -3.33301 4.83398 -6.16602 6.50098 -8.49902s3.33398 -4.83301 5.00098 -7.5
s3.33398 -6 5.00098 -10l6.5 -15c5.33301 -12 7.83301 -23.833 7.5 -35.5s-2.83301 -24.167 -7.5 -37.5c-13.333 -40 -26.5 -84.667 -39.5 -134s-24.167 -101.666 -33.5 -156.999c15.333 -5.33301 26.166 -12.5 32.499 -21.5s10.5 -18.833 12.5 -29.5
c2 -9.33301 -1.66699 -12.333 -11 -9c-12 3.33301 -26.333 5.33301 -43 6c-3.33301 -26 -6.33301 -52.5 -9 -79.5s-4.66699 -53.833 -6 -80.5c0 -10.667 -5 -13.667 -15 -9s-18.5 13.834 -25.5 27.501s-10.833 34.834 -11.5 63.501c0 10 0.333008 21.333 1 34
s1.66699 26.667 3 42z" />
    <glyph glyph-name="B" unicode="B" horiz-adv-x="454" 
d="M244 238c-7.33301 -1.33301 -14.332 -2.49805 -20.999 -3.49805s-13.667 -2.16699 -21 -3.5c-26.667 -2.66699 -47.334 -0.333984 -62.001 6.99902c-13.333 -26 -26 -52 -38 -78s-21.667 -51.667 -29 -77c-5.33301 -17.333 -5.33301 -29.333 0 -36s16 -9 32 -7
s33 6 51 12s35.833 13.5 53.5 22.5s34.167 19.167 49.5 30.5s28.333 23.666 39 36.999c9.33301 11.333 16 22.5 20 33.5s4.33301 21 1 30s-11 16.333 -23 22s-29.333 9.16699 -52 10.5zM167.001 288.002c49.333 11.333 93.6689 27.4971 133.002 48.4971
s72.166 43.5 98.499 67.5s45.166 47.833 56.499 71.5s14 44.167 8 61.5c-5.33301 12.667 -14.833 20.167 -28.5 22.5s-29.5 1.5 -47.5 -2.5s-36.833 -9.66699 -56.5 -17s-38.167 -13.666 -55.5 -18.999c1.33301 -11.333 -0.166992 -24.666 -4.5 -39.999
s-12.833 -34.666 -25.5 -57.999c-10 -18.667 -21.833 -39.5 -35.5 -62.5zM213.004 510.999c-20 1.33301 -35.4961 6.33203 -46.4961 14.999s-18.167 17 -21.5 25c-4.66699 10.667 -1.33398 16.334 9.99902 17.001c17.333 1.33301 35.833 5 55.5 11s39.334 12.333 59.001 19
s39.167 12.834 58.5 18.501s37.333 9.16699 54 10.5c12.667 0.666992 25.167 0 37.5 -2s23.666 -6 33.999 -12s19.5 -14.5 27.5 -25.5s14.333 -24.833 19 -41.5c9.33301 -34 10.166 -64.833 2.49902 -92.5s-20.167 -52.5 -37.5 -74.5c-14.667 -18.667 -35 -39.167 -61 -61.5
s-57.667 -41.5 -95 -57.5c18.667 -9.33301 34.667 -23.333 48 -42c5.33301 -8 9.16602 -17.333 11.499 -28s2.66602 -22.167 0.999023 -34.5s-5.33398 -24.833 -11.001 -37.5s-13.834 -25 -24.501 -37c-11.333 -12 -24.166 -23.167 -38.499 -33.5
s-29.166 -19.5 -44.499 -27.5s-31 -14.667 -47 -20s-31 -9.33301 -45 -12c-19.333 -3.33301 -35.333 -4.66602 -48 -3.99902s-24.667 3.66699 -36 9c-10 5.33301 -19.333 12 -28 20s-16.334 16.667 -23.001 26c-4 5.33301 -7.33301 10.666 -10 15.999
s-4.33398 11.666 -5.00098 18.999s-0.166992 16.333 1.5 27s5.5 24 11.5 40c10 28 22 57.833 36 89.5s29.333 63.5 46 95.5s34.334 63.833 53.001 95.5s37.334 61.5 56.001 89.5z" />
    <glyph glyph-name="C" unicode="C" horiz-adv-x="462" 
d="M388 206c2.66699 5.33301 6.16406 7.99805 10.4971 7.99805s7.83301 -3.33301 10.5 -10c6 -16.667 7.16699 -33.667 3.5 -51s-10 -33.666 -19 -48.999s-19.5 -29.333 -31.5 -42s-23.333 -22.667 -34 -30c-36 -25.333 -73 -38.833 -111 -40.5s-70.667 4.83301 -98 19.5
c-22.667 12 -42.334 32.667 -59.001 62s-25.667 64.666 -27 105.999c-0.666992 35.333 3.33301 69.666 12 102.999s20.5 65 35.5 95s32.333 57.833 52 83.5s40.167 48.834 61.5 69.501s42.833 38.167 64.5 52.5s41.834 25.166 60.501 32.499
c27.333 10.667 52.666 16.334 75.999 17.001s43 -6 59 -20c11.333 -9.33301 22 -20.666 32 -33.999s17 -26.333 21 -39c8.66699 -28 5.66699 -57.333 -9 -88c-7.33301 -15.333 -14.5 -32 -21.5 -50l-18.5 -49c-1.33301 -4 -3.83301 -7 -7.5 -9s-8.5 -1 -14.5 3
c-11.333 7.33301 -20 18.833 -26 34.5s-5.33301 36.167 2 61.5c4 13.333 8.83301 26.666 14.5 39.999s10.5 26 14.5 38s6.5 22.833 7.5 32.5s-1.5 17.5 -7.5 23.5c-7.33301 7.33301 -21.166 8 -41.499 2s-43.666 -17.667 -69.999 -35s-53.666 -40.166 -81.999 -68.499
s-53.833 -61.166 -76.5 -98.499c-22 -36.667 -38.167 -72.834 -48.5 -108.501s-16.166 -68.5 -17.499 -98.5s1.5 -56.167 8.5 -78.5s16.5 -38.5 28.5 -48.5c16 -13.333 34.167 -19.166 54.5 -17.499s41.5 9.66699 63.5 24s44 34.833 66 61.5s42.667 58.667 62 96z" />
    <glyph glyph-name="D" unicode="D" horiz-adv-x="483" 
d="M263 511c2.66699 -12.667 2.1709 -27.833 -1.49609 -45.5s-11.834 -37.5 -24.501 -59.5l-42 -73.5l-45.5 -82.5c-15 -28 -29 -55.667 -42 -83s-23.167 -52.333 -30.5 -75c-12.667 -40.667 -4.66699 -55.667 24 -45c45.333 17.333 86.666 39.166 123.999 65.499
s70.166 54.833 98.499 85.5s52.333 62.334 72 95.001s34.5 64 44.5 94s15.167 57.667 15.5 83s-4.5 45.666 -14.5 60.999c-8.66699 14 -19.5 21.833 -32.5 23.5s-27.333 0.333984 -43 -3.99902s-32.334 -10.5 -50.001 -18.5s-35.167 -15 -52.5 -21zM210.004 501.001
c-19.333 0.666992 -34.3281 5.99805 -44.9951 15.998s-17.334 18.667 -20.001 26c-2 5.33301 -2.5 9.5 -1.5 12.5s4.83301 5.16699 11.5 6.5c17.333 2 33.666 5.83301 48.999 11.5s30.166 11.5 44.499 17.5s29 11.833 44 17.5s30.5 9.83398 46.5 12.501
c32 5.33301 60.5 0.166016 85.5 -15.501s46.833 -39.834 65.5 -72.501c15.333 -26.667 23.5 -56.5 24.5 -89.5s-4.16699 -67 -15.5 -102s-28.333 -70.167 -51 -105.5s-49.667 -68.666 -81 -99.999s-66.5 -59.5 -105.5 -84.5s-80.833 -44.833 -125.5 -59.5
c-14.667 -5.33301 -26.834 -7.33301 -36.501 -6s-18.834 5.66602 -27.501 12.999l-20 18c-7.33301 6.66699 -14.666 15 -21.999 25c-4.66699 6.66699 -8.5 12.834 -11.5 18.501s-4.66699 12.334 -5 20.001s0.5 16.834 2.5 27.501s5.66699 24 11 40c8 23.333 18.667 50 32 80
s28.333 61 45 93s34.167 63.5 52.5 94.5s36.166 59.5 53.499 85.5z" />
    <glyph glyph-name="E" unicode="E" horiz-adv-x="368" 
d="M218 525c-12.667 5.33301 -21.9961 12.502 -27.9961 21.502s-10.667 18.833 -14 29.5c-2 8.66699 1.66699 12.667 11 12c20.667 -1.33301 42.667 -0.833008 66 1.5s46.166 5.16602 68.499 8.49902s43.5 6.66602 63.5 9.99902s37 5 51 5
c21.333 0.666992 37.833 -3.16602 49.5 -11.499s20.5 -20.833 26.5 -37.5c1.33301 -4 1.33301 -7.5 0 -10.5s-5 -3.83301 -11 -2.5c-36 0.666992 -71.167 -2.33301 -105.5 -9s-66.833 -12.667 -97.5 -18c-20 -30 -41.833 -65.667 -65.5 -107l-72.5 -129
c13.333 2.66699 26.166 4.5 38.499 5.5s23.166 1.83301 32.499 2.5c25.333 1.33301 44 -2 56 -10s20.667 -19.667 26 -35c1.33301 -4.66699 1.66602 -8.33398 0.999023 -11.001s-4.33398 -4 -11.001 -4c-27.333 0 -58 -2.83301 -92 -8.5s-65 -12.167 -93 -19.5l-41.5 -82.5
l-35.5 -75.5c12 4 24.833 7.66699 38.5 11s27.5 6.5 41.5 9.5s27.5 5.33301 40.5 7s24.5 2.83398 34.5 3.50098c24.667 1.33301 43.667 -1.83398 57 -9.50098s22.666 -19.167 27.999 -34.5c1.33301 -4.66699 1.5 -8.33398 0.5 -11.001s-4.5 -4 -10.5 -4
c-14 0 -30.833 -1.33301 -50.5 -4s-39.667 -6 -60 -10s-40.333 -8.33301 -60 -13s-36.5 -9 -50.5 -13c-9.33301 -2.66699 -17.166 -3.5 -23.499 -2.5s-12.5 5.16699 -18.5 12.5c-4 4.66699 -7.66699 10.334 -11 17.001l-10 20c-4.66699 8.66699 -7 17 -7 25
s2.66699 18.667 8 32c11.333 30.667 25.833 64.667 43.5 102s36.834 75.5 57.501 114.5l64 116c22 38.333 43.667 73.833 65 106.5z" />
    <glyph glyph-name="F" unicode="F" horiz-adv-x="363" 
d="M214 526c-11.333 5.33301 -20 12.6641 -26 21.9971s-10.333 19 -13 29c-2 8 1.66699 12 11 12c20.667 -1.33301 42.5 -0.666016 65.5 2.00098s45.5 5.66699 67.5 9l62 9.5c19.333 3 36 4.5 50 4.5c21.333 0 38.666 -4.66699 51.999 -14s23.333 -21.666 30 -36.999
c1.33301 -4 1.33301 -7.5 0 -10.5s-5.33301 -4.5 -12 -4.5c-38 0.666992 -74.167 -2.66602 -108.5 -9.99902s-66.833 -13.333 -97.5 -18l-60 -101.5l-71 -126.5c13.333 2.66699 25.5 4.5 36.5 5.5s21.167 1.83301 30.5 2.5c25.333 1.33301 44.5 -2.5 57.5 -11.5
s21.833 -21.167 26.5 -36.5c3.33301 -10 -0.333984 -15 -11.001 -15c-12.667 0 -26.667 -0.666992 -42 -2s-31.166 -3.33301 -47.499 -6s-32.666 -5.83398 -48.999 -9.50098l-45.5 -10.5l-55.5 -110.5c-17.667 -36.333 -33.834 -71.5 -48.501 -105.5
c-4 -9.33301 -9.66699 -10.666 -17 -3.99902c-9.33301 8 -15.666 20.5 -18.999 37.5s0.333984 41.167 11.001 72.5c7.33301 22 19 49.833 35 83.5s34.167 70 54.5 109s42.166 78.833 65.499 119.5z" />
    <glyph glyph-name="G" unicode="G" horiz-adv-x="500" 
d="M412 192c6.66699 -23.333 5.16504 -46.1768 -4.50195 -68.5098s-23 -42.5 -40 -60.5s-35 -33.167 -54 -45.5s-34.833 -20.166 -47.5 -23.499c-12 -3.33301 -25 -6.16602 -39 -8.49902s-28.167 -3.16602 -42.5 -2.49902s-28.666 3.33398 -42.999 8.00098
s-28.5 12.334 -42.5 23.001c-18 13.333 -33.5 32 -46.5 56s-19.833 56.667 -20.5 98c-0.666992 36 4.16602 71 14.499 105s24 66.333 41 97s36.333 59.334 58 86.001s44.167 50.334 67.5 71.001s46.5 38.167 69.5 52.5s43.833 24.5 62.5 30.5
c28 9.33301 53.167 13.833 75.5 13.5s42.166 -6.83301 59.499 -19.5c14 -10 25.167 -21 33.5 -33s14.5 -24.667 18.5 -38c8.66699 -27.333 6.33398 -56.333 -6.99902 -87c-6 -13.333 -12.667 -29 -20 -47s-13.666 -34.333 -18.999 -49
c-1.33301 -4 -3.83301 -7.16699 -7.5 -9.5s-8.16699 -0.833008 -13.5 4.5c-11.333 8 -20.166 19.5 -26.499 34.5s-6.16602 35.167 0.500977 60.5c3.33301 12.667 7.66602 25.334 12.999 38.001s10 24.834 14 36.501s6.5 22.167 7.5 31.5s-1.16699 16.666 -6.5 21.999
c-8 8 -23.167 9 -45.5 3s-47.666 -17.833 -75.999 -35.5s-57.5 -40.667 -87.5 -69s-57 -60.5 -81 -96.5c-23.333 -35.333 -40.833 -70.833 -52.5 -106.5s-19 -68.5 -22 -98.5s-2.16699 -56.167 2.5 -78.5s12 -38.166 22 -47.499c14 -12.667 31 -18 51 -16s41 10 63 24
s43.5 32.833 64.5 56.5s39.167 50.5 54.5 80.5c-16 -3.33301 -31.667 -6.16602 -47 -8.49902s-29 -4.16602 -41 -5.49902c-25.333 -2.66699 -45.833 0.666016 -61.5 9.99902s-27.167 22 -34.5 38c-5.33301 10.667 -2 16 10 16c19.333 0 38.666 1.5 57.999 4.5l56 9l52.5 9
c17 3 33.167 4.5 48.5 4.5c25.333 0.666992 45.166 -3.83301 59.499 -13.5s24.833 -22.167 31.5 -37.5c2.66699 -5.33301 3.33398 -9.66602 2.00098 -12.999s-5.33301 -4.33301 -12 -3c-9.33301 1.33301 -20 1.66602 -32 0.999023s-24.667 -1.66699 -38 -3z" />
    <glyph glyph-name="H" unicode="H" horiz-adv-x="488" 
d="M558 465l-51.502 -90.502l-60.5 -108.5c11.333 -5.33301 20 -11.833 26 -19.5s10.333 -15.834 13 -24.501c1.33301 -9.33301 -2.33398 -13 -11.001 -11c-16 3.33301 -34.667 4.33301 -56 3l-51.5 -102l-50.5 -110c-4.66699 -11.333 -10.334 -12 -17.001 -2
c-7.33301 10 -12.166 23.167 -14.499 39.5s1.5 39.833 11.5 70.5c3.33301 10 8.66602 23.333 15.999 40s16 35.334 26 56.001c-18 -2 -36.333 -4.33301 -55 -7l-53.5 -7.5c-17 -2.33301 -33 -4.16602 -48 -5.49902s-28.5 -2 -40.5 -2l-46 -95.5l-45 -99.5
c-2 -5.33301 -4.66699 -8.5 -8 -9.5s-6.66602 0.833008 -9.99902 5.5c-7.33301 10.667 -12.166 24 -14.499 40s0.833984 39.333 9.50098 70c3.33301 10.667 8.83301 24.667 16.5 42l26.5 60c-11.333 5.33301 -19.333 11 -24 17s-8 11 -10 15
c-3.33301 6 -4.16602 10.167 -2.49902 12.5s6.83398 3.16602 15.501 2.49902l21.5 -2c7 -0.666992 13.833 -1 20.5 -1l52 105l55.5 105l51.5 91c16 27.333 29 48.333 39 63c9.33301 12 17.333 11.667 24 -1c7.33301 -14 9.66602 -33.167 6.99902 -57.5
s-13.334 -54.5 -32.001 -90.5l-51.5 -94.5l-62.5 -115.5c34.667 4.66699 67.834 10.334 99.501 17.001s64.167 11 97.5 13l52 100l54 99c17.333 31.333 33.666 59.5 48.999 84.5s28 44.167 38 57.5s18.333 13 25 -1c6.66699 -14.667 8.33398 -34.167 5.00098 -58.5
s-15.333 -55.166 -36 -92.499z" />
    <glyph glyph-name="I" unicode="I" horiz-adv-x="182" 
d="M269 616c4.66699 6.66699 9.00098 9.66895 13.001 9.00195s7.66699 -4 11 -10c7.33301 -14.667 9.5 -34.334 6.5 -59.001s-15.167 -56 -36.5 -94l-54 -96l-64.5 -116.5l-66.5 -127c-22 -43.667 -42 -85.834 -60 -126.501c-4 -9.33301 -9.33301 -10 -16 -2
c-3.33301 4 -6.5 9.16699 -9.5 15.5s-5 14 -6 23s-0.666992 19.5 1 31.5s5.16699 25.667 10.5 41c8 22.667 18.5 48.334 31.5 77.001l42.5 90c15.333 31.333 31.833 63.166 49.5 95.499l52.5 94l50.5 85.5c16.333 26.667 31.166 49.667 44.499 69z" />
    <glyph glyph-name="J" unicode="J" horiz-adv-x="437" 
d="M66 229c7.33301 1.33301 12.4971 0.5 15.4971 -2.5s2.83301 -8.83301 -0.5 -17.5c-12 -35.333 -19.167 -65 -21.5 -89s-1.66602 -43.5 2.00098 -58.5s9.33398 -26 17.001 -33s15.5 -11.5 23.5 -13.5c22.667 -5.33301 44.167 -0.833008 64.5 13.5s40 34.833 59 61.5
s37.333 57.167 55 91.5l51.5 103.5l45 92l49 97l45 85.5c14 25.667 25 44.5 33 56.5c8 12.667 16 12.334 24 -0.999023c6.66699 -11.333 10.334 -27.5 11.001 -48.5s-5.33301 -46.5 -18 -76.5c-8 -19.333 -19.667 -45.166 -35 -77.499l-49.5 -101.5l-53 -104
c-17.667 -34 -33.5 -62.333 -47.5 -85c-19.333 -32 -39 -57.833 -59 -77.5s-40 -34.5 -60 -44.5s-40.333 -16 -61 -18s-41 -1.33301 -61 2c-38 6.66699 -66.167 25.5 -84.5 56.5s-21.833 68.167 -10.5 111.5c5.33301 21.333 14.333 38.666 27 51.999
s25.667 21.666 39 24.999z" />
    <glyph glyph-name="K" unicode="K" horiz-adv-x="397" 
d="M125 210l-52 -105.999l-51 -113c-4.66699 -10 -10 -11 -16 -3c-7.33301 10.667 -12.333 24.167 -15 40.5s0.666016 39.5 9.99902 69.5c4 14 11.833 34.333 23.5 61l41 89.5l51 104l54 104l50 89.5c15.667 26.667 28.5 47 38.5 61
c8.66699 11.333 16.667 10.666 24 -2.00098c3.33301 -6 5.83301 -13.333 7.5 -22s2 -19.167 1 -31.5s-4 -26.166 -9 -41.499s-12.5 -32.333 -22.5 -51l-44 -78.5l-51 -94.5l99 78l97.5 83c31.667 28 61.834 56 90.501 84s55 55 79 81c8 9.33301 14.333 8.66602 19 -2.00098
c3.33301 -11.333 3.5 -25.5 0.5 -42.5s-13.5 -37.833 -31.5 -62.5c-11.333 -15.333 -27.833 -34 -49.5 -56s-46.667 -45.5 -75 -70.5s-58.833 -50.5 -91.5 -76.5s-66 -51 -100 -75c16 -25.333 30.333 -49 43 -71s22 -40 28 -54c12 -28.667 16.833 -52 14.5 -70
s-7.16602 -31.667 -14.499 -41c-6.66699 -8 -12.667 -7.33301 -18 2c-19.333 37.333 -39.833 73.833 -61.5 109.5s-44.834 71.5 -69.501 107.5z" />
    <glyph glyph-name="L" unicode="L" horiz-adv-x="353" 
d="M55 56c28.667 7.33301 56.3379 13.501 83.0049 18.501s49.667 8.16699 69 9.5c25.333 2 45 -1.16699 59 -9.5s23.667 -20.166 29 -35.499c1.33301 -4 1.66602 -7.5 0.999023 -10.5s-4.33398 -4.5 -11.001 -4.5c-12.667 0 -28.334 -1.33301 -47.001 -4
s-38.334 -6 -59.001 -10s-40.834 -8.16699 -60.501 -12.5s-36.834 -8.5 -51.501 -12.5c-12 -3.33301 -21.167 -4.5 -27.5 -3.5s-12.166 5.5 -17.499 13.5c-4.66699 6.66699 -9.5 14 -14.5 22s-8.83301 15 -11.5 21c-3.33301 8.66699 -5 17.167 -5 25.5
s2.66699 19.166 8 32.499c8 20.667 18.833 45.667 32.5 75s29 60.666 46 93.999l53.5 101.5l54.5 98.5l49.5 84.5c15.333 25 28 44.5 38 58.5c9.33301 12.667 17.333 12 24 -2c6 -12.667 8.5 -30.167 7.5 -52.5s-11.833 -51.833 -32.5 -88.5l-45.5 -81.5l-54.5 -98.5
l-59 -111c-20 -38.667 -39.333 -78 -58 -118z" />
    <glyph glyph-name="M" unicode="M" horiz-adv-x="573" 
d="M269 435l-69.4961 -107.501l-71.5 -116c-23.333 -39 -45.333 -77.667 -66 -116s-38.334 -74.166 -53.001 -107.499c-4 -10 -9.66699 -10.667 -17 -2c-7.33301 7.33301 -12.333 19.833 -15 37.5s1.66602 41.5 12.999 71.5c9.33301 24 25.5 57 48.5 99
s49.167 87.333 78.5 136l91.5 146c31.667 48.667 61.167 91.334 88.5 128.001c9.33301 14 20 16 32 6c10 -8.66699 18 -17.5 24 -26.5s10.167 -19.167 12.5 -30.5s2.5 -24.333 0.5 -39s-6.33301 -32 -13 -52c-16 -48 -32.833 -101.167 -50.5 -159.5
s-36.167 -122.833 -55.5 -193.5c27.333 44.667 56.5 87.667 87.5 129l94.5 122.5l95 121.5c31.333 40.667 60.666 82.334 87.999 125.001c8.66699 12.667 18.334 13.667 29.001 3c20 -20.667 28.833 -43.834 26.5 -69.501s-10.166 -51.167 -23.499 -76.5l-57 -109
l-61 -123.5c-20 -42.333 -38.833 -84.5 -56.5 -126.5s-32.834 -81 -45.501 -117c-3.33301 -8.66699 -8.66602 -9.66699 -15.999 -3c-8 6.66699 -14 18.167 -18 34.5s-1.66699 41.166 7 74.499c4 14.667 10.667 34 20 58s20.5 50.5 33.5 79.5l43 91.5l47.5 95l-85.5 -106
l-81.5 -108c-26 -36 -50.5 -71.833 -73.5 -107.5s-43.5 -70.167 -61.5 -103.5c-4.66699 -10 -10.667 -12.333 -18 -7c-16.667 12 -28.5 27.333 -35.5 46s-7.83301 43.667 -2.5 75c2 14 5.66699 32.833 11 56.5s11.666 50 18.999 79s15.666 60 24.999 93
s19.666 66.167 30.999 99.5z" />
    <glyph glyph-name="N" unicode="N" horiz-adv-x="459" 
d="M239 429l-60.0059 -105.501l-62 -115.5c-20 -38.667 -38.333 -76.5 -55 -113.5s-30 -70.5 -40 -100.5c-3.33301 -11.333 -9 -12.666 -17 -3.99902c-8.66699 9.33301 -14.167 23.5 -16.5 42.5s1.5 42.167 11.5 69.5c12 34 28.667 73.167 50 117.5l68.5 136l73.5 135.5
l67 116c4.66699 7.33301 8.83398 11.5 12.501 12.5s8.16699 -0.166992 13.5 -3.5c9.33301 -6.66699 16.833 -13.667 22.5 -21s9.83398 -15.833 12.501 -25.5s3.83398 -20.667 3.50098 -33s-1.83301 -27.166 -4.5 -44.499c-8 -48 -14.667 -102.333 -20 -163
s-9.66602 -126.334 -12.999 -197.001c16.667 38.667 36 79.834 58 123.501l68 130l69.5 123l62.5 102.5c4 6 8 8.5 12 7.5s7.66699 -4.16699 11 -9.5c4 -7.33301 6.66699 -15.5 8 -24.5s1 -19.333 -1 -31s-6 -24.834 -12 -39.501s-14.667 -31.334 -26 -50.001l-34.5 -60
l-42 -76l-46 -86l-46 -89.5l-42 -85.5l-34.5 -74c-4 -9.33301 -10.667 -11.333 -20 -6c-15.333 8 -26.666 19.333 -33.999 34s-12.333 38 -15 70c-1.33301 15.333 -2 34.833 -2 58.5s0.666992 50.334 2 80.001s3.33301 61.5 6 95.5s6.33398 68.667 11.001 104z" />
    <glyph glyph-name="O" unicode="O" horiz-adv-x="537" 
d="M424 236c22.667 42 39.6689 82.166 51.002 120.499s17.833 72.666 19.5 102.999s-0.833008 55.5 -7.5 75.5s-17 32.667 -31 38c-12 4.66699 -28.5 3.83398 -49.5 -2.49902s-43.833 -17.666 -68.5 -33.999s-50.334 -37.833 -77.001 -64.5s-51.667 -58.334 -75 -95.001
c-24 -37.333 -42.333 -75 -55 -113s-20 -73.167 -22 -105.5s1 -60 9 -83s20.667 -38.167 38 -45.5c16.667 -7.33301 36 -7.83301 58 -1.5s45 18.5 69 36.5s48.167 41.333 72.5 70s47.166 62.334 68.499 101.001zM476.002 596.999
c30.667 -13.333 52.668 -34.6641 66.001 -63.9971s19.666 -62.333 18.999 -99s-6.83398 -74.834 -18.501 -114.501s-26.834 -76.834 -45.501 -111.501c-20 -37.333 -42.833 -71.833 -68.5 -103.5s-53.167 -58 -82.5 -79s-60.166 -35 -92.499 -42s-65.5 -4.16699 -99.5 8.5
c-41.333 15.333 -70.666 40 -87.999 74s-26 71.667 -26 113c0 53.333 10.333 104.166 31 152.499s46.167 92 76.5 131s63 72 98 99s66.5 45.5 94.5 55.5c29.333 10 55.833 12.833 79.5 8.5s42.5 -13.833 56.5 -28.5z" />
    <glyph glyph-name="P" unicode="P" horiz-adv-x="425" 
d="M146 257c56 10.667 104.835 27.665 146.502 50.998s75.667 48.5 102 75.5s44.666 54 54.999 81s12.166 49.167 5.49902 66.5c-5.33301 14 -15 21.833 -29 23.5s-30 0.333984 -48 -3.99902s-36.667 -10.166 -56 -17.499s-37.333 -13.333 -54 -18
c0 -13.333 -2.83301 -29 -8.5 -47s-15.5 -39 -29.5 -63l-40.5 -70.5zM206.002 508.998c-17.333 2 -30.833 6.83203 -40.5 14.499s-17.167 16.834 -22.5 27.501c-5.33301 11.333 -2 17.333 10 18c20.667 2 40.834 5.83301 60.501 11.5l58 17.5c19 6 37.333 11.5 55 16.5
s35.167 7.83301 52.5 8.5c12.667 0.666992 24.834 -0.166016 36.501 -2.49902s22.667 -6.5 33 -12.5s19.666 -14.5 27.999 -25.5s15.5 -25.167 21.5 -42.5c10.667 -30 12.667 -59.333 6 -88s-18.667 -56.334 -36 -83.001c-12.667 -19.333 -28.667 -38.333 -48 -57
s-41.333 -36 -66 -52s-51.834 -30 -81.501 -42s-60.834 -21 -93.501 -27c-23.333 -4 -44 -0.666992 -62 10c-27.333 -53.333 -58.333 -121.333 -93 -204c-3.33301 -9.33301 -8.66602 -10.333 -15.999 -3s-12.5 18.833 -15.5 34.5s-0.833008 37.167 6.5 64.5
c6.66699 22.667 17 50.667 31 84s30.5 68.833 49.5 106.5l61 115.5c21.667 39.333 43.5 76 65.5 110z" />
    <glyph glyph-name="Q" unicode="Q" horiz-adv-x="543" 
d="M417 235c22.667 41.333 39.667 81.1699 51 119.503s18 72.666 20 102.999s-0.333008 55.666 -7 75.999s-17 33.166 -31 38.499c-12 4.66699 -28.333 4 -49 -2s-43.334 -17.167 -68.001 -33.5s-50.167 -37.833 -76.5 -64.5s-51.166 -58.334 -74.499 -95.001
c-24 -36.667 -42.167 -73.834 -54.5 -111.501s-19.5 -72.5 -21.5 -104.5s1 -59.667 9 -83s20.333 -38.666 37 -45.999s36 -8 58 -2s44.833 17.833 68.5 35.5s47.5 40.834 71.5 69.501s46.333 62 67 100zM226 -15.9961c18.667 -9.33301 37.1699 -19.1689 55.5029 -29.502
s36.5 -19.166 54.5 -26.499s35.667 -12.833 53 -16.5s34.666 -3.83398 51.999 -0.500977c8.66699 1.33301 13.334 0.5 14.001 -2.5s-0.666016 -6.16699 -3.99902 -9.5c-8 -10.667 -18 -19 -30 -25s-24.833 -9.83301 -38.5 -11.5s-27.5 -1.66699 -41.5 0s-27 4.5 -39 8.5
c-26.667 8.66699 -51.334 20.167 -74.001 34.5s-45.334 27.5 -68.001 39.5s-46.667 21 -72 27s-54.333 5.33301 -87 -2c-5.33301 -1.33301 -8.83301 -0.666016 -10.5 2.00098s-1.16699 5.66699 1.5 9c9.33301 12 23.166 21.667 41.499 29s40.5 10.333 66.5 9h7
c-24.667 18.667 -42.5 42.167 -53.5 70.5s-16.5 58.833 -16.5 91.5c0 53.333 10.333 104 31 152s46 91.333 76 130s62.167 71.167 96.5 97.5s65.166 44.166 92.499 53.499c30 10.667 56.833 13.834 80.5 9.50098s42.834 -14.166 57.501 -29.499
c30 -13.333 51.333 -34.5 64 -63.5s18.667 -61.833 18 -98.5s-6.83398 -74.667 -18.501 -114s-26.5 -76.333 -44.5 -111c-16 -30 -33.833 -58.333 -53.5 -85s-40.667 -50 -63 -70s-46 -36 -71 -48s-50.5 -18.667 -76.5 -20z" />
    <glyph glyph-name="R" unicode="R" horiz-adv-x="458" 
d="M283 517c0 -14 -3 -30.001 -9 -48.001s-15.667 -39.667 -29 -65l-39.5 -69l-39.5 -70c55.333 12 103.666 29.333 144.999 52s75 46.834 101 72.501s44.167 51.167 54.5 76.5s11.833 47 4.5 65c-5.33301 14 -15.166 22 -29.499 24s-30.5 1 -48.5 -3
s-36.667 -9.66699 -56 -17s-37.333 -13.333 -54 -18zM129 194.999l-42 -88.0039c-14.667 -32 -30.334 -68.667 -47.001 -110c-4 -9.33301 -9.33301 -10.666 -16 -3.99902c-7.33301 7.33301 -12.5 18.833 -15.5 34.5s-0.833008 37.167 6.5 64.5
c6 22.667 16.167 50.834 30.5 84.501s30.833 69.5 49.5 107.5s39 76.667 61 116s44 76.333 66 111c-17.333 1.33301 -30.833 5.5 -40.5 12.5s-17.5 16.167 -23.5 27.5c-4.66699 9.33301 -1 15 11 17c20.667 2.66699 41 6.83398 61 12.501s39.5 11.5 58.5 17.5
s37.333 11.333 55 16s34.834 7.33398 51.501 8.00098c25.333 1.33301 48.5 -3.33398 69.5 -14.001s37.5 -33 49.5 -67c10.667 -30 13 -59.833 7 -89.5s-18.667 -57.167 -38 -82.5c-13.333 -18 -29.833 -35.333 -49.5 -52s-41.5 -32 -65.5 -46s-49.333 -26.333 -76 -37
s-54 -19.334 -82 -26.001c19.333 -23.333 37.333 -46.666 54 -69.999s30.334 -45.666 41.001 -66.999c7.33301 -13.333 11.666 -27.666 12.999 -42.999s-1.33398 -28 -8.00098 -38c-5.33301 -8.66699 -10.666 -9.33398 -15.999 -2.00098l-90 118
c-26.667 33.333 -51.667 63 -75 89z" />
    <glyph glyph-name="S" unicode="S" horiz-adv-x="444" 
d="M-33 134c16.667 5.33301 34.3291 6.00195 52.9961 2.00195s34.667 -11.667 48 -23c10 -8 21.667 -16.833 35 -26.5s27.5 -18.834 42.5 -27.501s30.667 -15.834 47 -21.501s32.5 -8.5 48.5 -8.5c27.333 0 48 6 62 18c8.66699 9.33301 12.334 18.833 11.001 28.5
s-5.66602 17.5 -12.999 23.5c-13.333 11.333 -31.833 23.833 -55.5 37.5s-47 29 -70 46s-43 35.833 -60 56.5s-25.5 44 -25.5 70c0 34 8.5 66.667 25.5 98s38 59.666 63 84.999s51.667 47.5 80 66.5s53.5 33.167 75.5 42.5c24 10 47.333 16 70 18
s42.334 -4.66699 59.001 -20c12.667 -11.333 23.334 -24.666 32.001 -39.999s14.667 -30 18 -44c2.66699 -10 3.33398 -19.833 2.00098 -29.5s-3.66602 -18.834 -6.99902 -27.501s-7.16602 -16.667 -11.499 -24s-8.5 -13.666 -12.5 -18.999
c-6.66699 -8.66699 -13.334 -18.167 -20.001 -28.5l-19 -30.5l-17 -29l-13 -23c-2.66699 -4.66699 -5.66699 -7.66699 -9 -9s-7.66602 0.666992 -12.999 6c-9.33301 9.33301 -16 22 -20 38s-0.666992 35.667 10 59c5.33301 12 13.166 25.667 23.499 41l29.5 45.5
c9.33301 15 16.333 28.833 21 41.5s4 22 -2 28s-17 7 -33 3s-34.333 -11.5 -55 -22.5s-42.5 -25 -65.5 -42s-44 -35.5 -63 -55.5s-35 -40.833 -48 -62.5s-19.833 -42.834 -20.5 -63.501c-0.666992 -16 5.66602 -31.5 18.999 -46.5s29.666 -29 48.999 -42
s39.5 -25.333 60.5 -37s38.5 -22.5 52.5 -32.5c19.333 -13.333 27.833 -31 25.5 -53s-14.5 -45.667 -36.5 -71c-15.333 -17.333 -36.833 -30.833 -64.5 -40.5s-58.667 -12.5 -93 -8.5s-70.333 16.167 -108 36.5s-74.167 51.833 -109.5 94.5
c-5.33301 6.66699 -7.5 11.834 -6.5 15.501s3.83301 6.16699 8.5 7.5z" />
    <glyph glyph-name="T" unicode="T" horiz-adv-x="403" 
d="M276 525c-11.333 -2 -22 -3.50098 -32 -4.50098s-19.667 -1.83301 -29 -2.5c-30 -1.33301 -55.167 3.16699 -75.5 13.5s-33.166 24.833 -38.499 43.5c-3.33301 10 0.333984 14.333 11.001 13c22 -2 48 -1.5 78 1.5s60 6.5 90 10.5l84 11.5c26 3.66699 46 5.16699 60 4.5
c21.333 -0.666992 40.666 -4.5 57.999 -11.5s29.666 -20.167 36.999 -39.5c1.33301 -4 1.33301 -7.66699 0 -11s-5.33301 -4.66602 -12 -3.99902c-24.667 2.66699 -51.834 2.16699 -81.501 -1.5s-59.167 -8.16699 -88.5 -13.5c0.666992 -12 -1.33301 -26.5 -6 -43.5
s-13.667 -37.833 -27 -62.5l-104.5 -188c-39.667 -70.667 -79.167 -152 -118.5 -244c-3.33301 -9.33301 -8.66602 -10.333 -15.999 -3c-7.33301 6.66699 -13 17.5 -17 32.5s-2.66699 34.5 4 58.5c6 20.667 16.667 48.5 32 83.5s33.333 73 54 114s43 82.833 67 125.5
s47.667 81.667 71 117z" />
    <glyph glyph-name="U" unicode="U" horiz-adv-x="452" 
d="M76 -12c-12 4.66699 -23.666 11.668 -34.999 21.001s-20.5 21.166 -27.5 35.499s-11.333 31.666 -13 51.999s0.833008 44.166 7.5 71.499c6.66699 28 18.334 60.167 35.001 96.5s35.834 74.166 57.501 113.499s44.667 78.666 69 117.999l70.5 111
c4 6 8.16699 8.66699 12.5 8s8.16602 -3.66699 11.499 -9c8 -12.667 11.667 -29.667 11 -51s-10.667 -50.666 -30 -87.999c-12 -24 -26.833 -50.667 -44.5 -80s-35 -59.666 -52 -90.999s-32.833 -62.333 -47.5 -93s-25 -59.334 -31 -86.001
c-6 -25.333 -7.83301 -47 -5.5 -65s10.833 -29.667 25.5 -35c15.333 -6 31.666 -5.33301 48.999 2s35 20 53 38s36.333 40.5 55 67.5s36.667 57.5 54 91.5l50 94l59.5 109.5l59.5 105.5c19.333 33.333 36 61 50 83c4 6.66699 8.16699 9.5 12.5 8.5
s8.16602 -4.16699 11.499 -9.5c6 -10.667 8.66699 -26.667 8 -48s-7.66699 -46.666 -21 -75.999c-8.66699 -19.333 -22.167 -46.666 -40.5 -81.999l-60.5 -112l-66.5 -115c-22.333 -37.333 -41.833 -67.666 -58.5 -90.999c-36 -49.333 -74.5 -81 -115.5 -95
s-78.833 -14 -113.5 0z" />
    <glyph glyph-name="V" unicode="V" horiz-adv-x="403" 
d="M100 78c16 26.667 34.8389 56.1689 56.5059 88.502l69 100l75 102.5l74.5 96.5l67.5 83c21 25 38.833 45.167 53.5 60.5c5.33301 5.33301 10.166 7.66602 14.499 6.99902s7.16602 -4.66699 8.49902 -12c3.33301 -17.333 1.16602 -37.166 -6.50098 -59.499
s-23.834 -49.833 -48.501 -82.5l-68 -87.5l-88.5 -115.5l-97 -132c-33 -46 -64.167 -91.667 -93.5 -137c-3.33301 -5.33301 -7 -8.83301 -11 -10.5s-9.66699 0.166016 -17 5.49902c-18.667 14 -31.834 31 -39.501 51s-9.5 47.667 -5.5 83c4 38.667 10 81.167 18 127.5
s16.833 91.833 26.5 136.5s19.5 86.5 29.5 125.5s19.667 70.5 29 94.5c6 14.667 13.333 16.667 22 6c11.333 -13.333 18 -30.5 20 -51.5s-1.33301 -50.833 -10 -89.5l-38 -173.5c-14.667 -67.667 -28.334 -139.834 -41.001 -216.501z" />
    <glyph glyph-name="W" unicode="W" horiz-adv-x="630" 
d="M395 406l-71.5 -95.4971l-76 -106l-75 -109l-68.5 -105.5c-3.33301 -5.33301 -7.5 -8.83301 -12.5 -10.5s-10.833 0.166016 -17.5 5.49902c-17.333 15.333 -28.166 33.5 -32.499 54.5s-2.5 48.833 5.5 83.5c8.66699 38 20 79.833 34 125.5s28.667 90.5 44 134.5
s30.833 85.167 46.5 123.5s29.5 69.166 41.5 92.499c8.66699 16 17 17.333 25 4c8.66699 -14.667 12.834 -32.334 12.501 -53.001s-7.83301 -50.334 -22.5 -89.001l-59 -161.5c-22.667 -62.333 -44.667 -129.166 -66 -200.499c23.333 38 49.833 78.833 79.5 122.5l91.5 131
l93.5 126l85.5 107.5c3.33301 4 7.33301 6.33301 12 7s9 -2 13 -8c4.66699 -7.33301 8.5 -14.666 11.5 -21.999s4.66699 -15.833 5 -25.5s-0.833984 -21.167 -3.50098 -34.5s-7 -29.333 -13 -48l-53.5 -161.5c-19.667 -60.333 -39.167 -126.833 -58.5 -199.5
c16.667 27.333 35.667 57 57 89l67.5 97.5l72 98.5l70.5 92.5l64 79.5c20 24 37.333 43.667 52 59c6 6 11.167 8.66699 15.5 8s7.16602 -4.66699 8.49902 -12c3.33301 -17.333 0.833008 -37.333 -7.5 -60s-25.166 -51 -50.499 -85l-67 -87l-86 -112l-95 -129
c-32.667 -45.333 -64 -91.333 -94 -138c-4 -6 -8.33301 -9.83301 -13 -11.5s-10.334 0.5 -17.001 6.5c-17.333 15.333 -28.666 33.333 -33.999 54s-4.33301 48.667 3 84c4 18.667 9 39.167 15 61.5s12.667 45.666 20 69.999s15.166 49 23.499 74z" />
    <glyph glyph-name="X" unicode="X" horiz-adv-x="399" 
d="M280 387l126.496 127.508l101.5 98.5c6 5.33301 11 7.16602 15 5.49902s6.66699 -5.83398 8 -12.501c1.33301 -7.33301 1.66602 -15.833 0.999023 -25.5s-3.5 -20.334 -8.5 -32.001s-12.167 -24.334 -21.5 -38.001s-21.666 -27.834 -36.999 -42.501l-79.5 -76l-93.5 -92
c4 -28.667 8.33301 -57.334 13 -86.001s10 -56.167 16 -82.5s12.667 -50.666 20 -72.999s15.333 -40.833 24 -55.5c3.33301 -5.33301 4 -9.83301 2 -13.5s-5.66699 -5.16699 -11 -4.5c-10 0.666992 -19.833 3.16699 -29.5 7.5s-19 11.166 -28 20.499
s-17.333 22.166 -25 38.499s-14.5 36.833 -20.5 61.5c-8.66699 38 -16.667 78.667 -24 122l-116 -125c-37.333 -42 -69.666 -82 -96.999 -120c-3.33301 -4 -6.5 -5.66699 -9.5 -5s-5.16699 3 -6.5 7c-4.66699 11.333 -6 25.666 -4 42.999s10.667 38 26 62
c6.66699 10.667 16.334 24 29.001 40s27.5 33.667 44.5 53l56 62l63.5 68l-22 144c-7.33301 48 -16.666 94 -27.999 138c-2 11.333 2.33301 16 13 14c12.667 -2 26.334 -9.16699 41.001 -21.5s26.667 -34.833 36 -67.5c4 -14.667 8 -34.167 12 -58.5z" />
    <glyph glyph-name="Y" unicode="Y" horiz-adv-x="379" 
d="M174 197c-21.333 -38 -39.8311 -74.5 -55.498 -109.5s-28.834 -67.5 -39.501 -97.5c-4 -10 -10.333 -11 -19 -3c-7.33301 6.66699 -12.833 18.5 -16.5 35.5s-1.5 38.5 6.5 64.5c5.33301 18 13.5 39.667 24.5 65s23.5 52 37.5 80c0.666992 30.667 1.66699 62.667 3 96
s3.16602 66.333 5.49902 99s5.16602 64 8.49902 94s7.33301 57 12 81c1.33301 8 4 12.667 8 14s8.33301 0.333008 13 -3c12 -7.33301 21.333 -19.5 28 -36.5s9 -43.5 7 -79.5c-1.33301 -28 -3.66602 -58.167 -6.99902 -90.5s-6 -67.5 -8 -105.5l77 82.5l84.5 85.5l82 79.5
c26.333 25 49.5 46.167 69.5 63.5c10.667 8.66699 17.667 7 21 -5c4 -14.667 2.16699 -33 -5.5 -55s-26.167 -47.333 -55.5 -76l-57 -54.5l-64.5 -61.5l-74 -73z" />
    <glyph glyph-name="Z" unicode="Z" horiz-adv-x="441" 
d="M54 50c12.667 3.33301 26.6631 6.83301 41.9961 10.5s30.833 7 46.5 10s31.167 5.66699 46.5 8s29.333 4.16602 42 5.49902c24 2 43.167 -1 57.5 -9s24.5 -19.333 30.5 -34c4.66699 -10 1.33398 -15 -9.99902 -15c-16 0 -34 -1.16699 -54 -3.5s-40.5 -5.5 -61.5 -9.5
s-42 -8.5 -63 -13.5s-40.167 -9.83301 -57.5 -14.5c-13.333 -3.33301 -23.666 -5 -30.999 -5s-13.666 4.66699 -18.999 14l-13 20.5c-5.33301 8.33301 -9 15.166 -11 20.499c-4 10 -6.16699 18.5 -6.5 25.5s3.5 16.5 11.5 28.5c14 20 32 43 54 69s46.5 53.333 73.5 82
l86.5 87.5l92 85.5c30.667 27.333 60.667 52.833 90 76.5s56.333 43.834 81 60.501c-11.333 -2 -23.833 -4.33301 -37.5 -7l-42 -8.5c-14.333 -3 -28.166 -5.66699 -41.499 -8s-25.333 -4.16602 -36 -5.49902c-33.333 -3.33301 -58 0.166992 -74 10.5
s-26.667 23.833 -32 40.5c-3.33301 10 0.333984 15 11.001 15c18.667 -0.666992 38.667 0.166016 60 2.49902s42.5 5.16602 63.5 8.49902l59.5 9.5c18.667 3 35 5.16699 49 6.5c10.667 1.33301 19.5 1 26.5 -1s13.833 -7.33301 20.5 -16
c7.33301 -9.33301 13.666 -19.666 18.999 -30.999s10 -22.666 14 -33.999c3.33301 -10 3.33301 -18 0 -24s-11 -13.333 -23 -22c-37.333 -26.667 -76.833 -57.667 -118.5 -93s-83 -72.5 -124 -111.5l-119 -118.5c-38.333 -40 -72.5 -77.667 -102.5 -113z" />
    <glyph glyph-name="bracketleft" unicode="[" horiz-adv-x="316" 
d="M364 616c-28 -40.667 -57.332 -87.0039 -87.999 -139.004s-60.667 -105.833 -90 -161.5s-57.333 -111.5 -84 -167.5s-49.667 -108.333 -69 -157c13.333 3.33301 25 6 35 8c20 4 35 2.83301 45 -3.5s18.667 -15.833 26 -28.5c2.66699 -4.66699 3.5 -8.66699 2.5 -12
s-4.83301 -5.33301 -11.5 -6c-12 -1.33301 -27 -4.16602 -45 -8.49902s-33.333 -9.16602 -46 -14.499c-8 -3.33301 -14.5 -4.16602 -19.5 -2.49902s-10.167 5.5 -15.5 11.5c-4.66699 5.33301 -8.83398 10.333 -12.501 15s-7.5 10.334 -11.5 17.001
c-5.33301 8 -8 15.333 -8 22s2.33301 16.667 7 30c8 23.333 18.667 51 32 83s28.5 66.333 45.5 103l55 115c19.667 40 40.334 79.333 62.001 118l66 112.5c22.333 36.333 44.5 69.166 66.5 98.499c7.33301 10 13.666 16.667 18.999 20s11.666 6.33301 18.999 9
c9.33301 3.33301 20.833 5.83301 34.5 7.5s25.5 2.83398 35.5 3.50098c18.667 0.666992 32.334 -2.66602 41.001 -9.99902c8 -7.33301 16 -16.333 24 -27c2.66699 -3.33301 3 -6.83301 1 -10.5s-6 -5.83398 -12 -6.50098c-15.333 -1.33301 -32.5 -3.5 -51.5 -6.5
s-36.5 -7.16699 -52.5 -12.5z" />
    <glyph glyph-name="backslash" unicode="\" horiz-adv-x="355" 
d="M157 633c-0.666992 8 1.16699 13.0039 5.5 15.0039s9.16602 1.33301 14.499 -2c14.667 -7.33301 27.667 -21.5 39 -42.5s20 -52.833 26 -95.5c4 -30.667 9.5 -69 16.5 -115l23 -144.5c8.33301 -50.333 17 -99.833 26 -148.5s17.833 -90.667 26.5 -126
c2 -10.667 -2 -15 -12 -13c-11.333 2 -22.666 8.66699 -33.999 20s-21.666 30.666 -30.999 57.999c-5.33301 16.667 -11.166 39 -17.499 67s-12.833 59.5 -19.5 94.5s-13.334 72.167 -20.001 111.5s-12.834 78.166 -18.501 116.499s-10.667 75.166 -15 110.499
s-7.5 66.666 -9.5 93.999z" />
    <glyph glyph-name="bracketright" unicode="]" horiz-adv-x="319" 
d="M390 619c-8.66699 -1.33301 -17.1689 -2.83301 -25.502 -4.5s-16.5 -3.16699 -24.5 -4.5c-11.333 -1.33301 -21.666 2 -30.999 10s-17.333 16.667 -24 26c-4.66699 6.66699 -5.66699 11.667 -3 15s7 5.66602 13 6.99902c20 3.33301 40.333 7 61 11s39.667 6 57 6
c8.66699 0 14.834 -1 18.501 -3s7.16699 -5.66699 10.5 -11s6.33301 -11.166 9 -17.499s5.66699 -12.5 9 -18.5c3.33301 -7.33301 5 -13.333 5 -18s-2 -10 -6 -16c-29.333 -44.667 -59.5 -93.167 -90.5 -145.5s-61.5 -106.5 -91.5 -162.5l-88 -170
c-28.667 -57.333 -55 -113 -79 -167c-4 -9.33301 -8 -15.833 -12 -19.5s-10.667 -6.16699 -20 -7.5c-10 -1.33301 -19.833 -3 -29.5 -5s-19.167 -3.66699 -28.5 -5c-8.66699 -1.33301 -16.5 -2 -23.5 -2s-14.833 2.66699 -23.5 8c-11.333 8 -21 16 -29 24
c-3.33301 3.33301 -4.66602 7.16602 -3.99902 11.499s4 7.5 10 9.5c14 4.66699 30.667 8.83398 50 12.501s38.666 6.83398 57.999 9.50098l72.5 156.5l85 169.5l89.5 163.5c30 52.333 58.333 98.166 85 137.499z" />
    <glyph glyph-name="asciicircum" unicode="^" horiz-adv-x="267" 
d="M191 500l-47.5029 -58.4971c-16.333 -19.667 -30.166 -38.834 -41.499 -57.501c-5.33301 -9.33301 -11.333 -10.666 -18 -3.99902c-2.66699 2 -5.16699 5.33301 -7.5 10s-4 10.334 -5 17.001s-0.666992 14.167 1 22.5s5.5 17.5 11.5 27.5l22 33
c8.66699 12.667 18.167 25.667 28.5 39l32 40.5l30.5 37.5c4 4 7.5 6.16699 10.5 6.5s6.83301 -1.16699 11.5 -4.5c14 -10 22.333 -26.333 25 -49c0.666992 -8.66699 2 -19.667 4 -33s4.33301 -27.5 7 -42.5s5.5 -30 8.5 -45s6.16699 -28.5 9.5 -40.5
c1.33301 -6 1.5 -9.83301 0.5 -11.5s-4.16699 -2.83398 -9.5 -3.50098c-7.33301 -0.666992 -17.166 1.66602 -29.499 6.99902s-21.166 17.666 -26.499 36.999c-2.66699 9.33301 -5.5 20.166 -8.5 32.499s-5.83301 25.5 -8.5 39.5z" />
    <glyph glyph-name="underscore" unicode="_" horiz-adv-x="366" 
d="M433 -72c11.333 0 15.333 -4.66699 12 -14c-4 -9.33301 -12.667 -18.166 -26 -26.499s-31.333 -12.5 -54 -12.5h-432c-10 0 -13.667 4.66699 -11 14c3.33301 9.33301 11.833 18.166 25.5 26.499s31.5 12.5 53.5 12.5h432z" />
    <glyph glyph-name="grave" unicode="`" horiz-adv-x="77" 
d="M12 756c9.33301 -2.66699 18.668 -7.83203 28.001 -15.499s16.333 -18.834 21 -33.501c4 -13.333 6.83301 -28.5 8.5 -45.5s3.83398 -33.167 6.50098 -48.5c1.33301 -5.33301 0.666016 -8.83301 -2.00098 -10.5s-5.66699 -1.83398 -9 -0.500977
c-6.66699 1.33301 -13.334 5.33301 -20.001 12s-12.667 16 -18 28c-5.33301 11.333 -9.83301 26.333 -13.5 45s-8.16699 38 -13.5 58c-1.33301 5.33301 -0.5 8.83301 2.5 10.5s6.16699 1.83398 9.5 0.500977z" />
    <glyph glyph-name="a" unicode="a" 
d="M237 170c32 55.333 50.832 97.998 56.499 127.998s1.16699 45.667 -13.5 47c-8 0.666992 -18.333 -2.66602 -31 -9.99902s-26.167 -17.666 -40.5 -30.999s-29.166 -29.5 -44.499 -48.5s-30 -39.5 -44 -61.5c-13.333 -21.333 -24 -42.5 -32 -63.5s-13.333 -39.667 -16 -56
s-2.33398 -29.666 0.999023 -39.999s10 -15.5 20 -15.5s20.833 3.66699 32.5 11s23.667 17.666 36 30.999s24.833 29.333 37.5 48s25.334 39 38.001 61zM323.999 324.998l19.001 33.499c6 10.333 11.667 19.5 17 27.5c8.66699 12.667 16.667 14.667 24 6
c7.33301 -9.33301 12 -23.833 14 -43.5s-3 -42.167 -15 -67.5c-5.33301 -11.333 -12.333 -24.166 -21 -38.499l-26.5 -45l-26.5 -46.5c-8.66699 -15.333 -16 -29.666 -22 -42.999c-6 -14 -10.667 -27 -14 -39s-4.66602 -22.333 -3.99902 -31s3 -15.5 7 -20.5
s10.333 -7.16699 19 -6.5c10 0.666992 20.833 5 32.5 13s23.334 18.5 35.001 31.5s23 27.667 34 44s20.833 33.166 29.5 50.499c2.66699 4.66699 5.5 7.16699 8.5 7.5s5.5 -1.83398 7.5 -6.50098s2.66699 -12.667 2 -24s-4.33398 -24 -11.001 -38
s-15.334 -27.5 -26.001 -40.5s-22.5 -24.5 -35.5 -34.5s-26.5 -18 -40.5 -24s-28 -8.66699 -42 -8c-27.333 1.33301 -47.833 9.5 -61.5 24.5s-20.5 34.167 -20.5 57.5c-16 -20.667 -34.833 -38.834 -56.5 -54.501s-44.5 -23.5 -68.5 -23.5
c-23.333 0 -41.833 7.16699 -55.5 21.5s-22 33.333 -25 57s-0.333008 50.334 8 80.001s22.833 59.5 43.5 89.5c40.667 58.667 79.5 100.5 116.5 125.5s68.167 37.5 93.5 37.5c21.333 0 37.166 -7.16699 47.499 -21.5s14.833 -31.166 13.5 -50.499z" />
    <glyph glyph-name="b" unicode="b" horiz-adv-x="352" 
d="M263 350c-10.667 1.33301 -21.6699 -1.16895 -33.0029 -7.50195s-24.666 -17.166 -39.999 -32.499c-11.333 -12 -22.666 -25.833 -33.999 -41.5s-22.666 -32.5 -33.999 -50.5s-22.166 -36.833 -32.499 -56.5l-29.5 -58.5c1.33301 -14.667 5.33301 -28.667 12 -42
s16.667 -21.666 30 -24.999c8.66699 -2 18.167 -1.33301 28.5 2s21.166 10.166 32.499 20.499s23.5 24.833 36.5 43.5s26.833 42.667 41.5 72c14 28 24.167 52.833 30.5 74.5s9.83301 40 10.5 55s-0.833008 26.333 -4.5 34s-8.5 11.834 -14.5 12.501zM311.997 150.998
c-23.333 -52.667 -49.667 -92.832 -79 -120.499s-58.666 -41.5 -87.999 -41.5c-26.667 0 -48.5 6.33301 -65.5 19s-30.167 30 -39.5 52l-14.5 -33l-14.5 -33c-4 -10.667 -9.33301 -11.667 -16 -3c-7.33301 10 -12.5 23.167 -15.5 39.5s0.5 39.833 10.5 70.5
c4.66699 14 13.5 35 26.5 63l46 95l57.5 111.5l61.5 113l57 98.5c17.667 29.333 32.167 52 43.5 68c8.66699 12.667 17 12.334 25 -0.999023c7.33301 -14 10 -32.667 8 -56s-13.333 -54 -34 -92l-16 -28l-22.5 -38l-25.5 -43l-25 -43
c14.667 13.333 29.334 23.666 44.001 30.999s28.667 11 42 11c21.333 0 37.666 -6.83301 48.999 -20.5s18.166 -31.667 20.499 -54s0.5 -47.833 -5.5 -76.5s-16 -58.334 -30 -89.001z" />
    <glyph glyph-name="c" unicode="c" horiz-adv-x="311" 
d="M247 386c25.333 -15.333 43.667 -33.666 55 -54.999c5.33301 -10.667 7.16602 -21.834 5.49902 -33.501s-5 -23.834 -10 -36.501s-10.833 -25.667 -17.5 -39s-12.334 -26.666 -17.001 -39.999c-2 -6 -4.33301 -9.66699 -7 -11s-7.33398 -0.333008 -14.001 3
c-12 6 -20.833 16.333 -26.5 31s-4.83398 33.334 2.49902 56.001c2.66699 8.66699 6.33398 17.834 11.001 27.501s8.66699 18.667 12 27s5.66602 15.666 6.99902 21.999s0.333008 10.833 -3 13.5c-4 3.33301 -11.333 2.16602 -22 -3.50098s-22.667 -14.834 -36 -27.501
s-27 -28.5 -41 -47.5s-26.667 -39.833 -38 -62.5c-14 -28 -23.333 -54 -28 -78s-5.5 -44.833 -2.5 -62.5s9.33301 -31.5 19 -41.5s21.834 -15 36.501 -15c20.667 0 40.667 4.33301 60 13s37.5 20 54.5 34s32.5 29.333 46.5 46s26 33 36 49
c2.66699 4 5.83398 6.16699 9.50098 6.5s6.5 -2.16699 8.5 -7.5c1.33301 -4 0.833008 -11.667 -1.5 -23s-7.83301 -23.666 -16.5 -36.999c-9.33301 -14.667 -21.166 -28.5 -35.499 -41.5s-30 -24.5 -47 -34.5s-35 -18 -54 -24s-37.833 -9 -56.5 -9
c-32 -0.666992 -58.5 6 -79.5 20s-36 32.833 -45 56.5s-12 50.667 -9 81s12.5 61.5 28.5 93.5c16 31.333 33.833 58.166 53.5 80.499s39.334 40 59.001 53s38.5 20.833 56.5 23.5s33.333 0.333984 46 -6.99902z" />
    <glyph glyph-name="d" unicode="d" horiz-adv-x="401" 
d="M268 343c-8 0 -18.166 -3.66992 -30.499 -11.0029s-25.666 -17.666 -39.999 -30.999s-29.166 -29.166 -44.499 -47.499s-30 -38.5 -44 -60.5c-13.333 -21.333 -24 -42.333 -32 -63s-13.167 -39.167 -15.5 -55.5s-1.83301 -29.666 1.5 -39.999s10 -15.5 20 -15.5
c20 -0.666992 42.667 12.5 68 39.5s49.666 63.5 72.999 109.5c29.333 56 47.666 99 54.999 129s3.66602 45.333 -11.001 46zM277.001 107.997c-6.66699 -14.667 -11.6641 -27.9971 -14.9971 -39.9971s-4.83301 -22.333 -4.5 -31s2.5 -15.334 6.5 -20.001
s10.333 -6.66699 19 -6c10 0.666992 20.833 5 32.5 13s23.167 18.333 34.5 31s22.5 27.167 33.5 43.5s20.833 33.166 29.5 50.499c2.66699 4.66699 5.5 7 8.5 7s5.5 -2 7.5 -6c2 -4.66699 2.83301 -12.834 2.5 -24.501s-3.83301 -24.167 -10.5 -37.5
c-6.66699 -14 -15.334 -27.333 -26.001 -40s-22.5 -24 -35.5 -34s-26.5 -17.833 -40.5 -23.5s-28 -8.16699 -42 -7.5c-27.333 1.33301 -47.666 9.16602 -60.999 23.499s-20 33.166 -20 56.499c-16 -20 -34.833 -37.833 -56.5 -53.5s-44.167 -23.5 -67.5 -23.5
s-41.833 7.16699 -55.5 21.5s-22 33.333 -25 57s-0.333008 50.167 8 79.5s22.833 59 43.5 89c20 28.667 39.667 53.334 59 74.001s38 37.334 56 50.001s35 22 51 28s30.333 9 43 9c20.667 0 36 -6.66699 46 -20s14.667 -29.333 14 -48l43.5 82l46 82.5l42.5 73
c13.333 22.333 24.666 39.833 33.999 52.5c10.667 14.667 18.667 14.667 24 0c3.33301 -8 5.66602 -17 6.99902 -27s0.833008 -21 -1.5 -33s-6.33301 -25.5 -12 -40.5s-13.834 -31.833 -24.501 -50.5l-43.5 -77l-52.5 -94l-53 -97.5
c-17.333 -32.333 -32.333 -61.833 -45 -88.5z" />
    <glyph glyph-name="e" unicode="e" horiz-adv-x="320" 
d="M101 193c12 -8 23.665 -11.6641 34.998 -10.9971s22 4 32 10s19.333 13.667 28 23s16.667 18.666 24 27.999c8 10.667 15.167 21.5 21.5 32.5s11.5 21.5 15.5 31.5s6.33301 18.667 7 26s-0.666016 12.333 -3.99902 15c-5.33301 4 -14 3.66699 -26 -1
s-25.333 -13.334 -40 -26.001s-29.5 -28.334 -44.5 -47.001s-28.5 -40 -40.5 -64c-1.33301 -3.33301 -2.66602 -6.33301 -3.99902 -9zM91.998 171.003c-16 -46 -19.1699 -83.499 -9.50293 -112.499s27.834 -44.167 54.501 -45.5c20.667 -1.33301 40.667 2.33398 60 11.001
s37.5 20 54.5 34s32.667 29.5 47 46.5s26.833 33.833 37.5 50.5c2.66699 4 5.66699 6 9 6s6 -2.33301 8 -7c2 -4 2 -12 0 -24s-7.66699 -24.667 -17 -38c-21.333 -30.667 -49.666 -56.167 -84.999 -76.5s-72.333 -30.833 -111 -31.5
c-32 -0.666992 -58.5 6.16602 -79.5 20.499s-36.167 33.166 -45.5 56.499s-12.5 50.333 -9.5 81s12.5 62 28.5 94s34 59.333 54 82s40 40.334 60 53.001s39 20.5 57 23.5s33.333 0.833008 46 -6.5s23.667 -15 33 -23s18 -17.667 26 -29c4.66699 -6 7.5 -14 8.5 -24
s0.333008 -21.167 -2 -33.5s-6.66602 -25.333 -12.999 -39s-14.833 -26.834 -25.5 -39.501c-12 -15.333 -25.167 -28 -39.5 -38s-29.5 -16.833 -45.5 -20.5s-32.5 -3.16699 -49.5 1.5s-34.167 14 -51.5 28z" />
    <glyph glyph-name="f" unicode="f" horiz-adv-x="245" 
d="M34 29c-14 -33.333 -26.5 -65.6699 -37.5 -97.0029s-19.833 -59.666 -26.5 -84.999s-10.667 -47.166 -12 -65.499s1 -31.166 7 -38.499c5.33301 -7.33301 13.666 -5 24.999 7s23.333 30 36 54s25.334 52.333 38.001 85s23 66 31 100c-28.667 2.66699 -49 16 -61 40z
M101 17.9961c4.66699 24 7.66699 48 9 72c0.666992 18.667 -1 34.5 -5 47.5s-7.66699 18.833 -11 17.5c-2.66699 -1.33301 -5.16699 -5 -7.5 -11s-4.33301 -13.167 -6 -21.5s-3.16699 -16.833 -4.5 -25.5s-2 -16 -2 -22c-0.666992 -16 1.33301 -29 6 -39s11.667 -16 21 -18z
M106 183.996c19.333 -6 32.999 -18.502 40.999 -37.502s11.667 -45.167 11 -78.5c0 -5.33301 -0.166992 -10.833 -0.5 -16.5s-0.833008 -11.5 -1.5 -17.5c19.333 12.667 38.166 30.5 56.499 53.5s34.166 47.5 47.499 73.5c3.33301 6 7 9.16699 11 9.5
s7.33301 -3.16699 10 -10.5s2.83398 -16.333 0.500977 -27s-5.83301 -21.667 -10.5 -33c-2.66699 -6 -7.5 -13.833 -14.5 -23.5s-15.833 -19.5 -26.5 -29.5s-22.834 -19.667 -36.501 -29s-27.834 -16.666 -42.501 -21.999c-4 -25.333 -9.66699 -50.833 -17 -76.5
s-15.666 -50.5 -24.999 -74.5s-19.666 -46.5 -30.999 -67.5s-23 -38.833 -35 -53.5c-17.333 -21.333 -32.666 -33.333 -45.999 -36s-27.666 2.66602 -42.999 15.999c-6 5.33301 -12.333 11.833 -19 19.5s-12.167 17.334 -16.5 29.001s-7.5 25.334 -9.5 41.001
s-1.66699 34.167 1 55.5c4.66699 37.333 14.5 78.333 29.5 123s33 91 54 139s44.333 96.333 70 145l77 140.5l74.5 125l64 99.5c4 6 8.66699 8.83301 14 8.5s9 -3.5 11 -9.5c6 -17.333 7.16699 -37.5 3.5 -60.5s-16.167 -52.833 -37.5 -89.5l-35 -59l-42 -70.5l-44.5 -77.5z
" />
    <glyph glyph-name="g" unicode="g" horiz-adv-x="401" 
d="M133 -73c-32.667 -19.333 -60.001 -41.333 -82.001 -66s-39.167 -48.667 -51.5 -72s-20.333 -44.166 -24 -62.499s-3.5 -30.5 0.5 -36.5c3.33301 -4.66699 10.333 -2.16699 21 7.5s23.334 25.167 38.001 46.5s30.667 47.666 48 78.999s34 66 50 104zM230.999 168
c32 55.333 50.8291 97.8311 56.4961 127.498s1.16699 45.167 -13.5 46.5c-8 0.666992 -18.167 -2.66602 -30.5 -9.99902s-25.666 -17.666 -39.999 -30.999s-29.166 -29.166 -44.499 -47.499s-30 -38.5 -44 -60.5c-13.333 -21.333 -24 -42.5 -32 -63.5
s-13.167 -39.667 -15.5 -56s-1.66602 -29.666 2.00098 -39.999s10.5 -15.5 20.5 -15.5s20.5 3.66699 31.5 11s22.5 17.666 34.5 30.999s24.333 29.166 37 47.499s25.334 38.5 38.001 60.5zM414.995 89.998c-19.333 -30.667 -45.999 -56.3359 -79.999 -77.0029
s-72 -38.667 -114 -54l-44.5 -102.5c-15.667 -35 -32.167 -67.667 -49.5 -98s-35.5 -56.666 -54.5 -78.999s-38.5 -37.5 -58.5 -45.5c-10 -4 -19.833 -4.83301 -29.5 -2.5s-19.167 10.166 -28.5 23.499c-10.667 15.333 -19 32.333 -25 51s-4.33301 43 5 73
c7.33301 22.667 18 43.5 32 62.5s30.333 36.167 49 51.5s39.334 29.333 62.001 42s46.334 23.667 71.001 33c5.33301 11.333 10.166 22.833 14.499 34.5s9.16602 23.167 14.499 34.5c-14.667 -14.667 -30.5 -26.667 -47.5 -36s-34.833 -14 -53.5 -14
c-23.333 0 -41.666 7.16699 -54.999 21.5s-21.5 33 -24.5 56s-0.333008 49.167 8 78.5s22.5 59 42.5 89c19.333 28.667 38.833 53.334 58.5 74.001s38.5 37.334 56.5 50.001s35.167 22 51.5 28s30.833 9 43.5 9c20 0 35 -6.66699 45 -20s14.667 -28.666 14 -45.999l17 28.5
l16 26.5c4 7.33301 8.33301 11.333 13 12s8.66699 -1.33301 12 -6c7.33301 -9.33301 12 -23.833 14 -43.5s-3.33301 -41.834 -16 -66.501l-27.5 -55.5l-35.5 -70l-37.5 -77l-34.5 -75.5c42 21.333 77.333 45 106 71s53 52.333 73 79c3.33301 4 6.66602 6 9.99902 6
s5.66602 -2.66699 6.99902 -8c1.33301 -4.66699 0.5 -12.167 -2.5 -22.5s-8.83301 -22.166 -17.5 -35.499z" />
    <glyph glyph-name="h" unicode="h" horiz-adv-x="377" 
d="M399 91c-7.33301 -14 -16.3291 -27.501 -26.9961 -40.501s-22.5 -24.5 -35.5 -34.5s-26.833 -17.833 -41.5 -23.5s-29.334 -8.5 -44.001 -8.5c-42 0 -68.833 13.667 -80.5 41s-9.83398 63 5.49902 107c8 24 18.667 48.167 32 72.5s26 46.166 38 65.499
s21.667 35.666 29 48.999s9 21 5 23c-3.33301 2 -12 -0.5 -26 -7.5s-30 -17.5 -48 -31.5s-36.667 -30.833 -56 -50.5s-36.333 -41.5 -51 -65.5c-18 -30 -35.667 -61.5 -53 -94.5s-32 -64.833 -44 -95.5c-4.66699 -10.667 -10.334 -12 -17.001 -4
c-8 9.33301 -13.333 21.833 -16 37.5s1.33301 38.5 12 68.5c6 16.667 16.167 39.5 30.5 68.5s31.333 61.167 51 96.5l63.5 111l67 111l62.5 97c19.667 29.333 36.167 52.333 49.5 69c4.66699 6 9.16699 8.83301 13.5 8.5s7.83301 -3.5 10.5 -9.5
c6.66699 -14.667 8.5 -34 5.5 -58s-14.167 -52 -33.5 -84l-23 -37l-30 -47l-33.5 -52l-33.5 -52c10 10 20.667 19.333 32 28s22.333 16.334 33 23.001s20.834 11.667 30.501 15s17.834 4.66602 24.501 3.99902c8.66699 -1.33301 16.667 -5 24 -11s13.333 -13.833 18 -23.5
s7 -20.667 7 -33s-3.33301 -24.833 -10 -37.5c-5.33301 -11.333 -12.166 -24 -20.499 -38l-25.5 -43.5l-25.5 -45.5c-8.33301 -15.333 -15.5 -29.333 -21.5 -42c-6 -14.667 -10.333 -28.334 -13 -41.001s-3.33398 -23.667 -2.00098 -33s4.66602 -16.666 9.99902 -21.999
s12.666 -7.66602 21.999 -6.99902c10 0.666992 20.833 5.16699 32.5 13.5s23.167 19 34.5 32s22.166 27.667 32.499 44s19.5 32.5 27.5 48.5c2 4.66699 5 7 9 7s7 -2 9 -6c2.66699 -5.33301 3.5 -13.166 2.5 -23.499s-5.16699 -23.166 -12.5 -38.499z" />
    <glyph glyph-name="i" unicode="i" horiz-adv-x="201" 
d="M69 -15c-19.333 0 -34.8359 3.83203 -46.5029 11.499s-20.334 18 -26.001 31s-8 28.333 -7 46s5.16699 36.834 12.5 57.501c6 18 14.333 38.5 25 61.5s22.167 45.667 34.5 68l36.5 63.5c12 20 22.667 36.667 32 50c8.66699 12 16.667 14 24 6s12 -21.833 14 -41.5
s-3 -42.167 -15 -67.5c-5.33301 -11.333 -11.666 -23.666 -18.999 -36.999l-23 -41.5l-23 -43c-7.33301 -14.333 -13.666 -27.833 -18.999 -40.5c-12 -29.333 -17.333 -52.833 -16 -70.5s10 -25.834 26 -24.501c11.333 0 23 4 35 12s23.833 18.333 35.5 31
s22.667 27.167 33 43.5s19.166 33.166 26.499 50.499c2.66699 4.66699 5.5 6.83398 8.5 6.50098s5.5 -2.5 7.5 -6.5c8 -15.333 5.66699 -36 -7 -62c-7.33301 -15.333 -16.666 -29.5 -27.999 -42.5s-23.666 -24 -36.999 -33s-27.166 -16 -41.499 -21s-28.5 -7.5 -42.5 -7.5z
M231.997 458.999c6.66699 -13.333 8.83398 -26.001 6.50098 -38.001s-6.83301 -21.667 -13.5 -29s-15.834 -10 -27.501 -8s-21.167 9.66699 -28.5 23c-8 13.333 -11.167 26.833 -9.5 40.5s6.5 24.834 14.5 33.501s18 10.5 30 5.5s21.333 -14.167 28 -27.5z" />
    <glyph glyph-name="j" unicode="j" horiz-adv-x="178" 
d="M-99 -95c-32.667 -18.667 -59.999 -40.3311 -81.999 -64.998s-39.333 -48.834 -52 -72.501s-20.834 -44.667 -24.501 -63s-3.16699 -30.5 1.5 -36.5c3.33301 -4.66699 10.5 -1.83398 21.5 8.49902s23.833 26.333 38.5 48s30.5 48 47.5 79s33.5 64.833 49.5 101.5z
M9.00098 -18.9971c46 24 83.6699 50.8301 113.003 80.4971s54.666 60.167 75.999 91.5c2.66699 4 5.66699 6.16699 9 6.5s5.66602 -2.16699 6.99902 -7.5s1 -13.166 -1 -23.499s-6.66699 -22.166 -14 -35.499c-19.333 -34.667 -47.5 -64.167 -84.5 -88.5
s-78.167 -46.166 -123.5 -65.499c-14 -33.333 -29.167 -67.5 -45.5 -102.5s-33.333 -67.833 -51 -98.5s-36 -57.167 -55 -79.5s-38.5 -37.166 -58.5 -44.499c-9.33301 -3.33301 -18.833 -4.5 -28.5 -3.5s-19.167 8.5 -28.5 22.5c-5.33301 7.33301 -10.333 15.166 -15 23.499
s-8.5 17.5 -11.5 27.5s-4.5 21 -4.5 33s2.66699 25.333 8 40c8 22.667 19 43.5 33 62.5s30.5 36.333 49.5 52s40 29.834 63 42.501s46.833 23.667 71.5 33c16.667 40.667 34.667 82.167 54 124.5l57 121l54 106c17.333 32.333 32.666 58.5 45.999 78.5
c8 12.667 16 14.667 24 6c7.33301 -8.66699 11.5 -22.834 12.5 -42.501s-4.16699 -42.167 -15.5 -67.5c-6 -14 -14.667 -32.5 -26 -55.5l-37 -74.5l-41 -82.5c-14 -28.333 -26.333 -54.833 -37 -79.5zM230.004 461c6 -13.333 8 -25.668 6 -37.001s-6 -20.666 -12 -27.999
c-6.66699 -7.33301 -15.834 -10 -27.501 -8s-21.167 9.66699 -28.5 23s-10.166 26.5 -8.49902 39.5s6.16699 23.833 13.5 32.5c8 9.33301 18 11.5 30 6.5s21 -14.5 27 -28.5z" />
    <glyph glyph-name="k" unicode="k" horiz-adv-x="367" 
d="M182 347c16 15.333 31.502 27.502 46.502 36.502s29.167 15.833 42.5 20.5c19.333 6.66699 35.333 6.33398 48 -0.999023s24 -21.666 34 -42.999c9.33301 -19.333 12.833 -39.166 10.5 -59.499s-12.833 -39.5 -31.5 -57.5c-17.333 -16.667 -36.833 -32 -58.5 -46
s-48.5 -25.667 -80.5 -35c2 -41.333 9.33301 -75 22 -101s28.667 -40 48 -42c10 -1.33301 20.833 2.16699 32.5 10.5s23.167 19.166 34.5 32.499s22.166 28.166 32.499 44.499s19.166 32.166 26.499 47.499c3.33301 6 6.83301 9.16699 10.5 9.5s6.83398 -2.5 9.50098 -8.5
s3.16699 -14.5 1.5 -25.5s-6.16699 -22.833 -13.5 -35.5c-6 -10.667 -13.5 -22.167 -22.5 -34.5s-19.5 -23.666 -31.5 -33.999s-25.833 -19 -41.5 -26s-33.5 -10.5 -53.5 -10.5c-17.333 0 -33.833 3.83301 -49.5 11.5s-29.334 19.334 -41.001 35.001
s-20.834 35.5 -27.501 59.5s-9.66699 53 -9 87c0 9.33301 1.16699 15.333 3.5 18s8.16602 5.66699 17.499 9c30.667 10 57.834 22.5 81.501 37.5s43 30 58 45s25.667 29 32 42s7.5 22.833 3.5 29.5c-5.33301 9.33301 -18 11.166 -38 5.49902s-43.333 -18.834 -70 -39.501
c-18.667 -14 -35.834 -30.5 -51.501 -49.5s-31 -41.5 -46 -67.5s-30.5 -56.333 -46.5 -91s-33.667 -75 -53 -121c-1.33301 -4 -3.83301 -6.33301 -7.5 -7s-7.16699 1 -10.5 5c-7.33301 8.66699 -11.666 21.5 -12.999 38.5s2.66699 40.833 12 71.5
c4.66699 15.333 12.834 36.5 24.501 63.5s25.5 57.167 41.5 90.5l52.5 105.5l57.5 108c19.333 35 38.333 67.667 57 98s35.334 55.5 50.001 75.5c10 13.333 18.333 13.666 25 0.999023c7.33301 -15.333 9.66602 -33.833 6.99902 -55.5s-14.667 -50.834 -36 -87.501
l-20.5 -35l-23.5 -42l-24 -43.5z" />
    <glyph glyph-name="l" unicode="l" horiz-adv-x="230" 
d="M116 243c34 28 63.165 57.835 87.498 89.502s43.833 61.167 58.5 88.5s24.834 50.5 30.501 69.5s6.83398 29.5 3.50098 31.5s-10 -2.83301 -20 -14.5s-22.333 -28.334 -37 -50.001s-30.5 -46.834 -47.5 -75.501l-51.5 -91c-9.33301 -16 -17.333 -32 -24 -48z
M97.998 200.002c-10 -24.667 -17.999 -47.9971 -23.999 -69.9971s-9.5 -41.333 -10.5 -58s0.666992 -30.167 5 -40.5s12.166 -15.833 23.499 -16.5c12 -1.33301 25.167 2 39.5 10s28.5 18.667 42.5 32s27.5 29 40.5 47s24.5 36.667 34.5 56
c3.33301 6.66699 7.33301 10.167 12 10.5s8 -3.16699 10 -10.5c4.66699 -16 1.33398 -36.667 -9.99902 -62c-3.33301 -7.33301 -10.166 -17.333 -20.499 -30s-23 -25.167 -38 -37.5s-31.833 -22.833 -50.5 -31.5s-38 -12.667 -58 -12c-34.667 1.33301 -60 14.5 -76 39.5
s-18.333 64.5 -7 118.5c9.33301 43.333 23 86.833 41 130.5s38.5 85.5 61.5 125.5s47.5 77.5 73.5 112.5s51.667 65.833 77 92.5c15.333 16 29.666 17.667 42.999 5c28 -24.667 35.667 -61.334 23 -110.001c-8 -30.667 -20.333 -60.834 -37 -90.501
s-35.834 -57.667 -57.501 -84s-44.5 -50.333 -68.5 -72s-47 -39.834 -69 -54.501z" />
    <glyph glyph-name="m" unicode="m" horiz-adv-x="565" 
d="M158 284c10.667 12.667 23.1699 25.4961 37.5029 38.4961s28.666 24.833 42.999 35.5s28 19.167 41 25.5s24.167 9.5 33.5 9.5c8.66699 0 16.167 -3.16699 22.5 -9.5s11.166 -14.166 14.499 -23.499s5.33301 -19.833 6 -31.5s-0.666016 -22.834 -3.99902 -33.501
c12 12 24.833 23.5 38.5 34.5s27.334 21 41.001 30s26.5 16 38.5 21s22 7.5 30 7.5c8.66699 0 15.834 -3.5 21.501 -10.5s9.5 -15.667 11.5 -26s2.16699 -22 0.5 -35s-4.83398 -25.833 -9.50098 -38.5c-4.66699 -11.333 -10.834 -23.666 -18.501 -36.999l-25 -41.5
l-26.5 -42.5c-8.66699 -14 -16 -27.333 -22 -40c-7.33301 -14 -11.833 -27.333 -13.5 -40s-1.5 -23.667 0.5 -33s6 -16.5 12 -21.5s13.667 -7.5 23 -7.5c10 0 20.333 4 31 12s21.334 18.333 32.001 31s21.167 27.167 31.5 43.5l30.5 50.5c2.66699 4.66699 5.66699 7 9 7
s6.33301 -1.66699 9 -5s3.16699 -11.833 1.5 -25.5s-5.16699 -26.167 -10.5 -37.5c-7.33301 -14 -16.5 -27.5 -27.5 -40.5s-23.167 -24.5 -36.5 -34.5s-27.333 -17.833 -42 -23.5s-29.334 -8.5 -44.001 -8.5c-22 0 -40.333 4 -55 12s-25.5 18.833 -32.5 32.5
s-10.167 29.667 -9.5 48s5.66699 37.833 15 58.5s21 42.5 35 65.5l40 63.5c12.667 19.333 22.834 35.666 30.501 48.999s9.5 20.666 5.5 21.999c-2 0.666992 -5.66699 0.333984 -11 -0.999023s-12.333 -4.66602 -21 -9.99902s-19.334 -13 -32.001 -23s-27 -23 -43 -39
c-42 -42 -76.167 -86.167 -102.5 -132.5s-50.166 -93.166 -71.499 -140.499c-6.66699 -13.333 -14.334 -15 -23.001 -5c-4 4 -7.83301 9.33301 -11.5 16s-6 15.167 -7 25.5s-0.333008 22.5 2 36.5s7.16602 30 14.499 48c8 20.667 19.833 43.834 35.5 69.501l45 73
c14.333 23 25.833 42.5 34.5 58.5s10.667 25 6 27c-6 2.66699 -20.333 -3.16602 -43 -17.499s-50 -39.166 -82 -74.499c-30 -32 -57 -70 -81 -114s-46 -89.667 -66 -137c-4.66699 -10.667 -11 -12.334 -19 -5.00098c-11.333 9.33301 -18 22.5 -20 39.5
s1.33301 38.167 10 63.5c5.33301 16 13.5 36 24.5 60s23.667 49.833 38 77.5s29.666 55.5 45.999 83.5s32.5 53.667 48.5 77c7.33301 11.333 14.333 11.333 21 0c8.66699 -14 12.5 -30.333 11.5 -49s-5.16699 -38 -12.5 -58z" />
    <glyph glyph-name="n" unicode="n" horiz-adv-x="384" 
d="M160 294c11.333 12 23.6641 24.1641 36.9971 36.4971s26.833 23.166 40.5 32.499s26.5 16.833 38.5 22.5s22 7.83398 30 6.50098s15.833 -5.16602 23.5 -11.499s13.667 -14.333 18 -24s6.5 -20.667 6.5 -33s-3 -24.833 -9 -37.5c-5.33301 -11.333 -12 -24 -20 -38
l-25.5 -44l-26 -46c-8.33301 -15.333 -15.5 -29.333 -21.5 -42c-6.66699 -14.667 -11.167 -28.334 -13.5 -41.001s-2.83301 -23.667 -1.5 -33s4.5 -16.666 9.5 -21.999s12.167 -7.66602 21.5 -6.99902c10 0.666992 20.667 4.83398 32 12.501s22.5 18 33.5 31
s21.833 27.667 32.5 44s20.667 33.166 30 50.499c5.33301 10 11 10.333 17 1c3.33301 -5.33301 4.5 -13.5 3.5 -24.5s-5.16699 -23.833 -12.5 -38.5c-6.66699 -14 -15.5 -27.5 -26.5 -40.5s-23 -24.333 -36 -34s-26.833 -17.5 -41.5 -23.5s-29.334 -9 -44.001 -9
c-42.667 0 -69.667 14 -81 42s-9.66602 63.667 5.00098 107c8 24.667 18.833 49.167 32.5 73.5l38.5 66.5c12 20 21.5 36.5 28.5 49.5s8.16699 20.5 3.5 22.5c-2.66699 0.666992 -8 -0.5 -16 -3.5s-18 -8.33301 -30 -16s-25.333 -17.667 -40 -30s-30 -27.166 -46 -44.499
c-14.667 -16 -28.5 -33.833 -41.5 -53.5s-25.5 -40.5 -37.5 -62.5s-23.5 -44.667 -34.5 -68l-32.5 -70c-4.66699 -10.667 -11 -12 -19 -4c-10 10 -16.167 23.333 -18.5 40s0.5 37.667 8.5 63c4.66699 16 12.834 36 24.501 60s24.834 49.5 39.501 76.5
s30.334 54.333 47.001 82s33 53.167 49 76.5c7.33301 11.333 14.333 11.333 21 0c7.33301 -12.667 11 -27.167 11 -43.5s-2.66699 -33.5 -8 -51.5z" />
    <glyph glyph-name="o" unicode="o" horiz-adv-x="332" 
d="M249 215c-6 2.66699 -12.3311 6.66406 -18.998 11.9971c-10.667 8 -20.834 20 -30.501 36s-14.834 33.333 -15.501 52c-13.333 -11.333 -26.833 -25 -40.5 -41s-25.834 -33.667 -36.501 -53s-19.5 -39 -26.5 -59s-11.833 -38.833 -14.5 -56.5
s-3.33398 -33.167 -2.00098 -46.5s5.33301 -22.666 12 -27.999c6.66699 -6 15.334 -8.16699 26.001 -6.5s22.334 6.83398 35.001 15.501s25.667 20.834 39 36.501s26 35.167 38 58.5c7.33301 14 14 27.833 20 41.5s11 26.5 15 38.5zM256.002 241.997
c8 32 10.667 56.666 8 73.999c-2.66699 16 -7.66699 23.167 -15 21.5s-12.333 -9.83398 -15 -24.501c-2.66699 -13.333 -1.66699 -26.666 3 -39.999s11 -23.666 19 -30.999zM342.002 214.996c-6.66699 -7.33301 -15.6641 -11.6699 -26.9971 -13.0029
c-5.33301 -21.333 -13 -43.166 -23 -65.499s-22 -43.166 -36 -62.499s-29.333 -36.5 -46 -51.5s-34.334 -25.5 -53.001 -31.5c-18 -6 -38.5 -6.66699 -61.5 -2s-44.5 20 -64.5 46c-11.333 14.667 -18.833 30.834 -22.5 48.501s-4.5 36.167 -2.5 55.5s6.5 39.333 13.5 60
s16.167 41 27.5 61c19.333 34 43.166 63.5 71.499 88.5s57.5 38.833 87.5 41.5c15.333 0.666992 28 -1.5 38 -6.5s20 -14.167 30 -27.5c6 -8 12 -14.833 18 -20.5s11.5 -12.167 16.5 -19.5s8.66699 -16.333 11 -27s2.83301 -25 1.5 -43c-0.666992 -4 -1 -7.83301 -1 -11.5
s-0.333008 -7.5 -1 -11.5c3.33301 0 6.5 0.333008 9.5 1s6.5 1 10.5 1c3.33301 0 5.16602 -1 5.49902 -3s-0.5 -4.33301 -2.5 -7z" />
    <glyph glyph-name="p" unicode="p" horiz-adv-x="391" 
d="M108 181c-12.667 -31.333 -19.667 -60.6719 -21 -88.0049s5 -46.666 19 -57.999c8 -6.66699 17.833 -7.5 29.5 -2.5s24 14.333 37 28s26.167 30.667 39.5 51s26 42.5 38 66.5c10 20 18 39.833 24 59.5s10.167 37.5 12.5 53.5s2.5 29.5 0.5 40.5s-6 18.167 -12 21.5
c-6 2.66699 -14.167 1.83398 -24.5 -2.49902s-21.5 -11.666 -33.5 -21.999s-24.5 -23.166 -37.5 -38.499s-25.5 -32.666 -37.5 -51.999l-16.5 -27.5c-5.66699 -9 -11.5 -18.833 -17.5 -29.5zM209 3.99414c24.667 1.33301 46.8281 6.50293 66.4951 15.5029
s37.334 20.333 53.001 34s29.334 28.834 41.001 45.501s21.5 33.667 29.5 51c3.33301 7.33301 7 10.5 11 9.5s6.66699 -4.16699 8 -9.5c1.33301 -4.66699 1.66602 -13 0.999023 -25s-5.33398 -25.667 -14.001 -41c-19.333 -34.667 -44.833 -60.5 -76.5 -77.5
s-65.5 -26.833 -101.5 -29.5c-32 -2 -59.167 -0.333008 -81.5 5s-42.166 16 -59.499 32c-10.667 9.33301 -18.667 19.666 -24 30.999s-8.66602 23.333 -9.99902 36l-72.5 -140c-25 -50 -49.5 -103 -73.5 -159c-2 -4.66699 -4.5 -7.33398 -7.5 -8.00098
s-6.16699 1.33301 -9.5 6c-7.33301 10.667 -11.666 24 -12.999 40s2.66699 39.333 12 70c4.66699 16 13 37.5 25 64.5s26 56.667 42 89l51 100.5l53.5 99l50 85.5c15.667 25.667 28.834 45.5 39.501 59.5c5.33301 6.66699 10 9.66699 14 9s7.33301 -4 10 -10
c4.66699 -13.333 6.66699 -28.333 6 -45c10.667 9.33301 22.334 17.833 35.001 25.5s25.5 13 38.5 16s25.667 3.16699 38 0.5s23.833 -9.66699 34.5 -21c12 -12.667 19.833 -27.5 23.5 -44.5s4.5 -35.333 2.5 -55s-6.33301 -39.834 -13 -60.501s-14.667 -41.334 -24 -62.001
c-30.667 -67.333 -65.667 -113 -105 -137z" />
    <glyph glyph-name="q" unicode="q" horiz-adv-x="373" 
d="M237 168c32 55.333 50.8301 97.9971 56.4971 127.997s1.16699 45.667 -13.5 47c-8 0.666992 -18.333 -2.66602 -31 -9.99902s-26.167 -17.666 -40.5 -30.999s-29.166 -29.333 -44.499 -48s-30 -39 -44 -61c-13.333 -21.333 -24.166 -42.666 -32.499 -63.999
s-13.666 -40.333 -15.999 -57s-1.83301 -30.167 1.5 -40.5s10 -15.5 20 -15.5c20.667 0 43.5 14.167 68.5 42.5s50.167 64.833 75.5 109.5zM153.997 9.99707c-11.333 -7.33301 -23.001 -13.3311 -35.001 -17.998s-24.333 -7 -37 -7c-23.333 0 -41.833 7.16699 -55.5 21.5
s-22 33.166 -25 56.499s-0.333008 49.833 8 79.5s22.833 59.834 43.5 90.501c40 58 78.667 99.333 116 124s68.666 37 93.999 37c22 0 38 -7.33301 48 -22s14.333 -31.334 13 -50.001c8.66699 15.333 16.834 28.666 24.501 39.999s13.834 19.333 18.501 24
c5.33301 5.33301 9.83301 7.5 13.5 6.5s7.5 -4.16699 11.5 -9.5c6 -12.667 8 -29.667 6 -51s-11.333 -47 -28 -77l-55 -98l-67.5 -124l-71 -139c-23.667 -48 -45.5 -95.667 -65.5 -143c-4.66699 -10.667 -10.667 -12 -18 -4c-3.33301 4 -6.5 8.33301 -9.5 13
s-5.16699 10.5 -6.5 17.5s-1.5 15.5 -0.5 25.5s3.5 22 7.5 36c6 21.333 15.167 47 27.5 77s26.5 61.333 42.5 94z" />
    <glyph glyph-name="r" unicode="r" horiz-adv-x="330" 
d="M165 316c30.667 4 64.9893 19.3301 102.989 45.9971c12 8 21 8.66699 27 2c4.66699 -5.33301 9.33398 -11.833 14.001 -19.5s8.33398 -16 11.001 -25s3.33398 -18.167 2.00098 -27.5s-5.66602 -18 -12.999 -26c-22.667 -25.333 -44.667 -52.833 -66 -82.5
s-36 -57.5 -44 -83.5s-9.5 -47.667 -4.5 -65s14.833 -26.333 29.5 -27c10 -0.666992 20.167 2.5 30.5 9.5s20.833 16.5 31.5 28.5s20.834 26.167 30.501 42.5s18.5 33.5 26.5 51.5c4.66699 9.33301 9.33398 9.66602 14.001 0.999023
c2.66699 -5.33301 3.83398 -13.666 3.50098 -24.999s-3.16602 -23.666 -8.49902 -36.999c-6 -14.667 -13.833 -28 -23.5 -40s-20.5 -22.5 -32.5 -31.5s-24.667 -15.833 -38 -20.5s-26.666 -6.66699 -39.999 -6c-18 0.666992 -33.333 5 -46 13s-22.167 18.667 -28.5 32
s-9.66602 28.5 -9.99902 45.5s2.5 34.833 8.5 53.5c5.33301 16.667 12.833 33.334 22.5 50.001s20 33 31 49s22.333 31.167 34 45.5l32.5 38.5c-22 -14.667 -43.167 -24.667 -63.5 -30s-38.166 -8 -53.499 -8c-9.33301 -17.333 -21.666 -38.666 -36.999 -63.999l-46.5 -79.5
c-15.667 -27.667 -30 -55.5 -43 -83.5s-21.833 -53.333 -26.5 -76c-1.33301 -4.66699 -3.33301 -7.83398 -6 -9.50098s-6.33398 -0.166992 -11.001 4.5c-14.667 15.333 -22 34 -22 56s6.66699 45.667 20 71c6 10.667 14.167 24.167 24.5 40.5l33.5 51.5l36.5 53l32.5 46
c-14 9.33301 -20.167 22.666 -18.5 39.999s7.33398 34.5 17.001 51.5s21.167 32 34.5 45s24.666 19.5 33.999 19.5c8 0 13.5 -3.16699 16.5 -9.5s4.16699 -15.166 3.5 -26.499s-3 -24.166 -7 -38.499s-9 -29.5 -15 -45.5z" />
    <glyph glyph-name="s" unicode="s" horiz-adv-x="302" 
d="M152 272c-14.667 -26.667 -30.834 -53.5 -48.501 -80.5l-55.5 -81.5c4 -14.667 8.66699 -28 14 -40s11.333 -22 18 -30s13.834 -13.833 21.501 -17.5s15.5 -4.16699 23.5 -1.5c11.333 3.33301 19.333 14.5 24 33.5s7.33398 41.333 8.00098 67s0.166992 52.167 -1.5 79.5
s-2.83398 51 -3.50098 71zM39 164l61.9961 88.002c20.667 30.667 38.334 58.667 53.001 84c2.66699 19.333 6.66699 34.666 12 45.999s13.333 21.666 24 30.999c11.333 10 22 16.167 32 18.5s17.333 1.16602 22 -3.50098c5.33301 -5.33301 7 -11.166 5 -17.499
s-6.33301 -15.166 -13 -26.499l-5.5 -9.5l-5.5 -9.5c-2 -23.333 -2.5 -45.5 -1.5 -66.5s2.5 -41.5 4.5 -61.5s3.66699 -39.167 5 -57.5s1.66602 -36.166 0.999023 -53.499c-1.33301 -19.333 -4.66602 -38.666 -9.99902 -57.999s-17 -35 -35 -47
c33.333 12.667 60.833 32.167 82.5 58.5s38.834 53.166 51.501 80.499c2.66699 5.33301 6 7.66602 10 6.99902s7 -3 9 -7c2 -4.66699 2.33301 -13 1 -25s-6.33301 -25.667 -15 -41c-19.333 -34.667 -44.666 -61.334 -75.999 -80.001s-65 -28.667 -101 -30
c-14.667 -0.666992 -29 0 -43 2s-27.333 5.83301 -40 11.5s-24.5 13.5 -35.5 23.5s-20.833 22.667 -29.5 38c-6 11.333 -10.333 23.666 -13 36.999s-3.5 26.333 -2.5 39s3.83301 24.5 8.5 35.5s11.334 20.167 20.001 27.5c12.667 10.667 19.667 7.33398 21 -9.99902
c0.666992 -4 1 -8 1 -12s0.333008 -8 1 -12z" />
    <glyph glyph-name="t" unicode="t" horiz-adv-x="214" 
d="M125 389c-17.333 0 -31.4951 2.99902 -42.4951 8.99902s-18.5 11.667 -22.5 17c-5.33301 7.33301 -6.66602 12.666 -3.99902 15.999s7.66699 4.66602 15 3.99902c14 -0.666992 28 -0.5 42 0.5s27.667 2.16699 41 3.5c15.333 28 29.666 52.833 42.999 74.5
s24.333 38.167 33 49.5c4.66699 6.66699 9.16699 9.83398 13.5 9.50098s7.83301 -3.5 10.5 -9.5c5.33301 -14 7.5 -29.833 6.5 -47.5s-7.5 -39.5 -19.5 -65.5c19.333 0.666992 33.5 -2.5 42.5 -9.5s15.5 -13.833 19.5 -20.5c7.33301 -12.667 3.33301 -19 -12 -19
c-11.333 1.33301 -24 1.5 -38 0.5s-27.333 -2.5 -40 -4.5l-32 -55l-35 -62.5l-35.5 -66c-11.667 -22.333 -22.167 -43.833 -31.5 -64.5c-8 -18 -13.5 -35.167 -16.5 -51.5s-3.5 -30.833 -1.5 -43.5s6.16699 -22.667 12.5 -30s14.833 -11.333 25.5 -12
c11.333 -0.666992 23.166 3 35.499 11s24.666 18.667 36.999 32s24.166 28.833 35.499 46.5s21.666 35.834 30.999 54.501c3.33301 6 7.16602 9.33301 11.499 10s7.5 -2.66602 9.5 -9.99902c2.66699 -8 3 -16.667 1 -26s-5.66699 -19.666 -11 -30.999
c-3.33301 -7.33301 -9.66602 -17.5 -18.999 -30.5s-21 -25.833 -35 -38.5s-30 -23.5 -48 -32.5s-37 -13.167 -57 -12.5c-16.667 0.666992 -32 5.5 -46 14.5s-24.833 21.833 -32.5 38.5s-11.334 36.667 -11.001 60s6.5 49.333 18.5 78c10.667 25.333 25.667 57.166 45 95.499
z" />
    <glyph glyph-name="u" unicode="u" horiz-adv-x="404" 
d="M196 81c-8.66699 -12 -18.501 -23.8311 -29.501 -35.498s-22.667 -22 -35 -31s-25.166 -16.167 -38.499 -21.5s-27 -7.33301 -41 -6c-18 1.33301 -31.667 6.5 -41 15.5s-15.666 20.333 -18.999 34s-4 28.834 -2 45.501s5.66699 33.334 11 50.001
c11.333 33.333 29 72.666 53 117.999s52.333 91 85 137c4 5.33301 8.33301 8 13 8s9 -2.33301 13 -7c22.667 -34 16.334 -79 -18.999 -135c-18.667 -29.333 -33.667 -55.166 -45 -77.499s-22.333 -45.5 -33 -69.5c-10.667 -24.667 -15.334 -45 -14.001 -61
s7.66602 -24.667 18.999 -26c10 -0.666992 20.667 2.83301 32 10.5s23.333 18.5 36 32.5s25.834 30.5 39.501 49.5s27.167 39.5 40.5 61.5c31.333 50.667 55.833 93.667 73.5 129s34.5 63.666 50.5 84.999c9.33301 13.333 17.666 15.333 24.999 6s12 -24 14 -44
s-3 -42.667 -15 -68c-5.33301 -11.333 -12.333 -24.166 -21 -38.499l-26.5 -44.5l-26 -46c-8.33301 -15.333 -15.5 -29.333 -21.5 -42c-13.333 -28.667 -18.833 -52.334 -16.5 -71.001s12.5 -27.334 30.5 -26.001c10.667 0.666992 21.667 4.83398 33 12.501
s22.666 18 33.999 31s22.5 27.667 33.5 44s21.5 33.166 31.5 50.499c2.66699 4.66699 5.83398 7.16699 9.50098 7.5s6.5 -1.83398 8.5 -6.50098c2 -4 2.83301 -12 2.5 -24s-4.16602 -25 -11.499 -39s-16.5 -27.5 -27.5 -40.5s-23.167 -24.333 -36.5 -34
s-27.333 -17.5 -42 -23.5s-29.334 -9 -44.001 -9c-32.667 0 -55.667 9.16699 -69 27.5s-18 42.166 -14 71.499z" />
    <glyph glyph-name="v" unicode="v" horiz-adv-x="300" 
d="M68 29c18 29.333 39 61.4951 63 96.4951l74 103l73.5 94c23.667 29 44.167 52.167 61.5 69.5c10.667 10.667 17 9.33398 19 -3.99902c1.33301 -10.667 -1.16699 -22.834 -7.5 -36.501s-17.5 -30.5 -33.5 -50.5c-12.667 -16 -27.667 -34 -45 -54l-56.5 -68l-65 -85
c-23 -31.333 -46.5 -66 -70.5 -104c-2.66699 -4 -5.33398 -7.33301 -8.00098 -10s-6.66699 -2.66699 -12 0c-19.333 9.33301 -32.833 20.333 -40.5 33s-10.834 32.334 -9.50098 59.001c0.666992 17.333 3 38.833 7 64.5s8.83301 52.834 14.5 81.501
s12.167 57.834 19.5 87.501s15.333 57.5 24 83.5c4.66699 12.667 11.334 15.334 20.001 8.00098c16.667 -14 26.667 -30.833 30 -50.5s1.33301 -44.834 -6 -75.501c-4.66699 -19.333 -9.33398 -37.666 -14.001 -54.999s-9.16699 -35.333 -13.5 -54
s-8.66602 -38.667 -12.999 -60s-8.16602 -45.666 -11.499 -72.999z" />
    <glyph glyph-name="w" unicode="w" horiz-adv-x="490" 
d="M403 174c4 38 10.8252 70.8359 20.4922 98.5029s20 50.5 31 68.5s21.667 31.5 32 40.5s18.166 14.167 23.499 15.5c6.66699 1.33301 11.334 -1.33398 14.001 -8.00098s3 -15.334 1 -26.001c-2 -10 -4.83301 -20.667 -8.5 -32s-8.66699 -24.333 -15 -39
s-14.666 -31.667 -24.999 -51s-23.166 -42 -38.499 -68c-17.333 -28.667 -34.5 -54.667 -51.5 -78s-34.167 -43.333 -51.5 -60s-34.666 -29.5 -51.999 -38.5s-34.333 -13.167 -51 -12.5c-21.333 0.666992 -37.666 9.33398 -48.999 26.001s-16.333 35.667 -15 57
c-16 -20.667 -34.333 -39.167 -55 -55.5s-43 -23.833 -67 -22.5c-15.333 0.666992 -27.666 5.16699 -36.999 13.5s-15.833 19 -19.5 32s-4.66699 27.833 -3 44.5s5.83398 34.334 12.501 53.001c11.333 33.333 28.833 72.666 52.5 117.999s52.5 91 86.5 137
c4 5.33301 8.16699 8 12.5 8s8.16602 -2.33301 11.499 -7c12 -16.667 16.667 -35.834 14 -57.501s-13.334 -47.5 -32.001 -77.5c-18 -28.667 -33.667 -55.167 -47 -79.5s-25 -48.5 -35 -72.5c-10 -24.667 -14.667 -44.834 -14 -60.501s6.66699 -23.167 18 -22.5
c10 0 19.833 4 29.5 12s19.834 19 30.501 33s21.834 30.333 33.501 49l37.5 61c32 51.333 56.833 94.5 74.5 129.5s34.834 63.167 51.501 84.5c8.66699 12 17 14 25 6c7.33301 -9.33301 11.833 -24 13.5 -44s-3.5 -42.667 -15.5 -68
c-5.33301 -11.333 -12.333 -24.333 -21 -39l-26.5 -45l-27 -46.5c-9 -15.667 -16.5 -30.167 -22.5 -43.5c-13.333 -28.667 -19.5 -51 -18.5 -67s8.83301 -24.333 23.5 -25c8.66699 0 18.834 3.83301 30.501 11.5s24 18.5 37 32.5s26.5 30.833 40.5 50.5
s27.667 41.167 41 64.5z" />
    <glyph glyph-name="x" unicode="x" horiz-adv-x="391" 
d="M174 180c-2.66699 18.667 -5.6709 38.0039 -9.00391 58.0039s-6.66602 38.167 -9.99902 54.5s-6.5 30 -9.5 41s-5.83301 16.5 -8.5 16.5c-3.33301 0 -8 -2.16699 -14 -6.5s-12.833 -10.833 -20.5 -19.5s-15.667 -19.5 -24 -32.5s-16.166 -27.833 -23.499 -44.5
c-2 -4.66699 -4.83301 -7.16699 -8.5 -7.5s-6.16699 1.5 -7.5 5.5c-2.66699 7.33301 -3.16699 15.833 -1.5 25.5s4.16699 19.167 7.5 28.5c4.66699 12 11.667 23.833 21 35.5s19.666 22 30.999 31s23.5 15.667 36.5 20s25.833 5.5 38.5 3.5
c15.333 -3.33301 26.833 -10.333 34.5 -21s13.834 -27 18.501 -49c2.66699 -12 5.16699 -25.333 7.5 -40s4.5 -30 6.5 -46c27.333 22 53.833 45.167 79.5 69.5s49.167 50.166 70.5 77.499c5.33301 6.66699 10 10 14 10s6 -4 6 -12c0 -16.667 -4.66699 -32.834 -14 -48.501
s-22.666 -33.167 -39.999 -52.5c-11.333 -12.667 -26.5 -26.834 -45.5 -42.501l-63.5 -52.5c3.33301 -21.333 6.33301 -41.5 9 -60.5s5.33398 -35.167 8.00098 -48.5c4 -20 8.83301 -34 14.5 -42s11.5 -12.333 17.5 -13c9.33301 -0.666992 18.833 3 28.5 11
s19.334 18.5 29.001 31.5s18.834 27.333 27.501 43s16.667 31.167 24 46.5c2 4.66699 4.66699 7.16699 8 7.5s5.66602 -1.5 6.99902 -5.5c2.66699 -6 3.66699 -14.667 3 -26s-4.66699 -23.666 -12 -36.999c-15.333 -30 -34.833 -55 -58.5 -75s-48.167 -30 -73.5 -30
c-26.667 0 -47.334 8.5 -62.001 25.5s-25 46.5 -31 88.5c-0.666992 3.33301 -1.16699 7.5 -1.5 12.5s-1.16602 10.5 -2.49902 16.5c-24.667 -20.667 -48.834 -42.334 -72.501 -65.001s-45.5 -46.667 -65.5 -72c-2 -2 -4.5 -3.83301 -7.5 -5.5s-5.66699 -2.5 -8 -2.5
s-4.33301 0.833008 -6 2.5s-2.16699 4.5 -1.5 8.5c1.33301 17.333 7 34 17 50s24.333 34 43 54c12 13.333 26 26.666 42 39.999z" />
    <glyph glyph-name="y" unicode="y" horiz-adv-x="375" 
d="M104 -72c-32.667 -18.667 -59.999 -40.332 -81.999 -64.999s-39.333 -48.667 -52 -72s-20.834 -44.333 -24.501 -63s-3.16699 -31 1.5 -37c3.33301 -4.66699 10.5 -1.83398 21.5 8.49902s24 26.333 39 48s31 48 48 79s33.167 64.833 48.5 101.5zM386.001 97.002
c-19.333 -31.333 -45.6689 -57.166 -79.002 -77.499s-71 -39.166 -113 -56.499l-45 -103c-16 -35.333 -32.667 -68.333 -50 -99s-35.666 -57.167 -54.999 -79.5s-39.333 -37.5 -60 -45.5c-9.33301 -3.33301 -18.833 -4.16602 -28.5 -2.49902s-19.167 9.5 -28.5 23.5
c-10 14.667 -18.333 31.667 -25 51s-5 43.666 5 72.999c15.333 45.333 42.333 83.333 81 114s83 55.667 133 75c5.33301 11.333 10.5 23.166 15.5 35.499l15.5 36.5c-15.333 -16 -32.333 -29.5 -51 -40.5s-38 -15.833 -58 -14.5c-18 1.33301 -31.833 6.66602 -41.5 15.999
s-16.167 20.666 -19.5 33.999s-4 28.333 -2 45s6 33.334 12 50.001c5.33301 16 12.5 34 21.5 54s19.167 41 30.5 63s24.166 44.5 38.499 67.5s29.5 45.833 45.5 68.5c4 5.33301 8.33301 8 13 8s8.66699 -2.66699 12 -8c12 -16 16.5 -34.667 13.5 -56s-13.833 -47 -32.5 -77
c-18 -29.333 -33 -55.166 -45 -77.499s-22.667 -45.166 -32 -68.499c-10 -24.667 -14.5 -44.834 -13.5 -60.501s7.16699 -24.167 18.5 -25.5c10 -0.666992 20.5 2.5 31.5 9.5s22.333 17.167 34 30.5s23.834 29.166 36.501 47.499s25.334 38.5 38.001 60.5l32 58l31.5 58.5
l30 54c9.66699 17 18.834 31.833 27.501 44.5c8.66699 12 17 14.333 25 7c6.66699 -9.33301 10.834 -24 12.501 -44s-3.83301 -42.667 -16.5 -68l-27.5 -54l-34.5 -69l-36.5 -76.5l-34.5 -75.5c39.333 21.333 73.666 45.333 102.999 72s54 54 74 82
c2.66699 3.33301 5.66699 5.16602 9 5.49902s5.66602 -2.16699 6.99902 -7.5c1.33301 -4.66699 0.833008 -12.167 -1.5 -22.5s-7.83301 -22.166 -16.5 -35.499z" />
    <glyph glyph-name="z" unicode="z" horiz-adv-x="353" 
d="M196 -30c-33.333 -18.667 -61.002 -39.502 -83.002 -62.502s-39.333 -45.333 -52 -67s-20.5 -40.667 -23.5 -57s-2.16699 -27.5 2.5 -33.5c4.66699 -5.33301 13.834 -1.66602 27.501 11.001s28.5 30.334 44.5 53.001s31.833 48 47.5 76s27.834 54.667 36.501 80z
M204.998 2.99805c4.66699 22.667 2.66309 39.668 -6.00391 51.001c-3.33301 4.66699 -9.5 7.66699 -18.5 9s-19.167 1.16602 -30.5 -0.500977s-23.666 -5.16699 -36.999 -10.5s-26.333 -12.333 -39 -21c-3.33301 -2.66699 -6.66602 -4.16699 -9.99902 -4.5
s-5.66602 1.5 -6.99902 5.5c-7.33301 21.333 -6.33301 39.833 3 55.5s22.666 28.5 39.999 38.5c37.333 21.333 69.333 43.166 96 65.499s47.834 43.333 63.501 63s25.834 37.334 30.501 53.001s3.66699 27.834 -3 36.501s-19.334 11 -38.001 7s-39.834 -12.333 -63.501 -25
s-47.834 -29 -72.501 -49s-46.667 -42 -66 -66c-3.33301 -4 -6.33301 -5.5 -9 -4.5s-4.66699 3.5 -6 7.5c-4 13.333 -2.83301 30.166 3.5 50.499s18.833 39.5 37.5 57.5c20 19.333 43.167 35.5 69.5 48.5s51.5 21.167 75.5 24.5c22.667 3.33301 41.667 2.66602 57 -2.00098
s29.333 -16 42 -34c12 -17.333 18.167 -37.166 18.5 -59.499s-7.16699 -46.833 -22.5 -73.5c-13.333 -22 -33.166 -44.667 -59.499 -68s-55.833 -45.333 -88.5 -66c12 0.666992 23.5 -0.666016 34.5 -3.99902s20.5 -8.66602 28.5 -15.999
c12.667 -12 21.334 -28.333 26.001 -49c23.333 12 45.166 28.833 65.499 50.5s38.5 47.834 54.5 78.501c2 4 5 6.16699 9 6.5s7 -1.83398 9 -6.50098c2 -4 2 -12 0 -24s-6.66699 -24.667 -14 -38c-6 -10.667 -13.667 -20.834 -23 -30.501s-19.666 -18.5 -30.999 -26.5
s-22.833 -15.167 -34.5 -21.5s-22.834 -11.833 -33.501 -16.5c0 -26.667 -5.66699 -55.334 -17 -86.001s-25.5 -59.834 -42.5 -87.501s-35.167 -52.334 -54.5 -74.001s-37 -36.834 -53 -45.501c-10 -5.33301 -20.333 -8.16602 -31 -8.49902s-22.334 7.16699 -35.001 22.5
c-5.33301 6.66699 -10.666 13.834 -15.999 21.501s-9.5 16.167 -12.5 25.5s-4.33301 19.833 -4 31.5s3.5 24.5 9.5 38.5c18.667 42.667 46.834 77.334 84.501 104.001s77.834 48.667 120.501 66z" />
    <glyph glyph-name="braceleft" unicode="{" horiz-adv-x="193" 
d="M139 310c13.333 -14.667 19.8379 -30.833 19.5049 -48.5s-6.83301 -38.834 -19.5 -63.501c-6.66699 -13.333 -15.5 -28.5 -26.5 -45.5s-21.5 -34.5 -31.5 -52.5s-18.167 -35.333 -24.5 -52s-8.16602 -31 -5.49902 -43c1.33301 -7.33301 0.5 -12 -2.5 -14
s-7.16699 -1.33301 -12.5 2c-14.667 9.33301 -25.334 23.5 -32.001 42.5s-5 41.167 5 66.5c6 16 13.167 31 21.5 45l25 40.5l23.5 36.5c7.33301 11.333 13 22 17 32c5.33301 13.333 7.5 23.833 6.5 31.5s-4.5 14.167 -10.5 19.5c-3.33301 5.33301 -4.83301 10.5 -4.5 15.5
s4.16602 7.83301 11.499 8.5c8.66699 0.666992 17.5 3.33398 26.5 8.00098s17.5 12.667 25.5 24c6.66699 10 14.334 23.833 23.001 41.5l27 57l28 60.5c9.33301 20 18.666 36.667 27.999 50c7.33301 11.333 15.666 20.333 24.999 27s18.833 11.5 28.5 14.5
s19.167 4.5 28.5 4.5s18 -0.666992 26 -2c6 -1.33301 9 -3.83301 9 -7.5s-2.66699 -7.16699 -8 -10.5c-12.667 -8.66699 -25.334 -22.5 -38.001 -41.5s-24.834 -39.167 -36.501 -60.5s-22.5 -42.5 -32.5 -63.5s-18.333 -37.833 -25 -50.5
c-13.333 -23.333 -27.333 -40.833 -42 -52.5s-32.334 -18.167 -53.001 -19.5z" />
    <glyph glyph-name="bar" unicode="|" horiz-adv-x="224" 
d="M309 644c4.66699 6.66699 9.16699 9.66797 13.5 9.00098s7.83301 -4 10.5 -10c6.66699 -14.667 8.16699 -33.834 4.5 -57.501s-16.167 -54.5 -37.5 -92.5l-37 -66l-47.5 -85.5l-52 -97.5l-51.5 -100l-46.5 -94c-14.333 -30 -26.166 -56.667 -35.499 -80
c-4 -10 -9.66699 -10.667 -17 -2s-11.833 22 -13.5 40s2.16602 40.333 11.499 67c5.33301 16 14.5 38.167 27.5 66.5l45 94.5l55.5 110l60.5 113l59 103.5c19 32.333 35.833 59.5 50.5 81.5z" />
    <glyph glyph-name="braceright" unicode="}" horiz-adv-x="306" 
d="M224 295c-11.333 12 -17.001 27.1631 -17.001 45.4961s5.66699 38.5 17 60.5c6.66699 12.667 15.834 28.334 27.501 47.001s22.667 37.5 33 56.5s18.833 37.333 25.5 55s8.66699 32.167 6 43.5c-4 13.333 1 17.333 15 12c17.333 -7.33301 29.5 -18.833 36.5 -34.5
s6.83301 -34.167 -0.5 -55.5c-6 -18 -13.833 -35.667 -23.5 -53s-19.5 -33.666 -29.5 -48.999l-27.5 -42.5c-8.33301 -13 -14.5 -24.5 -18.5 -34.5c-5.33301 -13.333 -7.16602 -24.166 -5.49902 -32.499s5.16699 -15.166 10.5 -20.499c4.66699 -4.66699 5.5 -9 2.5 -13
s-8.5 -7 -16.5 -9c-16.667 -4 -32 -15.333 -46 -34c-7.33301 -9.33301 -15 -22.5 -23 -39.5l-25 -54.5l-27 -57.5c-9.33301 -19 -18.333 -35.167 -27 -48.5c-15.333 -22.667 -32.666 -36.667 -51.999 -42s-38.333 -6.33301 -57 -3c-6.66699 1.33301 -9.66699 3.83301 -9 7.5
s3.66699 7.16699 9 10.5c11.333 6.66699 23.166 19.167 35.499 37.5s24.166 38.333 35.499 60l32 64c10 21 18.667 37.833 26 50.5c24.667 44.667 55.667 69 93 73z" />
    <glyph glyph-name="asciitilde" unicode="~" horiz-adv-x="231" 
d="M0 670c3.33301 10 10.334 20.167 21.001 30.5s24 16.166 40 17.499c12.667 0.666992 25.167 -0.833008 37.5 -4.5s24.833 -7.16699 37.5 -10.5s25.667 -5.5 39 -6.5s27.333 1.83301 42 8.5c5.33301 2.66699 9.33301 2.83398 12 0.500977s2.66699 -6.83301 0 -13.5
c-10.667 -26 -28.334 -41 -53.001 -45c-14.667 -3.33301 -29.167 -3.33301 -43.5 0s-28.5 7 -42.5 11s-27.667 7 -41 9s-26.333 0 -39 -6c-10 -4.66699 -13.333 -1.66699 -10 9z" />
    <glyph glyph-name="nonbreakingspace" unicode="&#xa0;" horiz-adv-x="220" 
 />
    <glyph glyph-name="exclamdown" unicode="&#xa1;" horiz-adv-x="317" 
d="M86 -33c-4 -6 -8.33203 -9.00098 -12.999 -9.00098s-8.66699 3.66699 -12 11c-6.66699 14 -8.5 33.333 -5.5 58s14.833 55.667 35.5 93l46 83.5l50.5 95.5l50 97.5c16.333 32.333 30.833 62.5 43.5 90.5c2.66699 5.33301 5.16699 8.33301 7.5 9s5.5 -1 9.5 -5
c7.33301 -8 12.5 -20.667 15.5 -38s-1.16699 -41 -12.5 -71c-10 -26.667 -23.333 -58.167 -40 -94.5s-34.834 -73.666 -54.501 -111.999s-40 -75.833 -61 -112.5s-40.833 -68.667 -59.5 -96zM311.001 529.999c-5.33301 11.333 -6.83203 23 -4.49902 35
s6.16602 21.667 11.499 29c6 7.33301 14.833 9.66602 26.5 6.99902s21.167 -9.66699 28.5 -21c8 -13.333 11.167 -26.666 9.5 -39.999s-6.5 -24.333 -14.5 -33c-7.33301 -8 -17 -9.66699 -29 -5s-21.333 14 -28 28z" />
    <glyph glyph-name="cent" unicode="&#xa2;" horiz-adv-x="353" 
d="M307 482c10 18.667 20.1699 36.667 30.5029 54l29.5 49c3.33301 6 6.33301 9.16699 9 9.5s5.66699 -2.16699 9 -7.5c5.33301 -7.33301 7 -18.666 5 -33.999s-8.33301 -33.666 -19 -54.999l-21 -42c6.66699 -5.33301 12.667 -11.166 18 -17.499
s9.66602 -13.5 12.999 -21.5c4.66699 -10.667 6.16699 -21.834 4.5 -33.501s-5.33398 -23.5 -11.001 -35.5s-12 -24.333 -19 -37s-13.167 -25.334 -18.5 -38.001c-2.66699 -6 -5.33398 -10 -8.00098 -12s-7.66699 -0.666992 -15 4c-11.333 7.33301 -19 17.666 -23 30.999
s-1.66699 30.666 7 51.999c2.66699 8 6.33398 16.5 11.001 25.5s8.83398 17.667 12.501 26s6 15.833 7 22.5s-0.5 11.334 -4.5 14.001c-7.33301 4.66699 -18.5 3.83398 -33.5 -2.49902s-31.167 -16.833 -48.5 -31.5s-34.666 -32.5 -51.999 -53.5s-31.333 -43.5 -42 -67.5
c-18.667 -41.333 -25.834 -75.666 -21.501 -102.999s16.166 -44.666 35.499 -51.999c10 -3.33301 20.833 -4 32.5 -2s23.5 6.33301 35.5 13s23.5 15.334 34.5 26.001s20.5 23 28.5 37c5.33301 9.33301 10.666 10 15.999 2c5.33301 -8.66699 6.5 -19.167 3.5 -31.5
s-8.83301 -24.166 -17.5 -35.499c-16 -20.667 -36.667 -34.834 -62 -42.501s-51 -7.83398 -77 -0.500977l-24.5 -47c-7.66699 -15.333 -14.834 -30.333 -21.501 -45c-2 -5.33301 -4.33301 -8 -7 -8s-5 1.66699 -7 5c-3.33301 5.33301 -5.66602 13.666 -6.99902 24.999
s2.33398 27.666 11.001 48.999c1.33301 5.33301 3.33301 11.333 6 18s5.66699 13.667 9 21c-16 10.667 -28.5 24 -37.5 40s-14.5 33.833 -16.5 53.5s-0.333008 40.667 5 63s14.666 45.166 27.999 68.499c15.333 26.667 32.5 50 51.5 70s38.167 36.167 57.5 48.5s38 21 56 26
s34 5.83301 48 2.5z" />
    <glyph glyph-name="sterling" unicode="&#xa3;" horiz-adv-x="355" 
d="M380 361c-15.333 -15.333 -29.8262 -24.335 -43.4932 -27.002s-24.834 -3 -33.501 -1c-11.333 2 -13 7 -5 15c10.667 11.333 20.5 23.666 29.5 36.999s16.333 26.166 22 38.499s9.16699 23.166 10.5 32.499s0 15.333 -4 18c-8 4.66699 -21.833 1.83398 -41.5 -8.49902
s-39.834 -24.5 -60.501 -42.5c-18.667 -16.667 -33 -35 -43 -55s-14 -37.667 -12 -53c10 2.66699 20.333 4 31 4c15.333 0.666992 28.5 -3 39.5 -11s18.167 -17.333 21.5 -28c1.33301 -3.33301 1.66602 -5.83301 0.999023 -7.5s-3 -2.5 -7 -2.5
c-14.667 0 -28.167 -0.833008 -40.5 -2.5l-34.5 -4.5c2 -13.333 1.33301 -26.666 -2 -39.999s-10.666 -26.333 -21.999 -39c8.66699 1.33301 16.667 2.33301 24 3s14 1.33398 20 2.00098c20.667 2 37.167 -0.666992 49.5 -8s21.166 -17.666 26.499 -30.999
c3.33301 -8 0.666016 -12 -8.00098 -12c-12 -0.666992 -25.5 -2.16699 -40.5 -4.5s-30.5 -5.16602 -46.5 -8.49902s-31.667 -6.83301 -47 -10.5s-28.666 -7.5 -39.999 -11.5c-6 -2 -11 -2.83301 -15 -2.5s-8.33301 3.16602 -13 8.49902l-13.5 16
c-4.33301 5.33301 -8.16602 10.333 -11.499 15c-8 10 -6.33301 18 5 24c9.33301 4.66699 19.166 10.5 29.499 17.5s20 14.333 29 22s17 15.834 24 24.501s12.167 17.334 15.5 26.001c-7.33301 -2 -13.833 -3.66699 -19.5 -5s-11.834 -2.33301 -18.501 -3
c-18 -1.33301 -32.5 1.5 -43.5 8.5s-18.833 15.833 -23.5 26.5c-4 8.66699 -1.66699 13 7 13c13.333 -0.666992 27.666 0.666016 42.999 3.99902s30.666 7 45.999 11l-10.5 30.5c-3.66699 11 -4.83398 23.167 -3.50098 36.5s6.5 28.166 15.5 44.499s24.5 34.5 46.5 54.5
c10 8.66699 21.5 17 34.5 25s26.5 13.833 40.5 17.5s28.5 4.5 43.5 2.5s29.5 -8.33301 43.5 -19c14.667 -11.333 24.667 -23.5 30 -36.5s7.33301 -26 6 -39s-5 -25.167 -11 -36.5s-12.667 -20.666 -20 -27.999z" />
    <glyph glyph-name="currency" unicode="&#xa4;" 
d="M93 299c-24 -3.33301 -43.334 -1.49805 -58.001 5.50195s-24.667 14.167 -30 21.5c-10 12.667 -6 19 12 19c17.333 -0.666992 34.5 -0.166992 51.5 1.5s33.5 3.16699 49.5 4.5c17.333 28.667 36.666 53.334 57.999 74.001s42.5 36.667 63.5 48s40.833 18.166 59.5 20.499
s34.334 -0.5 47.001 -8.5c13.333 -8.66699 24.5 -17.667 33.5 -27s16.167 -19.666 21.5 -30.999c4.66699 -10.667 6.16699 -21.667 4.5 -33s-5.33398 -23 -11.001 -35s-12 -24.167 -19 -36.5s-13.167 -24.833 -18.5 -37.5
c-2.66699 -6.66699 -5.33398 -10.834 -8.00098 -12.501s-7.33398 -0.5 -14.001 3.5c-11.333 7.33301 -19 17.666 -23 30.999s-2 30.666 6 51.999c2.66699 8 6.33398 16.333 11.001 25s8.83398 17.167 12.501 25.5s6 15.666 7 21.999s-0.833008 11.166 -5.5 14.499
c-5.33301 3.33301 -12.833 3.5 -22.5 0.5s-20.667 -8.5 -33 -16.5s-25.333 -18.167 -39 -30.5s-26.5 -26.5 -38.5 -42.5c18 -1.33301 31 -4.66602 39 -9.99902s14.333 -11.333 19 -18c4 -5.33301 5 -9.83301 3 -13.5s-7 -5.16699 -15 -4.5
c-11.333 0.666992 -24 0.5 -38 -0.5s-27.667 -2.16699 -41 -3.5c-1.33301 -2.66699 -2.5 -5.16699 -3.5 -7.5s-2.16699 -4.83301 -3.5 -7.5l-5.5 -13c-1.66699 -4 -3.16699 -8 -4.5 -12c20 1.33301 34.167 -1.33398 42.5 -8.00098s14.833 -13.334 19.5 -20.001
c4 -5.33301 5.16699 -10 3.5 -14s-6.16699 -5.66699 -13.5 -5c-9.33301 0.666992 -19.5 0.5 -30.5 -0.5s-22.167 -2.16699 -33.5 -3.5c-2 -21.333 0.166992 -38.333 6.5 -51s15.833 -21.334 28.5 -26.001c10 -3.33301 20.833 -4 32.5 -2s23.334 6.16699 35.001 12.5
s23 14.833 34 25.5s20.5 23 28.5 37c5.33301 8 10.333 8.66699 15 2c6 -8.66699 7.66699 -19.167 5 -31.5s-8.66699 -24.166 -18 -35.499c-17.333 -21.333 -39.666 -35.5 -66.999 -42.5s-55 -5.5 -83 4.5c-23.333 8.66699 -41.833 21.334 -55.5 38.001
s-22.5 36.334 -26.5 59.001c-20 -2 -36.667 0 -50 6s-22.666 12.667 -27.999 20c-5.33301 6 -6.83301 10.833 -4.5 14.5s7.16602 5.16699 14.499 4.5c12 0 23.5 0.333008 34.5 1s21.833 1.66699 32.5 3c2 12.667 5.66699 27.334 11 44.001z" />
    <glyph glyph-name="yen" unicode="&#xa5;" horiz-adv-x="642" 
d="M664 86c-6 -15.333 -14.1689 -29.3369 -24.502 -42.0039s-21.666 -23.5 -33.999 -32.5s-25.333 -16 -39 -21s-27.167 -7.16699 -40.5 -6.5c-19.333 0.666992 -35.666 5.33398 -48.999 14.001s-23.5 19.834 -30.5 33.501s-10.833 29.5 -11.5 47.5s2 37 8 57
c5.33301 16.667 12.833 33.834 22.5 51.501s20.334 34.667 32.001 51s23.667 31.833 36 46.5l34.5 40c-22.667 -13.333 -44.5 -22.833 -65.5 -28.5s-39.5 -8.5 -55.5 -8.5c-18 -41.333 -38.5 -80.333 -61.5 -117s-47.833 -68.667 -74.5 -96s-54.667 -49.166 -84 -65.499
s-59.666 -24.5 -90.999 -24.5c-32 0 -58.333 7 -79 21s-35.667 32.667 -45 56s-12.333 50 -9 80s13 61 29 93c16 30.667 33.833 57.334 53.5 80.001s39.334 40.5 59.001 53.5s38.5 21 56.5 24s33.333 0.833008 46 -6.5c25.333 -15.333 43.666 -34 54.999 -56
c5.33301 -10 7.16602 -21 5.49902 -33s-5 -24.167 -10 -36.5s-10.833 -25.166 -17.5 -38.499s-12.334 -26.333 -17.001 -39c-2.66699 -7.33301 -5 -11.666 -7 -12.999s-6.66699 -0.333008 -14 3c-12 6 -20.833 16.5 -26.5 31.5s-4.83398 33.5 2.49902 55.5
c2.66699 8.66699 6.5 17.834 11.5 27.501s9.33301 18.834 13 27.501s6.16699 16.167 7.5 22.5s0 10.833 -4 13.5c-4.66699 3.33301 -12.334 2.16602 -23.001 -3.50098s-22.5 -14.834 -35.5 -27.501s-26.667 -28.334 -41 -47.001s-27.166 -39.667 -38.499 -63
c-14 -28 -23.333 -53.833 -28 -77.5s-5.5 -44.167 -2.5 -61.5s9.33301 -31 19 -41s21.834 -15.333 36.501 -16c27.333 -1.33301 54.5 6.5 81.5 23.5s52.833 39.167 77.5 66.5s47 57.833 67 91.5s36.667 66.5 50 98.5c-13.333 4.66699 -21.833 12.167 -25.5 22.5
s-4.5 21.666 -2.5 33.999s6.66699 24.833 14 37.5s15.333 24.334 24 35.001s17.667 19.5 27 26.5s17.666 10.5 24.999 10.5c8 0 13.333 -3.33301 16 -10s3.66699 -15.834 3 -27.501s-3.16699 -25.167 -7.5 -40.5s-9.5 -31 -15.5 -47c34.667 4.66699 71 20.667 109 48
c5.33301 4 10.666 6.66699 15.999 8s10 -0.666992 14 -6c4.66699 -5.33301 9.33398 -12 14.001 -20s8.16699 -16.667 10.5 -26s2.83301 -18.833 1.5 -28.5s-5.66602 -18.834 -12.999 -27.501c-12 -13.333 -23.833 -27.333 -35.5 -42s-22.5 -29.5 -32.5 -44.5
s-19 -30 -27 -45s-14 -29.167 -18 -42.5c-9.33301 -28 -11.5 -50.667 -6.5 -68s15.5 -26.666 31.5 -27.999c10 -0.666992 20.5 2.66602 31.5 9.99902s22 17.333 33 30s21.5 27.334 31.5 44.001s19 34.334 27 53.001c2 4.66699 4.5 7.16699 7.5 7.5
s5.5 -1.83398 7.5 -6.50098c2.66699 -5.33301 4 -13.833 4 -25.5s-3 -24.834 -9 -39.501z" />
    <glyph glyph-name="section" unicode="&#xa7;" horiz-adv-x="1051" 
d="M236 170c32 55.333 50.667 97.8311 56 127.498s1 45.167 -13 46.5c-8 0.666992 -18.167 -2.66602 -30.5 -9.99902s-25.833 -17.666 -40.5 -30.999s-29.5 -29.166 -44.5 -47.499s-29.5 -38.5 -43.5 -60.5c-13.333 -21.333 -24 -42.5 -32 -63.5
s-13.167 -39.833 -15.5 -56.5s-1.83301 -30 1.5 -40s10 -15 20 -15c20 0 42.333 14.167 67 42.5s49.667 64.166 75 107.499zM595 107.998c-9.33301 -28 -11.6699 -50.5039 -7.00293 -67.5039s15 -26.167 31 -27.5c14.667 -1.33301 30.667 5.83398 48 21.501
s35 36.834 53 63.501s35.333 57 52 91s31.667 69 45 105c-19.333 7.33301 -29.333 20 -30 38s3.66602 36.333 12.999 55s21.166 35.334 35.499 50.001s26.5 22.334 36.5 23.001c8 0.666992 13.667 -2.5 17 -9.5s4.83301 -16.167 4.5 -27.5s-2.33301 -24.666 -6 -39.999
s-8.16699 -31.333 -13.5 -48c17.333 2 35.166 7.16699 53.499 15.5s37.166 19.166 56.499 32.499c6 4 11.5 6.66699 16.5 8s9.5 -0.666992 13.5 -6c4.66699 -5.33301 9.33398 -12.166 14.001 -20.499s8.16699 -17 10.5 -26s2.83301 -18.333 1.5 -28
s-5.66602 -18.834 -12.999 -27.501c-23.333 -27.333 -45.666 -56.666 -66.999 -87.999s-36.666 -60 -45.999 -86c-9.33301 -28 -11.5 -50.667 -6.5 -68s15.5 -26.666 31.5 -27.999c10 -0.666992 20.5 2.5 31.5 9.5s22 16.833 33 29.5s21.5 27.5 31.5 44.5s19 34.833 27 53.5
c2 4.66699 4.66699 7 8 7s5.66602 -2 6.99902 -6c2.66699 -6 4.33398 -15 5.00098 -27s-2 -24.667 -8 -38c-6.66699 -15.333 -15.334 -29.166 -26.001 -41.499s-22.167 -23 -34.5 -32s-25.333 -16 -39 -21s-27.167 -7.5 -40.5 -7.5
c-19.333 0.666992 -35.666 5.16699 -48.999 13.5s-23.5 19.333 -30.5 33s-10.833 29.5 -11.5 47.5s2 37 8 57c5.33301 17.333 12.833 34.833 22.5 52.5s20.334 34.667 32.001 51s23.667 32 36 47l34.5 40.5c-22 -14 -43.333 -23.833 -64 -29.5s-39.334 -8.5 -56.001 -8.5
c-13.333 -33.333 -28.5 -67.833 -45.5 -103.5s-35.667 -68.334 -56 -98.001s-42.5 -54.167 -66.5 -73.5s-49.333 -29.333 -76 -30c-19.333 -0.666992 -35.5 3.16602 -48.5 11.499s-22.833 19.5 -29.5 33.5s-10.167 30.167 -10.5 48.5s2.5 37.5 8.5 57.5
c5.33301 17.333 12.833 34.666 22.5 51.999s20.334 34.333 32.001 51s23.667 32.5 36 47.5l34.5 40.5c-21.333 -14.667 -42.5 -24.834 -63.5 -30.501s-39.833 -8.5 -56.5 -8.5c-13.333 -32.667 -28.5 -66.334 -45.5 -101.001s-35.667 -66.334 -56 -95.001
s-42.666 -52.667 -66.999 -72s-49.833 -30.333 -76.5 -33c-28 -2.66699 -49.167 4 -63.5 20s-20.833 37 -19.5 63c-16.667 -20 -35.834 -38.167 -57.501 -54.5s-44.834 -24.5 -69.501 -24.5c-23.333 0 -41.666 7.16699 -54.999 21.5s-21.5 33 -24.5 56s-0.5 49.333 7.5 79
s22.333 59.5 43 89.5c20 28.667 39.667 53.167 59 73.5s38 37 56 50s35 22.333 51 28s30.333 8.5 43 8.5c20 0 35 -6.33301 45 -19s15 -27.667 15 -45c7.33301 12.667 14.166 23.5 20.499 32.5l14.5 20.5c8.66699 12 16.667 14 24 6s12.166 -22 14.499 -42
s-2.5 -42.667 -14.5 -68c-5.33301 -11.333 -12.166 -24.333 -20.499 -39l-26 -45c-9 -15.333 -17.667 -30.833 -26 -46.5s-15.5 -30.167 -21.5 -43.5c-12.667 -28 -17.834 -50.5 -15.501 -67.5s11.5 -24.5 27.5 -22.5s32.833 10.833 50.5 26.5s35.334 36 53.001 61
s34.834 53.833 51.501 86.5s31.667 67 45 103c-13.333 4.66699 -22.166 12 -26.499 22s-5.66602 21 -3.99902 33s5.83398 24.5 12.501 37.5s14.167 24.833 22.5 35.5s17.166 19.5 26.499 26.5s17.333 10.833 24 11.5c8 0.666992 13.5 -2.5 16.5 -9.5
s4.33301 -16.167 4 -27.5s-2.33301 -24.666 -6 -39.999s-8.16699 -31.333 -13.5 -48c17.333 2 35.166 7 53.499 15s37.166 18.667 56.499 32c6 4 11.5 6.83301 16.5 8.5s9.5 -0.166016 13.5 -5.49902c4.66699 -6 9.5 -13.167 14.5 -21.5s8.66699 -17.166 11 -26.499
s2.83301 -18.833 1.5 -28.5s-5.66602 -18.5 -12.999 -26.5c-24 -26.667 -46.667 -55.667 -68 -87s-36.666 -60 -45.999 -86z" />
    <glyph glyph-name="dieresis" unicode="&#xa8;" horiz-adv-x="161" 
d="M1 718c5.33301 10 12.332 18.167 20.999 24.5s16.667 7.83301 24 4.5c8 -3.33301 13.333 -9.66602 16 -18.999s1.33398 -19.333 -3.99902 -30s-12.333 -19 -21 -25s-17 -7.33301 -25 -4s-13.167 9.66602 -15.5 18.999s-0.833008 19.333 4.5 30zM113.999 720
c5.33301 11.333 12.333 19.6689 21 25.002s17.334 6.66602 26.001 3.99902c8 -2.66699 13.167 -8.83398 15.5 -18.501s1.16602 -20.167 -3.50098 -31.5c-4 -10 -10.667 -18 -20 -24s-18 -7.66699 -26 -5s-13.5 9 -16.5 19s-1.83301 20.333 3.5 31z" />
    <glyph glyph-name="copyright" unicode="&#xa9;" horiz-adv-x="550" 
d="M495 612c28 -12 48.8301 -29.001 62.4971 -51.001s22 -46.333 25 -73s1.33301 -54.167 -5 -82.5s-15.5 -54.833 -27.5 -79.5c-12 -25.333 -26.667 -47.833 -44 -67.5s-36 -36.334 -56 -50.001s-41.333 -24 -64 -31s-45.334 -9.83301 -68.001 -8.5
c-29.333 1.33301 -53.666 8.33301 -72.999 21s-32.833 29.334 -40.5 50.001s-9.5 44.167 -5.5 70.5s14.667 53.5 32 81.5c16 26.667 33 49.667 51 69s35.833 34.5 53.5 45.5s34.167 17.833 49.5 20.5s28.333 0.666992 39 -6c21.333 -13.333 36.333 -29.666 45 -48.999
c4 -9.33301 5.16699 -19.166 3.5 -29.499s-4.83398 -21.166 -9.50098 -32.499s-10.167 -23 -16.5 -35s-11.833 -23.667 -16.5 -35c-2.66699 -5.33301 -5 -8.83301 -7 -10.5s-6 -0.833984 -12 2.49902c-10 5.33301 -17 14.5 -21 27.5s-2.33301 28.833 5 47.5
c2.66699 8 6 15.833 10 23.5s7.5 15 10.5 22s5 13 6 18s0.166992 8.5 -2.5 10.5c-4 2.66699 -10.5 2 -19.5 -2s-19.167 -11 -30.5 -21s-23.166 -22.5 -35.499 -37.5s-24.166 -32.167 -35.499 -51.5c-14 -24 -23.5 -46.167 -28.5 -66.5s-6.5 -38 -4.5 -53
s7.33301 -26.833 16 -35.5s19.667 -13.334 33 -14.001c17.333 -1.33301 34.333 1.5 51 8.5s32.667 16.833 48 29.5s29.666 27.667 42.999 45s25 36 35 56c8.66699 16.667 16.834 36.834 24.501 60.501s12.334 47.5 14.001 71.5s-0.666016 46.333 -6.99902 67
s-19.166 36.334 -38.499 47.001c-16.667 9.33301 -36.834 13.5 -60.501 12.5s-48.5 -7.33301 -74.5 -19s-52 -28.5 -78 -50.5s-49.667 -49.333 -71 -82c-21.333 -32 -36.833 -64.667 -46.5 -98s-14.167 -64.5 -13.5 -93.5s6 -54.833 16 -77.5s24.333 -39.334 43 -50.001
c14.667 -8.66699 30 -14.167 46 -16.5s31.833 -2.5 47.5 -0.5s30.834 5.83301 45.501 11.5s28 12.5 40 20.5c4.66699 3.33301 8.16699 4.83301 10.5 4.5s3.16602 -3.83301 2.49902 -10.5c-0.666992 -7.33301 -4.16699 -15.833 -10.5 -25.5s-18.166 -18.167 -35.499 -25.5
c-27.333 -11.333 -55 -15.333 -83 -12s-54.333 12.333 -79 27c-32.667 19.333 -56.667 43.666 -72 72.999s-23.666 62 -24.999 98c-2 46.667 6.16699 91.167 24.5 133.5s41.666 80 69.999 113s59 60.333 92 82s63.167 35.5 90.5 41.5c30 6.66699 56.167 7 78.5 1
s40.166 -16 53.499 -30z" />
    <glyph glyph-name="ordfeminine" unicode="&#xaa;" horiz-adv-x="633" 
d="M248 218c-19.333 11.333 -34.835 26 -46.502 44s-17.834 36 -18.501 54c-13.333 -11.333 -26.666 -25 -39.999 -41s-25.666 -33.667 -36.999 -53c-10.667 -19.333 -19.5 -39 -26.5 -59s-12 -38.667 -15 -56s-3.66699 -32.666 -2 -45.999s5.83398 -23 12.501 -29
c13.333 -11.333 33.333 -8.33301 60 9s52.667 49 78 95c8 15.333 15 29.666 21 42.999s10.667 26.333 14 39zM256.998 247c3.33301 14.667 5.33301 27.833 6 39.5s0.333984 21.834 -0.999023 30.501c-1.33301 8 -3.33301 13.667 -6 17s-5.66699 4.66602 -9 3.99902
s-6.5 -3.16699 -9.5 -7.5s-4.83301 -10.166 -5.5 -17.499c-1.33301 -12.667 0.166992 -24.834 4.5 -36.501s11.166 -21.5 20.499 -29.5zM655.998 84.999c-6.66699 -15.333 -15.1748 -29.333 -25.5078 -42s-21.666 -23.667 -33.999 -33s-25.333 -16.5 -39 -21.5
s-27.5 -7.16699 -41.5 -6.5c-19.333 0.666992 -35.666 5.33398 -48.999 14.001s-23.5 19.834 -30.5 33.501s-10.833 29.5 -11.5 47.5s2 37.333 8 58c4.66699 16.667 12 33.667 22 51s20.833 34.166 32.5 50.499s23.667 32.166 36 47.499s23.833 29 34.5 41
c-22.667 -14.667 -44.5 -24.834 -65.5 -30.501s-39.5 -8.5 -55.5 -8.5c-14 -22.667 -31.167 -41.5 -51.5 -56.5s-44.5 -23.167 -72.5 -24.5c-5.33301 -21.333 -12.833 -43.166 -22.5 -65.499s-21.334 -43.333 -35.001 -63s-28.834 -37 -45.501 -52
s-34.334 -25.5 -53.001 -31.5c-9.33301 -3.33301 -19.333 -5.33301 -30 -6s-21.5 0.333008 -32.5 3s-22 7.66699 -33 15s-21.5 17.666 -31.5 30.999c-21.333 30 -29.5 65 -24.5 105s18.167 80 39.5 120c9.33301 17.333 20.166 33.666 32.499 48.999s25.5 28.666 39.5 39.999
s28.5 20.666 43.5 27.999s30.167 11.666 45.5 12.999s27.666 -0.666992 36.999 -6s19.333 -14.666 30 -27.999c6 -8 12.167 -14.667 18.5 -20s11.833 -11.666 16.5 -18.999s8.33398 -16.5 11.001 -27.5s3.33398 -25.5 2.00098 -43.5c0 -2.66699 -0.333008 -5.16699 -1 -7.5
s-1 -5.16602 -1 -8.49902c14 2.66699 27.833 8.83398 41.5 18.501s25.834 24.167 36.501 43.5c-12.667 5.33301 -20.667 13.166 -24 23.499s-3.66602 21.5 -0.999023 33.5s7.5 24.333 14.5 37s14.833 24.334 23.5 35.001s17.667 19.334 27 26.001s17.333 10 24 10
c8.66699 0 14.334 -4 17.001 -12s3.33398 -18.167 2.00098 -30.5s-4.16602 -25.833 -8.49902 -40.5s-8.83301 -28.667 -13.5 -42c17.333 2.66699 34.833 8 52.5 16s36.167 18.667 55.5 32c6.66699 4.66699 12.334 7.5 17.001 8.5s9 -1.16699 13 -6.5
c4.66699 -5.33301 9.33398 -12 14.001 -20s8.16699 -16.667 10.5 -26s2.83301 -18.833 1.5 -28.5s-5.66602 -18.834 -12.999 -27.501c-12 -13.333 -23.667 -27.333 -35 -42s-22 -29.667 -32 -45s-19 -30.333 -27 -45s-14.333 -28.667 -19 -42
c-9.33301 -28 -11.5 -50.667 -6.5 -68s15.5 -26.666 31.5 -27.999c10 -0.666992 20.5 2.66602 31.5 9.99902s22 17.333 33 30s21.5 27.5 31.5 44.5s19 34.5 27 52.5c2 4.66699 4.5 7.33398 7.5 8.00098s5.5 -1.33301 7.5 -6c2.66699 -6 4.33398 -15 5.00098 -27
s-2 -24.667 -8 -38z" />
    <glyph glyph-name="guillemotleft" unicode="&#xab;" horiz-adv-x="541" 
d="M265 -96c-32.667 -18.667 -59.999 -40.335 -81.999 -65.002s-39.333 -48.667 -52 -72s-20.834 -44.166 -24.501 -62.499s-3.16699 -30.5 1.5 -36.5c4 -4.66699 11.5 -2 22.5 8s23.833 25.833 38.5 47.5s30.5 47.834 47.5 78.501s33.167 64.667 48.5 102zM250.001 221.999
c-18 9.33301 -33.3359 22.6631 -46.0029 39.9961s-19.334 35.666 -20.001 54.999c-13.333 -11.333 -26.666 -25.166 -39.999 -41.499s-25.666 -34.166 -36.999 -53.499c-10.667 -18.667 -19.5 -38 -26.5 -58s-12 -38.833 -15 -56.5s-3.66699 -33.167 -2 -46.5
s5.5 -22.666 11.5 -27.999c6.66699 -6 15.334 -8.33301 26.001 -7s22.334 6.33301 35.001 15s25.667 20.834 39 36.501s26 34.834 38 57.501c16.667 32 29 61 37 87zM256.998 246.996c3.33301 14 5.50195 26.834 6.50195 38.501s0.833008 22.167 -0.5 31.5
c-2 16 -6.83301 23.333 -14.5 22s-12.834 -9.66602 -15.501 -24.999c-2 -10.667 -0.833008 -22.334 3.5 -35.001s11.166 -23.334 20.499 -32.001zM578 149.997c1.33301 -3.33301 1.1709 -10.498 -0.496094 -21.498s-6.5 -23.167 -14.5 -36.5
c-20 -34.667 -48.5 -64.334 -85.5 -89.001s-78.167 -46 -123.5 -64l-45 -103c-16 -35.333 -32.833 -68.333 -50.5 -99s-36 -57.167 -55 -79.5s-38.5 -37.166 -58.5 -44.499c-9.33301 -3.33301 -18.833 -4.5 -28.5 -3.5s-19.167 8.16699 -28.5 21.5
c-5.33301 8 -10.333 16.333 -15 25s-8.33398 18 -11.001 28s-4 20.833 -4 32.5s2.33301 24.834 7 39.501c14.667 46 42 85 82 117s85.333 56.667 136 74c20 48.667 41.333 98 64 148s45 96.667 67 140c-30 -22 -63.333 -32 -100 -30
c-5.33301 -21.333 -12.833 -43.166 -22.5 -65.499s-21.334 -43.333 -35.001 -63s-29 -37 -46 -52s-34.833 -25.5 -53.5 -31.5c-9.33301 -3.33301 -19.333 -5.33301 -30 -6s-21.5 0.333008 -32.5 3s-22 7.5 -33 14.5s-21.5 17.167 -31.5 30.5
c-21.333 30 -29.5 65.167 -24.5 105.5s18.833 80.166 41.5 119.499c10 16.667 21 32.834 33 48.501s24.833 29.334 38.5 41.001s27.667 21.167 42 28.5s29.166 11.333 44.499 12c16 1.33301 29 -0.333984 39 -5.00098s20 -14 30 -28c6 -8 12 -14.833 18 -20.5
s11.5 -12 16.5 -19s8.83301 -16 11.5 -27s3.33398 -25.5 2.00098 -43.5c0 -2.66699 -0.333008 -5.5 -1 -8.5s-1.33398 -5.83301 -2.00098 -8.5c15.333 0 30.5 3.83301 45.5 11.5s29.833 18.167 44.5 31.5s28.834 28.666 42.501 45.999s27.167 35.666 40.5 54.999
c4.66699 6.66699 9 11 13 13s8 0.333008 12 -5c7.33301 -8.66699 11.5 -22.834 12.5 -42.501s-4.16699 -42.167 -15.5 -67.5l-27 -55l-37.5 -74.5l-41 -83.5c-13.667 -28.667 -25.834 -55.334 -36.501 -80.001c46 24.667 83.833 51.834 113.5 81.501
s55.167 60.167 76.5 91.5c2.66699 3.33301 5.66699 5.16602 9 5.49902s5.66602 -2.16699 6.99902 -7.5zM594.005 459.999c5.33301 -13.333 6.99902 -25.833 4.99902 -37.5s-5.66699 -21.167 -11 -28.5c-7.33301 -7.33301 -16.5 -9.83301 -27.5 -7.5
s-20.5 9.83301 -28.5 22.5c-8.66699 13.333 -12.167 27 -10.5 41s6.83398 25 15.501 33c8 7.33301 18 9 30 5s21 -13.333 27 -28z" />
    <glyph glyph-name="logicalnot" unicode="&#xac;" horiz-adv-x="557" 
d="M579 85c-6 -15.333 -14.1621 -29.3369 -24.4951 -42.0039s-21.833 -23.5 -34.5 -32.5s-25.834 -16 -39.501 -21s-27.5 -7.16699 -41.5 -6.5c-19.333 0.666992 -35.5 5.16699 -48.5 13.5s-23 19.5 -30 33.5s-10.667 30 -11 48s2.5 37 8.5 57
c5.33301 16.667 12.833 33.667 22.5 51s20.334 34.333 32.001 51s23.667 32.5 36 47.5l34.5 40.5c-22.667 -14 -44.5 -23.833 -65.5 -29.5s-39.833 -8.5 -56.5 -8.5c-16.667 -38 -35.334 -75 -56.001 -111s-42.834 -68.167 -66.501 -96.5s-48.5 -51.166 -74.5 -68.499
s-52 -26 -78 -26c-16.667 0 -32.167 4.5 -46.5 13.5s-25.5 21.833 -33.5 38.5s-11.833 36.834 -11.5 60.501s6.5 49.834 18.5 78.501c4.66699 12 10.834 26.167 18.501 42.5l25.5 52.5l30 57.5l32 58.5c-16.667 0.666992 -30.334 3.83398 -41.001 9.50098
s-18.334 11.834 -23.001 18.501s-5.83398 11.834 -3.50098 15.501s7.16602 5.16699 14.499 4.5c16 -1.33301 30.667 -1.5 44 -0.5s26 2.16699 38 3.5l42.5 74.5c13 21.667 24.167 38.167 33.5 49.5c4.66699 7.33301 9.16699 10.833 13.5 10.5s7.83301 -3.83301 10.5 -10.5
c5.33301 -13.333 7.33301 -29.166 6 -47.499s-8 -40.833 -20 -67.5c16 -1.33301 28.833 -5.5 38.5 -12.5s16.834 -14.5 21.501 -22.5c6 -11.333 1.33301 -16.333 -14 -15c-10 0.666992 -21.167 1 -33.5 1s-25.166 -0.666992 -38.499 -2l-32.5 -56l-35.5 -62l-35.5 -65.5
c-11.667 -22.333 -22.167 -43.833 -31.5 -64.5c-8.66699 -18.667 -14.334 -36.334 -17.001 -53.001s-2.83398 -31 -0.500977 -43s6.83301 -21.5 13.5 -28.5s15 -10.5 25 -10.5c14.667 0.666992 32 8.33398 52 23.001s40.333 34.5 61 59.5s41 54.5 61 88.5
s37.667 70.333 53 109c-12.667 4.66699 -20.834 12.167 -24.501 22.5s-4.16699 21.666 -1.5 33.999s7.5 24.833 14.5 37.5s15 24.5 24 35.5s18.167 19.833 27.5 26.5s17.333 10.334 24 11.001c8 0.666992 13.667 -2.5 17 -9.5s4.5 -16.333 3.5 -28
s-3.66699 -25.167 -8 -40.5s-9.83301 -31 -16.5 -47c17.333 1.33301 35.166 6.16602 53.499 14.499s36.833 18.833 55.5 31.5c12.667 10 22.334 10.667 29.001 2c4.66699 -5.33301 9.5 -12 14.5 -20s8.83301 -16.5 11.5 -25.5s3.33398 -18.333 2.00098 -28
s-5.66602 -18.834 -12.999 -27.501c-24 -27.333 -47 -56.5 -69 -87.5s-37.333 -59.833 -46 -86.5c-9.33301 -28 -11.333 -50.833 -6 -68.5s15.666 -26.834 30.999 -27.501c10 -0.666992 20.667 2.66602 32 9.99902s22.5 17.333 33.5 30s21.667 27.5 32 44.5
s19.5 34.833 27.5 53.5c2 4 4.5 6.33301 7.5 7s5.5 -1.66602 7.5 -6.99902c2.66699 -6 4 -14.833 4 -26.5s-3 -24.5 -9 -38.5z" />
    <glyph glyph-name="registered" unicode="&#xae;" horiz-adv-x="567" 
d="M455 481c-2 4.66699 -6 7.33301 -12 8s-13.167 0 -21.5 -2s-17.333 -4.83301 -27 -8.5s-18.834 -6.83398 -27.501 -9.50098l-33.5 -52.5l-35.5 -58.5c24.667 6.66699 47.334 15.334 68.001 26.001s38 22 52 34s24.333 23.5 31 34.5s8.66699 20.5 6 28.5zM563 323.999
c-19.333 -46 -44.1709 -80.1689 -74.5039 -102.502s-60.833 -33.5 -91.5 -33.5c-30 0 -56.5 9.83301 -79.5 29.5s-39.5 48.834 -49.5 87.501c-10 -18 -19.5 -36 -28.5 -54l-26.5 -53c-2 -4.66699 -4.5 -7.16699 -7.5 -7.5s-5.83301 1.16699 -8.5 4.5
c-5.33301 7.33301 -9.33301 17.666 -12 30.999s0.666016 32.333 9.99902 57c8 21.333 20.667 48.333 38 81s37.333 67.667 60 105c-3.33301 2.66699 -6.83301 5.83398 -10.5 9.50098s-7.16699 8.5 -10.5 14.5c-2.66699 5.33301 -3.16699 8.83301 -1.5 10.5
s4.83398 3.16699 9.50098 4.5c12 2 23.667 5 35 9s22.5 8.16699 33.5 12.5s21.833 8.16602 32.5 11.499s21 5 31 5c15.333 0.666992 30 -3 44 -11s24.667 -22 32 -42c6.66699 -19.333 7.83398 -37.666 3.50098 -54.999s-12.166 -33.666 -23.499 -48.999
c-6.66699 -8.66699 -15.167 -17.167 -25.5 -25.5s-21.5 -16.166 -33.5 -23.499s-24.833 -14 -38.5 -20s-26.834 -10.667 -39.501 -14c7.33301 -28 17.5 -49.333 30.5 -64s25.833 -22.334 38.5 -23.001c6.66699 0 14.334 1.83301 23.001 5.5s17.667 10 27 19
s18.833 20.833 28.5 35.5s19.5 32.667 29.5 54c13.333 29.333 21.833 57.666 25.5 84.999s3.5 52.166 -0.5 74.499s-11.333 41.666 -22 57.999s-24 27.833 -40 34.5c-17.333 7.33301 -37.333 9.83301 -60 7.5s-46.5 -9.33301 -71.5 -21s-50.167 -28.167 -75.5 -49.5
s-49 -47.333 -71 -78c-22.667 -31.333 -39.334 -63.5 -50.001 -96.5s-16.167 -64 -16.5 -93s4.33398 -54.5 14.001 -76.5s23.834 -38 42.501 -48c14 -7.33301 29 -11.5 45 -12.5s32 0.166992 48 3.5s31.167 8.5 45.5 15.5s26.5 15.167 36.5 24.5
c10 8.66699 15 7.66699 15 -3c0 -7.33301 -2.66699 -16.666 -8 -27.999s-16 -21.666 -32 -30.999c-14 -8 -28.333 -13.333 -43 -16s-28.834 -3.5 -42.501 -2.5s-26.334 3 -38.001 6s-21.167 6.16699 -28.5 9.5c-39.333 17.333 -67.166 42 -83.499 74s-24.5 66.333 -24.5 103
c0 31.333 4.5 61.5 13.5 90.5s20.833 56.333 35.5 82s31.834 49.167 51.501 70.5s40.167 40.333 61.5 57s42.666 30.334 63.999 41.001s41 18 59 22c32 6.66699 58.667 7 80 1s39 -15.667 53 -29c28 -12.667 49.333 -30 64 -52s24.334 -46.167 29.001 -72.5
s4.83398 -53.5 0.500977 -81.5s-11.5 -54 -21.5 -78z" />
    <glyph glyph-name="macron" unicode="&#xaf;" horiz-adv-x="748" 
d="M477 -72c-32.667 -19.333 -60.168 -41.3311 -82.501 -65.998s-39.666 -48.834 -51.999 -72.501s-20.333 -44.667 -24 -63s-3.16699 -30.5 1.5 -36.5c3.33301 -4.66699 10.5 -1.83398 21.5 8.49902s24 26.333 39 48s31 48 48 79s33.167 65.167 48.5 102.5z
M249.999 221.002c-17.333 9.33301 -32.3311 22.6689 -44.998 40.002s-19.334 35.666 -20.001 54.999c-14 -11.333 -27.833 -25.166 -41.5 -41.499s-26.167 -34.166 -37.5 -53.499c-10.667 -18.667 -19.5 -38 -26.5 -58s-11.833 -38.833 -14.5 -56.5s-3.16699 -33 -1.5 -46
s5.83398 -22.167 12.501 -27.5c13.333 -12 33.166 -9.33301 59.499 8s52.166 48.666 77.499 93.999c8.66699 15.333 16 30.166 22 44.499s11 28.166 15 41.499zM257.001 246.005c6 29.333 8 52.666 6 69.999c-2.66699 16.667 -7.83398 24.334 -15.501 23.001
s-12.5 -9.66602 -14.5 -24.999c-1.33301 -10.667 -0.166016 -22.334 3.50098 -35.001s10.5 -23.667 20.5 -33zM777.001 154.005c1.33301 -4.66699 0.662109 -12.1689 -2.00488 -22.502s-8.33398 -22.166 -17.001 -35.499c-19.333 -31.333 -45.5 -57.166 -78.5 -77.499
s-70.5 -38.833 -112.5 -55.5c-14 -34 -29 -68.667 -45 -104s-32.833 -68.333 -50.5 -99s-36.167 -57.167 -55.5 -79.5s-39 -37.5 -59 -45.5c-10 -4 -19.667 -5 -29 -3s-18.666 9.66699 -27.999 23c-5.33301 8 -10.333 16.167 -15 24.5s-8 17.5 -10 27.5
s-2.83301 20.833 -2.5 32.5s2.83301 24.834 7.5 39.501c6.66699 22.667 17 43.5 31 62.5s30.333 36.333 49 52s39.334 29.667 62.001 42s46.334 23.5 71.001 33.5c5.33301 12 10.333 23.833 15 35.5l15 36.5c-15.333 -16 -32.166 -29.667 -50.499 -41s-37.5 -16 -57.5 -14
c-18 2 -31.833 7.5 -41.5 16.5s-16.167 20.333 -19.5 34s-4 28.667 -2 45s5.66699 32.833 11 49.5c4.66699 13.333 10.834 28.5 18.501 45.5s16.167 34.833 25.5 53.5c-28.667 -18.667 -59.334 -27 -92.001 -25c-5.33301 -21.333 -13.166 -43.333 -23.499 -66
s-22.333 -43.834 -36 -63.501s-28.834 -36.834 -45.501 -51.501s-34.334 -25 -53.001 -31c-9.33301 -3.33301 -19.333 -5.33301 -30 -6s-21.5 0.333008 -32.5 3s-21.833 7.5 -32.5 14.5s-21 17.167 -31 30.5c-22 30 -30.5 65 -25.5 105s18.833 80 41.5 120
c10 17.333 21 33.666 33 48.999s24.833 28.833 38.5 40.5s27.834 21 42.501 28s29.667 11.167 45 12.5s27.666 -0.666992 36.999 -6s19.333 -14.666 30 -27.999c6 -8 12.167 -14.667 18.5 -20s11.833 -11.666 16.5 -18.999s8.33398 -16.333 11.001 -27
s3.33398 -25.334 2.00098 -44.001c0 -2.66699 -0.166992 -5.16699 -0.5 -7.5s-0.5 -5.16602 -0.5 -8.49902c16.667 0.666992 32.834 5.33398 48.501 14.001s31 20 46 34s29.667 30 44 48s28.166 37 41.499 57c8.66699 12.667 17.334 13 26.001 1
c11.333 -15.333 15.5 -33.833 12.5 -55.5s-13.5 -47.5 -31.5 -77.5l-44.5 -77c-12.333 -22 -23.166 -45.333 -32.499 -70s-13.833 -44.834 -13.5 -60.501s5.83301 -24.167 16.5 -25.5c20 -1.33301 42.167 12 66.5 40s49.5 64 75.5 108l32.5 58l31.5 58.5l29.5 54.5
c9.66699 17.333 18.834 32.666 27.501 45.999c8.66699 12.667 16.667 14.334 24 5.00098c7.33301 -8.66699 11.833 -22.834 13.5 -42.501s-3.83301 -42.167 -16.5 -67.5l-27.5 -54.5l-34.5 -69.5l-37 -76l-35 -75c40 20.667 74.5 44.334 103.5 71.001s53.5 54 73.5 82
c3.33301 4 6.66602 6 9.99902 6s5.66602 -2.66699 6.99902 -8z" />
    <glyph glyph-name="macron" unicode="&#x2c9;" horiz-adv-x="748" 
d="M477 -72c-32.667 -19.333 -60.168 -41.3311 -82.501 -65.998s-39.666 -48.834 -51.999 -72.501s-20.333 -44.667 -24 -63s-3.16699 -30.5 1.5 -36.5c3.33301 -4.66699 10.5 -1.83398 21.5 8.49902s24 26.333 39 48s31 48 48 79s33.167 65.167 48.5 102.5z
M249.999 221.002c-17.333 9.33301 -32.3311 22.6689 -44.998 40.002s-19.334 35.666 -20.001 54.999c-14 -11.333 -27.833 -25.166 -41.5 -41.499s-26.167 -34.166 -37.5 -53.499c-10.667 -18.667 -19.5 -38 -26.5 -58s-11.833 -38.833 -14.5 -56.5s-3.16699 -33 -1.5 -46
s5.83398 -22.167 12.501 -27.5c13.333 -12 33.166 -9.33301 59.499 8s52.166 48.666 77.499 93.999c8.66699 15.333 16 30.166 22 44.499s11 28.166 15 41.499zM257.001 246.005c6 29.333 8 52.666 6 69.999c-2.66699 16.667 -7.83398 24.334 -15.501 23.001
s-12.5 -9.66602 -14.5 -24.999c-1.33301 -10.667 -0.166016 -22.334 3.50098 -35.001s10.5 -23.667 20.5 -33zM777.001 154.005c1.33301 -4.66699 0.662109 -12.1689 -2.00488 -22.502s-8.33398 -22.166 -17.001 -35.499c-19.333 -31.333 -45.5 -57.166 -78.5 -77.499
s-70.5 -38.833 -112.5 -55.5c-14 -34 -29 -68.667 -45 -104s-32.833 -68.333 -50.5 -99s-36.167 -57.167 -55.5 -79.5s-39 -37.5 -59 -45.5c-10 -4 -19.667 -5 -29 -3s-18.666 9.66699 -27.999 23c-5.33301 8 -10.333 16.167 -15 24.5s-8 17.5 -10 27.5
s-2.83301 20.833 -2.5 32.5s2.83301 24.834 7.5 39.501c6.66699 22.667 17 43.5 31 62.5s30.333 36.333 49 52s39.334 29.667 62.001 42s46.334 23.5 71.001 33.5c5.33301 12 10.333 23.833 15 35.5l15 36.5c-15.333 -16 -32.166 -29.667 -50.499 -41s-37.5 -16 -57.5 -14
c-18 2 -31.833 7.5 -41.5 16.5s-16.167 20.333 -19.5 34s-4 28.667 -2 45s5.66699 32.833 11 49.5c4.66699 13.333 10.834 28.5 18.501 45.5s16.167 34.833 25.5 53.5c-28.667 -18.667 -59.334 -27 -92.001 -25c-5.33301 -21.333 -13.166 -43.333 -23.499 -66
s-22.333 -43.834 -36 -63.501s-28.834 -36.834 -45.501 -51.501s-34.334 -25 -53.001 -31c-9.33301 -3.33301 -19.333 -5.33301 -30 -6s-21.5 0.333008 -32.5 3s-21.833 7.5 -32.5 14.5s-21 17.167 -31 30.5c-22 30 -30.5 65 -25.5 105s18.833 80 41.5 120
c10 17.333 21 33.666 33 48.999s24.833 28.833 38.5 40.5s27.834 21 42.501 28s29.667 11.167 45 12.5s27.666 -0.666992 36.999 -6s19.333 -14.666 30 -27.999c6 -8 12.167 -14.667 18.5 -20s11.833 -11.666 16.5 -18.999s8.33398 -16.333 11.001 -27
s3.33398 -25.334 2.00098 -44.001c0 -2.66699 -0.166992 -5.16699 -0.5 -7.5s-0.5 -5.16602 -0.5 -8.49902c16.667 0.666992 32.834 5.33398 48.501 14.001s31 20 46 34s29.667 30 44 48s28.166 37 41.499 57c8.66699 12.667 17.334 13 26.001 1
c11.333 -15.333 15.5 -33.833 12.5 -55.5s-13.5 -47.5 -31.5 -77.5l-44.5 -77c-12.333 -22 -23.166 -45.333 -32.499 -70s-13.833 -44.834 -13.5 -60.501s5.83301 -24.167 16.5 -25.5c20 -1.33301 42.167 12 66.5 40s49.5 64 75.5 108l32.5 58l31.5 58.5l29.5 54.5
c9.66699 17.333 18.834 32.666 27.501 45.999c8.66699 12.667 16.667 14.334 24 5.00098c7.33301 -8.66699 11.833 -22.834 13.5 -42.501s-3.83301 -42.167 -16.5 -67.5l-27.5 -54.5l-34.5 -69.5l-37 -76l-35 -75c40 20.667 74.5 44.334 103.5 71.001s53.5 54 73.5 82
c3.33301 4 6.66602 6 9.99902 6s5.66602 -2.66699 6.99902 -8z" />
    <glyph glyph-name="degree" unicode="&#xb0;" horiz-adv-x="302" 
d="M285 565c-3.33301 4 -8.16602 5.33789 -14.499 4.00488s-13.166 -4.83301 -20.499 -10.5s-15 -12.834 -23 -21.501s-15 -18.334 -21 -29.001c-6 -10 -11 -20.5 -15 -31.5s-6.83301 -21.5 -8.5 -31.5s-2.33398 -19 -2.00098 -27s2.16602 -13.667 5.49902 -17
c7.33301 -7.33301 17.666 -6.33301 30.999 3s27 25.666 41 48.999c6.66699 12 12.334 24 17.001 36s8.16699 23.167 10.5 33.5s3.5 19.166 3.5 26.499s-1.33301 12.666 -4 15.999zM258 613.005c8.66699 0 17.665 -2.16797 26.998 -6.50098s18.333 -12.166 27 -23.499
s15 -22.833 19 -34.5s5.33301 -25.167 4 -40.5c-0.666992 -15.333 -3.83398 -31.333 -9.50098 -48s-13.167 -32 -22.5 -46s-20.166 -26.167 -32.499 -36.5s-25.833 -16.833 -40.5 -19.5c-11.333 -2 -24.166 -1 -38.499 3s-27.5 14.667 -39.5 32
c-13.333 19.333 -19.166 42.333 -17.499 69s9.16699 52.667 22.5 78c12 23.333 27 41.333 45 54s36.667 19 56 19z" />
    <glyph glyph-name="plusminus" unicode="&#xb1;" horiz-adv-x="956" 
d="M249 219c-19.333 10 -35.001 23.9951 -47.001 41.9951s-18.333 36.667 -19 56c-13.333 -11.333 -26.5 -25.166 -39.5 -41.499s-25.167 -34.166 -36.5 -53.499c-10.667 -18.667 -19.5 -38 -26.5 -58s-12 -38.667 -15 -56s-3.66699 -32.666 -2 -45.999
s5.83398 -23 12.501 -29s15.334 -8.33301 26.001 -7s22.167 6.33301 34.5 15s25.166 20.834 38.499 36.501s26 34.834 38 57.501c8 15.333 15 30 21 44s11 27.333 15 40zM256.999 247.995c6 28.667 8 51.668 6 69.001c-2 16 -7 23.167 -15 21.5s-13 -10.167 -15 -25.5
c-1.33301 -12.667 0 -24.834 4 -36.501s10.667 -21.167 20 -28.5zM495.999 107.996c-9.33301 -28 -11.8398 -51.0088 -7.50684 -69.0088s15.5 -27 33.5 -27c14.667 0 30.834 7.83301 48.501 23.5s35.5 36.667 53.5 63s35.5 56.333 52.5 90s32.167 68.5 45.5 104.5
c-13.333 4.66699 -22.166 12 -26.499 22s-5.5 21.167 -3.5 33.5s6.16699 24.833 12.5 37.5s13.833 24.5 22.5 35.5s17.5 19.833 26.5 26.5s16.833 10.334 23.5 11.001c8 0.666992 13.5 -2.5 16.5 -9.5s4.33301 -16.167 4 -27.5s-2.16602 -24.666 -5.49902 -39.999
s-8 -31.333 -14 -48c17.333 2 35.166 7.16699 53.499 15.5s37.166 19.166 56.499 32.499c6.66699 4.66699 12.167 7.5 16.5 8.5s8.83301 -1.16699 13.5 -6.5s9.5 -12.166 14.5 -20.499s8.66699 -17 11 -26s2.83301 -18.333 1.5 -28s-5.66602 -18.834 -12.999 -27.501
c-24 -27.333 -46.667 -56.666 -68 -87.999s-36.666 -60 -45.999 -86c-9.33301 -28 -11.333 -50.667 -6 -68s15.666 -26.666 30.999 -27.999c10 -0.666992 20.5 2.5 31.5 9.5s22 16.833 33 29.5s21.667 27.5 32 44.5s19.5 34.833 27.5 53.5c2 4.66699 4.5 7.16699 7.5 7.5
s5.5 -1.83398 7.5 -6.50098c2.66699 -6 4.16699 -14.833 4.5 -26.5s-2.5 -24.5 -8.5 -38.5c-6.66699 -15.333 -15 -29.333 -25 -42s-21.333 -23.5 -34 -32.5s-25.834 -16 -39.501 -21s-27.5 -7.16699 -41.5 -6.5c-19.333 0.666992 -35.5 5.33398 -48.5 14.001
s-23 19.667 -30 33s-10.833 29 -11.5 47s2 37 8 57c5.33301 17.333 12.833 34.833 22.5 52.5s20.334 34.667 32.001 51s23.667 32 36 47l34.5 40.5c-22 -14 -43.5 -23.833 -64.5 -29.5s-39.5 -8.5 -55.5 -8.5c-13.333 -33.333 -28.666 -67.833 -45.999 -103.5
s-36.333 -68.334 -57 -98.001s-42.834 -54.167 -66.501 -73.5s-48.834 -29.333 -75.501 -30c-19.333 -0.666992 -35.666 3.16602 -48.999 11.499s-23.5 19.5 -30.5 33.5s-10.667 30.333 -11 49s2.5 38 8.5 58c5.33301 16.667 12.833 33.834 22.5 51.501
s20.334 34.834 32.001 51.501s23.667 32.334 36 47.001l34.5 40c-22.667 -14.667 -44.667 -24.5 -66 -29.5s-40 -7.5 -56 -7.5c-14 -23.333 -31 -42.666 -51 -57.999s-44 -23.666 -72 -24.999c-5.33301 -21.333 -13 -43.166 -23 -65.499s-21.833 -43.333 -35.5 -63
s-28.834 -36.834 -45.501 -51.501s-34.334 -25 -53.001 -31c-9.33301 -3.33301 -19.333 -5.33301 -30 -6s-21.5 0.333008 -32.5 3s-22 7.5 -33 14.5s-21.5 17.167 -31.5 30.5c-21.333 30 -29.5 65.167 -24.5 105.5s18.833 80.166 41.5 119.499
c10 16.667 21.167 32.834 33.5 48.501s25.166 29.334 38.499 41.001s27.333 21.167 42 28.5s29.667 11.333 45 12c15.333 1.33301 28 -0.333984 38 -5.00098s20 -14 30 -28c6 -8 12 -14.833 18 -20.5s11.5 -12 16.5 -19s8.83301 -16 11.5 -27s3.33398 -25.5 2.00098 -43.5
c0 -5.33301 -1 -10.333 -3 -15c14 1.33301 28 7 42 17s26 24.667 36 44c-12.667 5.33301 -20.667 13 -24 23s-3.66602 21.167 -0.999023 33.5s7.5 24.833 14.5 37.5s15 24.334 24 35.001s18.167 19.334 27.5 26.001s17.333 10 24 10c8.66699 0 14.334 -4 17.001 -12
s3.33398 -18.167 2.00098 -30.5s-4.16602 -25.833 -8.49902 -40.5s-8.83301 -28.334 -13.5 -41.001c32.667 4.66699 68.667 20 108 46c6.66699 4 12.167 6.83301 16.5 8.5s8.5 -0.166016 12.5 -5.49902c4.66699 -5.33301 9.5 -12 14.5 -20s8.83301 -16.667 11.5 -26
s3.33398 -18.833 2.00098 -28.5s-5.66602 -18.5 -12.999 -26.5c-24 -27.333 -47 -56.666 -69 -87.999s-37.333 -60 -46 -86z" />
    <glyph glyph-name="acute" unicode="&#xb4;" horiz-adv-x="179" 
d="M173 707c3.33301 -1.33301 5.49805 -3.66699 6.49805 -7s-1.16699 -6.33301 -6.5 -9l-30 -15l-31.5 -15.5l-30 -14c-9.66699 -4.33301 -17.5 -7.5 -23.5 -9.5c-11.333 -3.33301 -21.666 -5 -30.999 -5s-16.666 1.33301 -21.999 4c-8 4.66699 -8 10 0 16l48.5 31.5
c17.667 11.667 33.167 20.5 46.5 26.5s27 8 41 6s24.667 -5 32 -9z" />
    <glyph glyph-name="mu" unicode="&#xb5;" horiz-adv-x="645" 
d="M101 195c12 -7.33301 23.4971 -10.665 34.4971 -9.99805s21.5 3.66699 31.5 9s19.333 12.666 28 21.999s16.667 18.666 24 27.999c8 10 15.167 20.667 21.5 32s11.5 21.833 15.5 31.5s6.33301 18.167 7 25.5s-0.666016 12.333 -3.99902 15
c-5.33301 4.66699 -14 4.5 -26 -0.5s-25.333 -13.667 -40 -26s-29.5 -28 -44.5 -47s-28.167 -39.833 -39.5 -62.5c-1.33301 -2.66699 -2.66602 -5.5 -3.99902 -8.5s-2.66602 -5.83301 -3.99902 -8.5zM666.997 88.001c-6 -15.333 -14.1689 -29.334 -24.502 -42.001
s-21.833 -23.667 -34.5 -33s-25.834 -16.5 -39.501 -21.5s-27.5 -7.16699 -41.5 -6.5c-19.333 0.666992 -35.5 5.33398 -48.5 14.001s-23 19.834 -30 33.501s-10.667 29.667 -11 48s2.5 37.5 8.5 57.5c5.33301 16.667 12.666 33.667 21.999 51s19.833 34.166 31.5 50.499
s23.667 32 36 47l34.5 40.5c-22 -14 -43.667 -23.833 -65 -29.5s-39.666 -8.5 -54.999 -8.5c-20.667 -43.333 -42.834 -83.333 -66.501 -120s-48.667 -68.5 -75 -95.5s-53.5 -48 -81.5 -63s-57 -22.833 -87 -23.5c-32 -0.666992 -58.5 6 -79.5 20s-36 32.667 -45 56
s-12 50.166 -9 80.499s12.5 61.5 28.5 93.5c16 30.667 33.833 57.167 53.5 79.5s39.334 40 59.001 53s38.5 21.167 56.5 24.5s33.333 1.33301 46 -6s23.667 -14.833 33 -22.5s18 -17.167 26 -28.5c4 -6 6.5 -14 7.5 -24s0.166992 -21 -2.5 -33s-7.16699 -24.667 -13.5 -38
s-14.5 -26.333 -24.5 -39c-12 -15.333 -25 -28.166 -39 -38.499s-28.833 -17.166 -44.5 -20.499s-32 -2.83301 -49 1.5s-34.167 13.5 -51.5 27.5c-8 -22.667 -12.667 -43.5 -14 -62.5s0.166992 -35.5 4.5 -49.5s11.166 -25 20.499 -33s20.333 -12.333 33 -13
c27.333 -1.33301 54.5 6.5 81.5 23.5s52.5 39.333 76.5 67s46 58.167 66 91.5s37 66 51 98c-12.667 5.33301 -21 13.166 -25 23.499s-4.83301 21.5 -2.5 33.5s7 24.5 14 37.5s15 24.833 24 35.5s18.333 19.5 28 26.5s17.834 10.5 24.501 10.5c8 0 13.333 -3.33301 16 -10
s3.66699 -15.834 3 -27.501s-3.16699 -25.167 -7.5 -40.5s-9.5 -31 -15.5 -47c17.333 2.66699 35 7.83398 53 15.501s36.667 18.167 56 31.5c6 4 11.333 6.83301 16 8.5s8.66699 -0.166016 12 -5.49902c4.66699 -5.33301 9.5 -12.166 14.5 -20.499s8.83301 -17.333 11.5 -27
s3.33398 -19.334 2.00098 -29.001s-5.66602 -18.5 -12.999 -26.5c-12 -13.333 -23.833 -27.333 -35.5 -42s-22.667 -29.5 -33 -44.5s-19.666 -30 -27.999 -45s-14.5 -29.167 -18.5 -42.5c-8.66699 -28 -10.5 -50.833 -5.5 -68.5s15.167 -26.834 30.5 -27.501
c10.667 -0.666992 21.667 2.66602 33 9.99902s22.5 17.5 33.5 30.5s21.5 27.833 31.5 44.5s19 34.334 27 53.001c2 4 4.5 6.33301 7.5 7s5.5 -1.33301 7.5 -6c2.66699 -5.33301 4 -14 4 -26s-3 -25 -9 -39z" />
    <glyph glyph-name="mu" unicode="&#x3bc;" horiz-adv-x="645" 
d="M101 195c12 -7.33301 23.4971 -10.665 34.4971 -9.99805s21.5 3.66699 31.5 9s19.333 12.666 28 21.999s16.667 18.666 24 27.999c8 10 15.167 20.667 21.5 32s11.5 21.833 15.5 31.5s6.33301 18.167 7 25.5s-0.666016 12.333 -3.99902 15
c-5.33301 4.66699 -14 4.5 -26 -0.5s-25.333 -13.667 -40 -26s-29.5 -28 -44.5 -47s-28.167 -39.833 -39.5 -62.5c-1.33301 -2.66699 -2.66602 -5.5 -3.99902 -8.5s-2.66602 -5.83301 -3.99902 -8.5zM666.997 88.001c-6 -15.333 -14.1689 -29.334 -24.502 -42.001
s-21.833 -23.667 -34.5 -33s-25.834 -16.5 -39.501 -21.5s-27.5 -7.16699 -41.5 -6.5c-19.333 0.666992 -35.5 5.33398 -48.5 14.001s-23 19.834 -30 33.501s-10.667 29.667 -11 48s2.5 37.5 8.5 57.5c5.33301 16.667 12.666 33.667 21.999 51s19.833 34.166 31.5 50.499
s23.667 32 36 47l34.5 40.5c-22 -14 -43.667 -23.833 -65 -29.5s-39.666 -8.5 -54.999 -8.5c-20.667 -43.333 -42.834 -83.333 -66.501 -120s-48.667 -68.5 -75 -95.5s-53.5 -48 -81.5 -63s-57 -22.833 -87 -23.5c-32 -0.666992 -58.5 6 -79.5 20s-36 32.667 -45 56
s-12 50.166 -9 80.499s12.5 61.5 28.5 93.5c16 30.667 33.833 57.167 53.5 79.5s39.334 40 59.001 53s38.5 21.167 56.5 24.5s33.333 1.33301 46 -6s23.667 -14.833 33 -22.5s18 -17.167 26 -28.5c4 -6 6.5 -14 7.5 -24s0.166992 -21 -2.5 -33s-7.16699 -24.667 -13.5 -38
s-14.5 -26.333 -24.5 -39c-12 -15.333 -25 -28.166 -39 -38.499s-28.833 -17.166 -44.5 -20.499s-32 -2.83301 -49 1.5s-34.167 13.5 -51.5 27.5c-8 -22.667 -12.667 -43.5 -14 -62.5s0.166992 -35.5 4.5 -49.5s11.166 -25 20.499 -33s20.333 -12.333 33 -13
c27.333 -1.33301 54.5 6.5 81.5 23.5s52.5 39.333 76.5 67s46 58.167 66 91.5s37 66 51 98c-12.667 5.33301 -21 13.166 -25 23.499s-4.83301 21.5 -2.5 33.5s7 24.5 14 37.5s15 24.833 24 35.5s18.333 19.5 28 26.5s17.834 10.5 24.501 10.5c8 0 13.333 -3.33301 16 -10
s3.66699 -15.834 3 -27.501s-3.16699 -25.167 -7.5 -40.5s-9.5 -31 -15.5 -47c17.333 2.66699 35 7.83398 53 15.501s36.667 18.167 56 31.5c6 4 11.333 6.83301 16 8.5s8.66699 -0.166016 12 -5.49902c4.66699 -5.33301 9.5 -12.166 14.5 -20.499s8.83301 -17.333 11.5 -27
s3.33398 -19.334 2.00098 -29.001s-5.66602 -18.5 -12.999 -26.5c-12 -13.333 -23.833 -27.333 -35.5 -42s-22.667 -29.5 -33 -44.5s-19.666 -30 -27.999 -45s-14.5 -29.167 -18.5 -42.5c-8.66699 -28 -10.5 -50.833 -5.5 -68.5s15.167 -26.834 30.5 -27.501
c10.667 -0.666992 21.667 2.66602 33 9.99902s22.5 17.5 33.5 30.5s21.5 27.833 31.5 44.5s19 34.334 27 53.001c2 4 4.5 6.33301 7.5 7s5.5 -1.33301 7.5 -6c2.66699 -5.33301 4 -14 4 -26s-3 -25 -9 -39z" />
    <glyph glyph-name="paragraph" unicode="&#xb6;" horiz-adv-x="471" 
d="M621 551c-8.66699 0 -17.499 0.170898 -26.499 0.503906s-18.5 0.166016 -28.5 -0.500977c-1.33301 -11.333 -5 -23.666 -11 -36.999s-14 -28.666 -24 -45.999l-56 -95l-63.5 -115l-64.5 -126c-21.333 -43.333 -40.333 -86.333 -57 -129c-4 -10 -9.66699 -10.667 -17 -2
c-6.66699 7.33301 -11.167 18.666 -13.5 33.999s0.5 37 8.5 65c6.66699 23.333 18 53.166 34 89.499s34.5 75.166 55.5 116.499s43.667 83 68 125s48.5 80.667 72.5 116c-8.66699 -0.666992 -17 -1.66699 -25 -3l-25 -4l-75.5 -128.5l-78 -141.5
c-25.667 -48 -49.834 -95.5 -72.501 -142.5s-42 -90.5 -58 -130.5c-2 -5.33301 -4.66699 -8.5 -8 -9.5s-6.66602 0.833008 -9.99902 5.5c-6 7.33301 -10.5 18.833 -13.5 34.5s-0.5 37.167 7.5 64.5c5.33301 17.333 13 38.333 23 63s22 51.667 36 81
c-24 4.66699 -45 14.5 -63 29.5s-29 38.5 -33 70.5c-4 31.333 0.333008 60.5 13 87.5s30.667 51.833 54 74.5c20 19.333 43.833 36.833 71.5 52.5s57.667 28.667 90 39s66.666 18.166 102.999 23.499s73.5 7.66602 111.5 6.99902c25.333 -0.666992 45 -6.66699 59 -18
s23.333 -23.333 28 -36c1.33301 -4 1.5 -7.5 0.5 -10.5s-5.16699 -4.5 -12.5 -4.5z" />
    <glyph glyph-name="periodcentered" unicode="&#xb7;" horiz-adv-x="151" 
d="M130 246c-8.66699 -15.333 -18.8301 -25.1709 -30.4971 -29.5039s-22.167 -4.16602 -31.5 0.500977c-10 4.66699 -16.5 13.334 -19.5 26.001s-0.833008 26.334 6.5 41.001c7.33301 13.333 17.666 22.833 30.999 28.5s24.333 6.83398 33 3.50098
c9.33301 -3.33301 15.666 -12 18.999 -26s0.666016 -28.667 -8.00098 -44z" />
    <glyph glyph-name="periodcentered" unicode="&#x2219;" horiz-adv-x="151" 
d="M130 246c-8.66699 -15.333 -18.8301 -25.1709 -30.4971 -29.5039s-22.167 -4.16602 -31.5 0.500977c-10 4.66699 -16.5 13.334 -19.5 26.001s-0.833008 26.334 6.5 41.001c7.33301 13.333 17.666 22.833 30.999 28.5s24.333 6.83398 33 3.50098
c9.33301 -3.33301 15.666 -12 18.999 -26s0.666016 -28.667 -8.00098 -44z" />
    <glyph glyph-name="cedilla" unicode="&#xb8;" horiz-adv-x="599" 
d="M100 196c12.667 -8 24.4971 -11.667 35.4971 -11s21.5 3.83398 31.5 9.50098s19.167 13.167 27.5 22.5s16.166 18.666 23.499 27.999c8 10.667 15.167 21.5 21.5 32.5s11.5 21.333 15.5 31s6.33301 18.167 7 25.5s-0.666016 12.333 -3.99902 15
c-5.33301 4.66699 -14.166 4.5 -26.499 -0.5s-25.666 -13.667 -39.999 -26s-29 -28 -44 -47s-28.167 -39.833 -39.5 -62.5c-1.33301 -3.33301 -2.66602 -6.33301 -3.99902 -9zM388.997 146l-4.49805 61.498c-1.66699 22.333 -3.66699 44.166 -6 65.499
s-4.66602 41.333 -6.99902 60s-4.83301 34 -7.5 46c-2 6.66699 -1 11 3 13s9.33301 2.33301 16 1c16.667 -4 30.667 -13 42 -27s19 -38 23 -72l4 -41l4 -44c31.333 32 60 63.667 86 95s48.333 59.333 67 84c4 5.33301 8.66699 8 14 8s7.33301 -4.33301 6 -13
c-1.33301 -12 -6.16602 -25.333 -14.499 -40s-17.833 -29.334 -28.5 -44.001s-26.834 -34.667 -48.501 -60s-47.5 -52 -77.5 -80c1.33301 -16.667 2.66602 -32.334 3.99902 -47.001s2.66602 -27.667 3.99902 -39c2.66699 -20 6.66699 -34 12 -42s11.666 -12 18.999 -12
c8.66699 0 18.167 4 28.5 12s20.666 18.5 30.999 31.5s20 27.5 29 43.5s16.833 31.667 23.5 47c2.66699 4.66699 6 6.66699 10 6s6.66699 -3 8 -7c2 -7.33301 2.33301 -16.666 1 -27.999s-6 -24.666 -14 -39.999c-17.333 -32 -38.166 -56.333 -62.499 -73
s-49.166 -25.334 -74.499 -26.001c-26.667 -0.666992 -46.834 7.83301 -60.501 25.5s-22.167 46.834 -25.5 87.501v2c-38 -30 -77.667 -55.833 -119 -77.5s-82.666 -33.5 -123.999 -35.5c-34 -1.33301 -62.167 4.83398 -84.5 18.501s-38.5 32.334 -48.5 56.001
s-13.667 50.834 -11 81.501s12 62 28 94c16 30.667 33.833 57.167 53.5 79.5s39.334 40 59.001 53s38.667 21.167 57 24.5s33.833 1.33301 46.5 -6c12 -7.33301 22.833 -14.833 32.5 -22.5s18.167 -16.834 25.5 -27.501c4 -6 6.5 -14.167 7.5 -24.5
s0.166992 -21.5 -2.5 -33.5s-7.16699 -24.667 -13.5 -38s-14.5 -26.333 -24.5 -39c-12 -15.333 -25 -28.166 -39 -38.499s-28.833 -17.333 -44.5 -21s-31.834 -3.16699 -48.501 1.5s-34 14 -52 28c-8 -23.333 -12.5 -44.833 -13.5 -64.5s1.16699 -36.5 6.5 -50.5
s14 -24.667 26 -32s26.667 -10.333 44 -9c36.667 3.33301 75.167 17 115.5 41s80.166 53.333 119.499 88z" />
    <glyph glyph-name="ordmasculine" unicode="&#xba;" horiz-adv-x="671" 
d="M695 85c-13.333 -30 -33.1807 -54.5059 -59.5137 -73.5059s-53.166 -28.167 -80.499 -27.5c-19.333 0.666992 -35.5 5.16699 -48.5 13.5s-23 19.333 -30 33s-10.833 29.5 -11.5 47.5s2 37 8 57c5.33301 16.667 12.833 33.834 22.5 51.501s20.334 34.834 32.001 51.501
s23.667 32.334 36 47.001l34.5 40c-22 -13.333 -43.5 -22.833 -64.5 -28.5s-39.5 -8.5 -55.5 -8.5c-13.333 -33.333 -28.666 -67.833 -45.999 -103.5s-36.5 -68.334 -57.5 -98.001s-43.5 -54.167 -67.5 -73.5s-49.333 -29.333 -76 -30
c-19.333 -0.666992 -35.5 3.16602 -48.5 11.499s-22.667 19.5 -29 33.5s-9.83301 30.333 -10.5 49s2 38 8 58c4.66699 16.667 12 33.834 22 51.501s21 34.834 33 51.501s24.333 32.334 37 47.001l35 40c-22.667 -13.333 -44.667 -22.833 -66 -28.5s-40.333 -8.5 -57 -8.5
c-10 -18.667 -22.833 -41.334 -38.5 -68.001l-48 -84c-16.333 -29.333 -31.333 -58.666 -45 -87.999s-22.834 -56 -27.501 -80c-1.33301 -4.66699 -3.5 -7.83398 -6.5 -9.50098s-7.16699 -0.166992 -12.5 4.5c-15.333 16 -23 35.5 -23 58.5s7.33301 48.167 22 75.5
c6 11.333 14.5 25.5 25.5 42.5l35.5 53.5l38 55.5l34 49.5c-10.667 6 -17.167 14.167 -19.5 24.5s-2 21.5 1 33.5s8.16699 24.167 15.5 36.5s15.333 23.5 24 33.5s17.334 18.167 26.001 24.5s16.334 9.5 23.001 9.5c8 0 13.667 -3.33301 17 -10
s4.66602 -15.834 3.99902 -27.501s-3.16699 -25.167 -7.5 -40.5s-9.83301 -31 -16.5 -47c17.333 2.66699 34.833 8 52.5 16s36.167 18.333 55.5 31c7.33301 4.66699 13 7.33398 17 8.00098s8.33301 -1.33301 13 -6c4.66699 -5.33301 9.5 -12 14.5 -20
s8.83301 -16.667 11.5 -26s3.33398 -18.833 2.00098 -28.5s-5.66602 -18.5 -12.999 -26.5c-24 -27.333 -47 -56.5 -69 -87.5s-37.333 -59.833 -46 -86.5c-9.33301 -28 -11.333 -51.167 -6 -69.5s15.666 -27.166 30.999 -26.499
c14.667 0.666992 30.834 8.83398 48.501 24.501s35.5 36.5 53.5 62.5s35.5 55.667 52.5 89s32.167 68 45.5 104c-13.333 4.66699 -22.166 12.167 -26.499 22.5s-5.66602 21.666 -3.99902 33.999s5.83398 24.833 12.501 37.5s14.334 24.5 23.001 35.5s17.5 19.833 26.5 26.5
s16.833 10.334 23.5 11.001c8 0.666992 13.5 -2.5 16.5 -9.5s4.33301 -16.333 4 -28s-2.16602 -25.167 -5.49902 -40.5s-8 -31.333 -14 -48c34 4.66699 70.667 20.667 110 48c6.66699 5.33301 12.167 8.33301 16.5 9s8.83301 -1.66602 13.5 -6.99902s9.33398 -12 14.001 -20
s8.33398 -16.667 11.001 -26s3.33398 -18.833 2.00098 -28.5s-5.66602 -18.5 -12.999 -26.5c-24 -27.333 -46.667 -56.5 -68 -87.5s-36.666 -59.833 -45.999 -86.5c-9.33301 -28 -11.333 -50.667 -6 -68s15.666 -26.666 30.999 -27.999c10 -0.666992 20.5 2.5 31.5 9.5
s22 16.833 33 29.5s21.667 27.5 32 44.5s19.5 34.833 27.5 53.5c4.66699 10.667 9.66699 10.667 15 0c2.66699 -5.33301 4.16699 -13.833 4.5 -25.5s-2.5 -24.834 -8.5 -39.501z" />
    <glyph glyph-name="guillemotright" unicode="&#xbb;" horiz-adv-x="923" 
d="M250 221c-17.333 9.33301 -32.1709 22.6611 -44.5039 39.9941s-19.166 35.666 -20.499 54.999c-13.333 -11.333 -26.666 -25.166 -39.999 -41.499s-25.666 -34.166 -36.999 -53.499c-11.333 -18.667 -20.5 -38 -27.5 -58s-11.833 -38.667 -14.5 -56
s-3.16699 -32.666 -1.5 -45.999s5.83398 -23 12.501 -29s15.334 -8.16699 26.001 -6.5s22.167 6.83398 34.5 15.501s25.166 20.834 38.499 36.501s26 34.834 38 57.501c16.667 30.667 28.667 59.334 36 86.001zM257.995 245.995c3.33301 14.667 5.5 27.6689 6.5 39.002
s0.833008 21.666 -0.5 30.999c-2.66699 16 -7.83398 23.333 -15.501 22s-12.5 -9.66602 -14.5 -24.999c-1.33301 -10.667 -0.166016 -22.334 3.50098 -35.001s10.5 -23.334 20.5 -32.001zM953.995 150.997c2.66699 -3.33301 3.66797 -11.6748 3.00098 -25.0078
s-4 -26 -10 -38c-7.33301 -14 -16.5 -27.333 -27.5 -40s-23.167 -24 -36.5 -34s-27.333 -17.833 -42 -23.5s-29 -8.5 -43 -8.5c-21.333 0 -39.166 4.16699 -53.499 12.5s-25 19.166 -32 32.499s-10.167 29.166 -9.5 47.499s5.33398 37.5 14.001 57.5
c6 14 13.167 28.5 21.5 43.5s17 29.833 26 44.5l26.5 41.5c8.66699 13 16 24.5 22 34.5s10.5 18.167 13.5 24.5s3.16699 10.166 0.5 11.499c-4 1.33301 -14.833 -2.66699 -32.5 -12s-42.5 -30 -74.5 -62c-41.333 -41.333 -75.166 -85 -101.499 -131
s-50.166 -92.333 -71.499 -139c-6 -13.333 -13.667 -15.333 -23 -6c-8 8 -13.5 21.833 -16.5 41.5s2.16699 47.5 15.5 83.5c5.33301 14 12.5 29.167 21.5 45.5l28 49l29.5 47.5c10 15.333 18.5 29.166 25.5 41.499s12.167 22.5 15.5 30.5s3.33301 12.667 0 14
c-5.33301 2 -19.333 -4.16699 -42 -18.5s-50 -39.166 -82 -74.499c-29.333 -32 -56 -69.667 -80 -113s-46 -88.666 -66 -135.999c-2 -4 -4.33301 -6.5 -7 -7.5s-6.66699 0.5 -12 4.5c-10.667 8.66699 -17 21.334 -19 38.001s1 37.667 9 63
c5.33301 16.667 13.666 37.167 24.999 61.5s24.333 50.5 39 78.5c-28.667 -19.333 -59.667 -27.666 -93 -24.999c-5.33301 -21.333 -13 -43.333 -23 -66s-21.833 -44 -35.5 -64s-28.834 -37.5 -45.501 -52.5s-34.334 -25.5 -53.001 -31.5
c-9.33301 -3.33301 -19.166 -5.33301 -29.499 -6s-21.166 0.333008 -32.499 3s-22.5 7.66699 -33.5 15s-21.5 17.666 -31.5 30.999c-21.333 29.333 -29.5 64.166 -24.5 104.499s18.833 80.5 41.5 120.5c9.33301 16.667 20.166 32.667 32.499 48s25.333 28.833 39 40.5
s27.834 21.167 42.501 28.5s29.667 11.666 45 12.999s27.666 -0.666992 36.999 -6s19.333 -14.666 30 -27.999c6 -8 12.167 -14.667 18.5 -20s12 -11.666 17 -18.999s8.66699 -16.333 11 -27s2.83301 -25.334 1.5 -44.001v-8c0 -2.66699 -0.666992 -5.33398 -2 -8.00098
c16 0 32 4.33301 48 13s31.667 20.334 47 35.001s30.166 31.334 44.499 50.001s27.833 38 40.5 58c3.33301 5.33301 7 8 11 8s7.66699 -2.66699 11 -8c8 -13.333 11.5 -29.166 10.5 -47.499s-5.16699 -37.166 -12.5 -56.499c11.333 12.667 24 25.334 38 38.001
s28.167 24.334 42.5 35.001s27.833 19.167 40.5 25.5s23.667 9.5 33 9.5c8.66699 0 16 -3.16699 22 -9.5s10.833 -14.166 14.5 -23.499s5.66699 -19.833 6 -31.5s-0.833984 -22.834 -3.50098 -33.501c12 11.333 24.833 22.5 38.5 33.5s27.167 20.833 40.5 29.5
s25.833 15.5 37.5 20.5s21.5 7.5 29.5 7.5c8.66699 0 15.834 -3.5 21.501 -10.5s9.5 -15.667 11.5 -26s2.16699 -21.833 0.5 -34.5s-4.83398 -25 -9.50098 -37c-4.66699 -11.333 -11 -23.666 -19 -36.999l-25 -41.5l-25.5 -42.5c-8.33301 -14 -15.5 -27 -21.5 -39
c-7.33301 -14 -12 -27.333 -14 -40s-1.83301 -23.667 0.5 -33s6.5 -16.666 12.5 -21.999s13.667 -7.66602 23 -6.99902c10 0.666992 20.167 4.83398 30.5 12.501s20.833 17.834 31.5 30.501s21.167 27.167 31.5 43.5s20.166 33.5 29.499 51.5
c2.66699 4.66699 5.5 6.66699 8.5 6s5.83301 -2.66699 8.5 -6z" />
    <glyph glyph-name="questiondown" unicode="&#xbf;" horiz-adv-x="369" 
d="M278 86c-13.333 -22 -28.998 -40.8359 -46.998 -56.5029s-37 -27.334 -57 -35.001s-40.333 -11 -61 -10s-40 7.5 -58 19.5c-28 18 -45.167 44.5 -51.5 79.5s0.5 73.5 20.5 115.5c9.33301 20 20.666 37.833 33.999 53.5s28 30.167 44 43.5s33 25.666 51 36.999
s36.667 22.333 56 33c37.333 20.667 64 43.5 80 68.5s27.667 50.5 35 76.5c2.66699 10.667 8.66699 11.667 18 3c6.66699 -6.66699 12 -18 16 -34s1 -35.667 -9 -59c-4.66699 -10.667 -10.334 -20.667 -17.001 -30s-15 -18.666 -25 -27.999s-21.833 -18.833 -35.5 -28.5
s-29.834 -19.834 -48.501 -30.501c-30.667 -17.333 -58.5 -38.833 -83.5 -64.5s-45.167 -54.5 -60.5 -86.5c-4.66699 -10 -9 -21.167 -13 -33.5s-6.5 -24.166 -7.5 -35.499s0 -21.666 3 -30.999s8.5 -16.333 16.5 -21c12.667 -7.33301 27.5 -7.5 44.5 -0.5
s34.5 18.833 52.5 35.5s35.667 37.334 53 62.001s33 51.334 47 80.001c3.33301 6.66699 6.5 10.167 9.5 10.5s6.16699 -2.16699 9.5 -7.5c7.33301 -11.333 10.833 -28.166 10.5 -50.499s-9.16602 -47.5 -26.499 -75.5zM342.002 561.997
c-5.33301 13.333 -7.33203 25.499 -5.99902 36.499s5.33301 20.167 12 27.5s15.667 10 27 8s20.666 -9.33301 27.999 -22c7.33301 -13.333 10.333 -26.666 9 -39.999s-6 -24.333 -14 -33s-18 -10.5 -30 -5.5s-20.667 14.5 -26 28.5z" />
    <glyph glyph-name="Agrave" unicode="&#xc0;" horiz-adv-x="442" 
d="M372 748c8 1.33301 18.666 0.830078 31.999 -1.50293s25.666 -8.5 36.999 -18.5c10.667 -9.33301 22.5 -21.666 35.5 -36.999s24.5 -29.666 34.5 -42.999c6 -8 4.33301 -12.667 -5 -14c-7.33301 -0.666992 -15.166 0 -23.499 2s-17.166 6.33301 -26.499 13
c-11.333 8 -25.333 20.333 -42 37l-47 47c-4 4 -5.16699 7.33301 -3.5 10s4.5 4.33398 8.5 5.00098zM151.999 200.997c30.667 2.66699 60.668 5.99902 90.001 9.99902s55.666 6.33301 78.999 7c4 26 8.5 53 13.5 81s10.833 55.5 17.5 82.5s13.5 53 20.5 78
s14.5 47.167 22.5 66.5c-19.333 -21.333 -39.166 -44.666 -59.499 -69.999l-62 -80l-62.5 -86c-20.667 -29.333 -40.334 -59 -59.001 -89zM313 156.996c-18 -1.33301 -36.168 -3.00488 -54.501 -5.00488s-36.333 -3.83301 -54 -5.5s-34.167 -3 -49.5 -4s-29 -1.5 -41 -1.5
c-30.667 -52.667 -56 -100.667 -76 -144c-2 -4.66699 -4.83301 -7 -8.5 -7s-6.83398 1.66699 -9.50098 5c-6 8 -9.33301 20 -10 36s4.33301 38 15 66l11.5 25.5c4.33301 9.66699 9.5 20.167 15.5 31.5c-11.333 6 -19.333 12.333 -24 19s-7.66699 11.667 -9 15
c-2.66699 6.66699 -3.16699 11.167 -1.5 13.5s6.16699 2.83301 13.5 1.5s14.666 -2.33301 21.999 -3l23 -2c19.333 34 42.166 71 68.499 111s53.833 79.333 82.5 118s57.834 74.834 87.501 108.501s57.834 61.5 84.501 83.5c14.667 12 26.667 11.667 36 -1
c2.66699 -3.33301 4.83398 -6.16602 6.50098 -8.49902s3.33398 -4.83301 5.00098 -7.5s3.33398 -6 5.00098 -10l6.5 -15c5.33301 -12 7.83301 -23.833 7.5 -35.5s-2.83301 -24.167 -7.5 -37.5c-13.333 -40 -26.5 -84.667 -39.5 -134s-24.167 -101.666 -33.5 -156.999
c15.333 -5.33301 26.166 -12.5 32.499 -21.5s10.5 -18.833 12.5 -29.5c2 -9.33301 -1.66699 -12.333 -11 -9c-12 3.33301 -26.333 5.33301 -43 6c-3.33301 -26 -6.33301 -52.5 -9 -79.5s-4.66699 -53.833 -6 -80.5c0 -10.667 -5 -13.667 -15 -9s-18.5 13.834 -25.5 27.501
s-10.833 34.834 -11.5 63.501c0 10 0.333008 21.333 1 34s1.66699 26.667 3 42z" />
    <glyph glyph-name="Aacute" unicode="&#xc1;" horiz-adv-x="442" 
d="M564 731c3.33301 -2 5.49902 -4.49902 6.49902 -7.49902s-1.16699 -5.83301 -6.5 -8.5c-9.33301 -4 -19.333 -8.83301 -30 -14.5s-21.334 -11 -32.001 -16l-30 -14c-9.33301 -4.33301 -17 -7.5 -23 -9.5c-11.333 -3.33301 -21.666 -5 -30.999 -5
s-16.666 1.66699 -21.999 5c-3.33301 1.33301 -5.33301 3.33301 -6 6s1.33301 5.66699 6 9l48.5 32c17.667 12 33.167 20.667 46.5 26c14 6 27.833 8.16699 41.5 6.5s24.167 -4.83398 31.5 -9.50098zM151.999 201.001c30.667 2.66699 60.668 5.99902 90.001 9.99902
s55.666 6.33301 78.999 7c4 26 8.5 53 13.5 81s10.833 55.5 17.5 82.5s13.5 53 20.5 78s14.5 47.167 22.5 66.5c-19.333 -21.333 -39.166 -44.666 -59.499 -69.999l-62 -80l-62.5 -86c-20.667 -29.333 -40.334 -59 -59.001 -89zM313 157
c-18 -1.33301 -36.168 -3.00488 -54.501 -5.00488s-36.333 -3.83301 -54 -5.5s-34.167 -3 -49.5 -4s-29 -1.5 -41 -1.5c-30.667 -52.667 -56 -100.667 -76 -144c-2 -4.66699 -4.83301 -7 -8.5 -7s-6.83398 1.66699 -9.50098 5c-6 8 -9.33301 20 -10 36s4.33301 38 15 66
l11.5 25.5c4.33301 9.66699 9.5 20.167 15.5 31.5c-11.333 6 -19.333 12.333 -24 19s-7.66699 11.667 -9 15c-2.66699 6.66699 -3.16699 11.167 -1.5 13.5s6.16699 2.83301 13.5 1.5s14.666 -2.33301 21.999 -3l23 -2c19.333 34 42.166 71 68.499 111
s53.833 79.333 82.5 118s57.834 74.834 87.501 108.501s57.834 61.5 84.501 83.5c14.667 12 26.667 11.667 36 -1c2.66699 -3.33301 4.83398 -6.16602 6.50098 -8.49902s3.33398 -4.83301 5.00098 -7.5s3.33398 -6 5.00098 -10l6.5 -15
c5.33301 -12 7.83301 -23.833 7.5 -35.5s-2.83301 -24.167 -7.5 -37.5c-13.333 -40 -26.5 -84.667 -39.5 -134s-24.167 -101.666 -33.5 -156.999c15.333 -5.33301 26.166 -12.5 32.499 -21.5s10.5 -18.833 12.5 -29.5c2 -9.33301 -1.66699 -12.333 -11 -9
c-12 3.33301 -26.333 5.33301 -43 6c-3.33301 -26 -6.33301 -52.5 -9 -79.5s-4.66699 -53.833 -6 -80.5c0 -10.667 -5 -13.667 -15 -9s-18.5 13.834 -25.5 27.501s-10.833 34.834 -11.5 63.501c0 10 0.333008 21.333 1 34s1.66699 26.667 3 42z" />
    <glyph glyph-name="Acircumflex" unicode="&#xc2;" horiz-adv-x="442" 
d="M448 693c-11.333 -8 -23.1689 -15.499 -35.502 -22.499l-32.5 -18.5c-11.333 -6 -21.5 -9.5 -30.5 -10.5s-16.167 -0.5 -21.5 1.5c-4 0.666992 -6 2.66699 -6 6s1.66699 6.33301 5 9l25 18l31.5 22.5l32 22.5c10.333 7.33301 19.5 13.333 27.5 18
c4.66699 2.66699 9 4 13 4c5.33301 0.666992 9.5 -0.833008 12.5 -4.5s5.5 -7.16699 7.5 -10.5l20.5 -35.5l20.5 -34.5c4.66699 -6.66699 2.66699 -11.334 -6 -14.001c-9.33301 -2 -18.166 -1.66699 -26.499 1s-17.166 8.66699 -26.499 18c-6 6 -11.667 13.167 -17 21.5
l-14 22.5zM151.997 201.001c30.667 2.66699 60.668 5.99902 90.001 9.99902s55.666 6.33301 78.999 7c4 26 8.5 53 13.5 81s10.833 55.5 17.5 82.5s13.5 53 20.5 78s14.5 47.167 22.5 66.5c-19.333 -21.333 -39.166 -44.666 -59.499 -69.999l-62 -80l-62.5 -86
c-20.667 -29.333 -40.334 -59 -59.001 -89zM312.998 157c-18 -1.33301 -36.168 -3.00488 -54.501 -5.00488s-36.333 -3.83301 -54 -5.5s-34.167 -3 -49.5 -4s-29 -1.5 -41 -1.5c-30.667 -52.667 -56 -100.667 -76 -144c-2 -4.66699 -4.83301 -7 -8.5 -7
s-6.83398 1.66699 -9.50098 5c-6 8 -9.33301 20 -10 36s4.33301 38 15 66l11.5 25.5c4.33301 9.66699 9.5 20.167 15.5 31.5c-11.333 6 -19.333 12.333 -24 19s-7.66699 11.667 -9 15c-2.66699 6.66699 -3.16699 11.167 -1.5 13.5s6.16699 2.83301 13.5 1.5
s14.666 -2.33301 21.999 -3l23 -2c19.333 34 42.166 71 68.499 111s53.833 79.333 82.5 118s57.834 74.834 87.501 108.501s57.834 61.5 84.501 83.5c14.667 12 26.667 11.667 36 -1c2.66699 -3.33301 4.83398 -6.16602 6.50098 -8.49902s3.33398 -4.83301 5.00098 -7.5
s3.33398 -6 5.00098 -10l6.5 -15c5.33301 -12 7.83301 -23.833 7.5 -35.5s-2.83301 -24.167 -7.5 -37.5c-13.333 -40 -26.5 -84.667 -39.5 -134s-24.167 -101.666 -33.5 -156.999c15.333 -5.33301 26.166 -12.5 32.499 -21.5s10.5 -18.833 12.5 -29.5
c2 -9.33301 -1.66699 -12.333 -11 -9c-12 3.33301 -26.333 5.33301 -43 6c-3.33301 -26 -6.33301 -52.5 -9 -79.5s-4.66699 -53.833 -6 -80.5c0 -10.667 -5 -13.667 -15 -9s-18.5 13.834 -25.5 27.501s-10.833 34.834 -11.5 63.501c0 10 0.333008 21.333 1 34
s1.66699 26.667 3 42z" />
    <glyph glyph-name="Atilde" unicode="&#xc3;" horiz-adv-x="442" 
d="M345 690c3.33301 8 10.6699 15.999 22.0029 23.999s24.666 12 39.999 12c12 0 23.667 -2.16699 35 -6.5l34 -12.5c11.333 -4 23.166 -7 35.499 -9s25.833 -1 40.5 3c12 3.33301 15.333 -0.666992 10 -12c-12 -21.333 -30.333 -33 -55 -35
c-14 -1.33301 -27.667 0.166992 -41 4.5s-26.333 8.83301 -39 13.5s-25.167 8.33398 -37.5 11.001s-24.5 2 -36.5 -2c-8.66699 -3.33301 -11.334 -0.333008 -8.00098 9zM152.004 200.999c30.667 2.66699 60.668 5.99902 90.001 9.99902s55.666 6.33301 78.999 7
c4 26 8.5 53 13.5 81s10.833 55.5 17.5 82.5s13.5 53 20.5 78s14.5 47.167 22.5 66.5c-19.333 -21.333 -39.166 -44.666 -59.499 -69.999l-62 -80l-62.5 -86c-20.667 -29.333 -40.334 -59 -59.001 -89zM313.005 156.998c-18 -1.33301 -36.168 -3.00488 -54.501 -5.00488
s-36.333 -3.83301 -54 -5.5s-34.167 -3 -49.5 -4s-29 -1.5 -41 -1.5c-30.667 -52.667 -56 -100.667 -76 -144c-2 -4.66699 -4.83301 -7 -8.5 -7s-6.83398 1.66699 -9.50098 5c-6 8 -9.33301 20 -10 36s4.33301 38 15 66l11.5 25.5c4.33301 9.66699 9.5 20.167 15.5 31.5
c-11.333 6 -19.333 12.333 -24 19s-7.66699 11.667 -9 15c-2.66699 6.66699 -3.16699 11.167 -1.5 13.5s6.16699 2.83301 13.5 1.5s14.666 -2.33301 21.999 -3l23 -2c19.333 34 42.166 71 68.499 111s53.833 79.333 82.5 118s57.834 74.834 87.501 108.501
s57.834 61.5 84.501 83.5c14.667 12 26.667 11.667 36 -1c2.66699 -3.33301 4.83398 -6.16602 6.50098 -8.49902s3.33398 -4.83301 5.00098 -7.5s3.33398 -6 5.00098 -10l6.5 -15c5.33301 -12 7.83301 -23.833 7.5 -35.5s-2.83301 -24.167 -7.5 -37.5
c-13.333 -40 -26.5 -84.667 -39.5 -134s-24.167 -101.666 -33.5 -156.999c15.333 -5.33301 26.166 -12.5 32.499 -21.5s10.5 -18.833 12.5 -29.5c2 -9.33301 -1.66699 -12.333 -11 -9c-12 3.33301 -26.333 5.33301 -43 6c-3.33301 -26 -6.33301 -52.5 -9 -79.5
s-4.66699 -53.833 -6 -80.5c0 -10.667 -5 -13.667 -15 -9s-18.5 13.834 -25.5 27.501s-10.833 34.834 -11.5 63.501c0 10 0.333008 21.333 1 34s1.66699 26.667 3 42z" />
    <glyph glyph-name="Adieresis" unicode="&#xc4;" horiz-adv-x="442" 
d="M358 706c5.33301 10.667 12.335 18.998 21.002 24.998s16.667 7.33301 24 4c8 -3.33301 13.167 -9.66602 15.5 -18.999s1.16602 -19 -3.50098 -29s-11.167 -18 -19.5 -24s-16.833 -7.66699 -25.5 -5c-8 2.66699 -13.333 8.83398 -16 18.501s-1.33398 19.5 3.99902 29.5z
M473.002 707.998c4.66699 11.333 11.499 19.499 20.499 24.499s17.167 6.16699 24.5 3.5c8 -2.66699 13.167 -8.5 15.5 -17.5s1.16602 -19.167 -3.50098 -30.5c-4 -10 -10.667 -17.667 -20 -23s-17.666 -6.66602 -24.999 -3.99902c-8 2.66699 -13.167 8.5 -15.5 17.5
s-1.16602 18.833 3.50098 29.5zM152.001 200.997c30.667 2.66699 60.668 5.99902 90.001 9.99902s55.666 6.33301 78.999 7c4 26 8.5 53 13.5 81s10.833 55.5 17.5 82.5s13.5 53 20.5 78s14.5 47.167 22.5 66.5c-19.333 -21.333 -39.166 -44.666 -59.499 -69.999l-62 -80
l-62.5 -86c-20.667 -29.333 -40.334 -59 -59.001 -89zM313.002 156.996c-18 -1.33301 -36.168 -3.00488 -54.501 -5.00488s-36.333 -3.83301 -54 -5.5s-34.167 -3 -49.5 -4s-29 -1.5 -41 -1.5c-30.667 -52.667 -56 -100.667 -76 -144c-2 -4.66699 -4.83301 -7 -8.5 -7
s-6.83398 1.66699 -9.50098 5c-6 8 -9.33301 20 -10 36s4.33301 38 15 66l11.5 25.5c4.33301 9.66699 9.5 20.167 15.5 31.5c-11.333 6 -19.333 12.333 -24 19s-7.66699 11.667 -9 15c-2.66699 6.66699 -3.16699 11.167 -1.5 13.5s6.16699 2.83301 13.5 1.5
s14.666 -2.33301 21.999 -3l23 -2c19.333 34 42.166 71 68.499 111s53.833 79.333 82.5 118s57.834 74.834 87.501 108.501s57.834 61.5 84.501 83.5c14.667 12 26.667 11.667 36 -1c2.66699 -3.33301 4.83398 -6.16602 6.50098 -8.49902s3.33398 -4.83301 5.00098 -7.5
s3.33398 -6 5.00098 -10l6.5 -15c5.33301 -12 7.83301 -23.833 7.5 -35.5s-2.83301 -24.167 -7.5 -37.5c-13.333 -40 -26.5 -84.667 -39.5 -134s-24.167 -101.666 -33.5 -156.999c15.333 -5.33301 26.166 -12.5 32.499 -21.5s10.5 -18.833 12.5 -29.5
c2 -9.33301 -1.66699 -12.333 -11 -9c-12 3.33301 -26.333 5.33301 -43 6c-3.33301 -26 -6.33301 -52.5 -9 -79.5s-4.66699 -53.833 -6 -80.5c0 -10.667 -5 -13.667 -15 -9s-18.5 13.834 -25.5 27.501s-10.833 34.834 -11.5 63.501c0 10 0.333008 21.333 1 34
s1.66699 26.667 3 42z" />
    <glyph glyph-name="Aring" unicode="&#xc5;" horiz-adv-x="442" 
d="M527 738c-4 3.33301 -9.66504 2.33105 -16.998 -3.00195s-13 -12.666 -17 -21.999c-5.33301 -12 -7.83301 -22.167 -7.5 -30.5s2.5 -13.833 6.5 -16.5c3.33301 -2 7.83301 -1.16699 13.5 2.5s11.167 10.167 16.5 19.5c5.33301 8.66699 8.66602 18.334 9.99902 29.001
s-0.333984 17.667 -5.00098 21zM538.002 752.998c14.667 -12 22.332 -25.668 22.999 -41.001s-3.33301 -29.666 -12 -42.999c-7.33301 -11.333 -17.166 -20 -29.499 -26s-24.833 -4.33301 -37.5 5c-15.333 10.667 -24.166 23.667 -26.499 39s0.166992 30 7.5 44
s18.166 24 32.499 30s28.5 3.33301 42.5 -8zM152 200.997c30.667 2.66699 60.668 5.99902 90.001 9.99902s55.666 6.33301 78.999 7c4 26 8.5 53 13.5 81s10.833 55.5 17.5 82.5s13.5 53 20.5 78s14.5 47.167 22.5 66.5c-19.333 -21.333 -39.166 -44.666 -59.499 -69.999
l-62 -80l-62.5 -86c-20.667 -29.333 -40.334 -59 -59.001 -89zM313.001 156.996c-18 -1.33301 -36.168 -3.00488 -54.501 -5.00488s-36.333 -3.83301 -54 -5.5s-34.167 -3 -49.5 -4s-29 -1.5 -41 -1.5c-30.667 -52.667 -56 -100.667 -76 -144
c-2 -4.66699 -4.83301 -7 -8.5 -7s-6.83398 1.66699 -9.50098 5c-6 8 -9.33301 20 -10 36s4.33301 38 15 66l11.5 25.5c4.33301 9.66699 9.5 20.167 15.5 31.5c-11.333 6 -19.333 12.333 -24 19s-7.66699 11.667 -9 15c-2.66699 6.66699 -3.16699 11.167 -1.5 13.5
s6.16699 2.83301 13.5 1.5s14.666 -2.33301 21.999 -3l23 -2c19.333 34 42.166 71 68.499 111s53.833 79.333 82.5 118s57.834 74.834 87.501 108.501s57.834 61.5 84.501 83.5c14.667 12 26.667 11.667 36 -1c2.66699 -3.33301 4.83398 -6.16602 6.50098 -8.49902
s3.33398 -4.83301 5.00098 -7.5s3.33398 -6 5.00098 -10l6.5 -15c5.33301 -12 7.83301 -23.833 7.5 -35.5s-2.83301 -24.167 -7.5 -37.5c-13.333 -40 -26.5 -84.667 -39.5 -134s-24.167 -101.666 -33.5 -156.999c15.333 -5.33301 26.166 -12.5 32.499 -21.5
s10.5 -18.833 12.5 -29.5c2 -9.33301 -1.66699 -12.333 -11 -9c-12 3.33301 -26.333 5.33301 -43 6c-3.33301 -26 -6.33301 -52.5 -9 -79.5s-4.66699 -53.833 -6 -80.5c0 -10.667 -5 -13.667 -15 -9s-18.5 13.834 -25.5 27.501s-10.833 34.834 -11.5 63.501
c0 10 0.333008 21.333 1 34s1.66699 26.667 3 42z" />
    <glyph glyph-name="AE" unicode="&#xc6;" horiz-adv-x="651" 
d="M482 516c-21.333 -18 -44 -38.5 -68 -61.5l-73.5 -72.5l-76 -80l-74.5 -84l77 22.5c25.333 7.66699 49 14.167 71 19.5c22 44 45.667 88 71 132zM128 142c-20.667 -26.667 -39.8252 -52.668 -57.4922 -78.001s-33.167 -49.666 -46.5 -72.999
c-4.66699 -8.66699 -10 -8.66699 -16 0c-5.33301 8.66699 -7.66602 21.667 -6.99902 39s8.66699 40.666 24 69.999c3.33301 7.33301 7.5 15 12.5 23s10.833 16.667 17.5 26c-9.33301 4.66699 -16.5 9.66699 -21.5 15s-8.16699 9.66602 -9.5 12.999
c-3.33301 6 -4.33301 10 -3 12s5.66602 3 12.999 3c8 -0.666992 16.5 -0.666992 25.5 0s18.167 1.66699 27.5 3c22.667 30.667 48.667 63.667 78 99s60.166 70 92.499 104s64.666 65.833 96.999 95.5s62.833 54.167 91.5 73.5c8.66699 6 18 11.333 28 16
s20.667 8.33398 32 11.001c12.667 2.66699 27.834 5.5 45.501 8.5s35.834 5.66699 54.501 8s37 4.5 55 6.5s33.667 3 47 3c25.333 0.666992 44.666 -3.5 57.999 -12.5s23.333 -21.5 30 -37.5c1.33301 -4 1.33301 -7.66699 0 -11s-5.33301 -4.66602 -12 -3.99902
c-12 0.666992 -26.667 0.5 -44 -0.5s-35.5 -2.83301 -54.5 -5.5s-38.333 -5.83398 -58 -9.50098s-38.167 -7.5 -55.5 -11.5l-66.5 -111l-75.5 -137c15.333 3.33301 29.833 5.66602 43.5 6.99902s25.5 2.33301 35.5 3c25.333 0.666992 44.166 -3.83301 56.499 -13.5
s20.833 -22.167 25.5 -37.5c3.33301 -10 -0.666992 -15 -12 -15c-14 0 -29.333 -0.666992 -46 -2s-33.334 -3.33301 -50.001 -6s-33.334 -5.66699 -50.001 -9s-32 -6.66602 -46 -9.99902l-34.5 -73l-30.5 -67c12 4 25 7.66699 39 11s27.833 6.16602 41.5 8.49902
s26.667 4.33301 39 6s23.166 2.83398 32.499 3.50098c25.333 1.33301 45.166 -2.5 59.499 -11.5s24.166 -21.167 29.499 -36.5c1.33301 -4 1.66602 -7.5 0.999023 -10.5s-4.33398 -4.5 -11.001 -4.5c-14 0.666992 -30.5 -0.166016 -49.5 -2.49902s-38.5 -5.5 -58.5 -9.5
s-39.5 -8.16699 -58.5 -12.5s-35.5 -8.5 -49.5 -12.5s-24.667 -5.66699 -32 -5s-13.666 5.33398 -18.999 14.001l-12.5 20l-10.5 18c-4.66699 9.33301 -7.16699 18 -7.5 26s2.16699 18.667 7.5 32l16.5 42c5.66699 14.667 12.167 29.667 19.5 45
c-14 -4 -29 -7.83301 -45 -11.5l-46.5 -10.5c-15 -3.33301 -29.5 -6.33301 -43.5 -9s-26 -4.33398 -36 -5.00098z" />
    <glyph glyph-name="Ccedilla" unicode="&#xc7;" horiz-adv-x="462" 
d="M121 10c-0.666992 0 -1.00488 0.164062 -1.00488 0.49707s-0.333008 0.5 -1 0.5c-22.667 12 -42.334 32.667 -59.001 62s-25.667 64.666 -27 105.999c-0.666992 35.333 3.33301 69.666 12 102.999s20.5 65 35.5 95s32.333 57.833 52 83.5s40.167 48.834 61.5 69.501
s42.833 38.167 64.5 52.5s41.834 25.166 60.501 32.499c27.333 10.667 52.666 16.334 75.999 17.001s43 -6 59 -20c11.333 -9.33301 22 -20.666 32 -33.999s17 -26.333 21 -39c8.66699 -28 5.66699 -57.333 -9 -88c-7.33301 -15.333 -14.5 -32 -21.5 -50l-18.5 -49
c-1.33301 -4 -3.83301 -7 -7.5 -9s-8.5 -1 -14.5 3c-11.333 7.33301 -20 18.833 -26 34.5s-5.33301 36.167 2 61.5c4 13.333 8.83301 26.666 14.5 39.999s10.5 26 14.5 38s6.5 22.833 7.5 32.5s-1.5 17.5 -7.5 23.5c-7.33301 7.33301 -21.166 8 -41.499 2
s-43.666 -17.667 -69.999 -35s-53.666 -40.166 -81.999 -68.499s-53.833 -61.166 -76.5 -98.499c-22 -36.667 -38.167 -72.834 -48.5 -108.501s-16.166 -68.5 -17.499 -98.5s1.5 -56.167 8.5 -78.5s16.5 -38.5 28.5 -48.5c16 -13.333 34.167 -19.166 54.5 -17.499
s41.5 9.66699 63.5 24s44 34.833 66 61.5s42.667 58.667 62 96c2.66699 5.33301 6.16699 8 10.5 8s7.83301 -3.33301 10.5 -10c6 -16.667 7.16699 -33.667 3.5 -51s-10 -33.666 -19 -48.999s-19.5 -29.333 -31.5 -42s-23.333 -22.667 -34 -30
c-27.333 -19.333 -55.333 -31.666 -84 -36.999s-55.667 -5.33301 -81 0l-7 -14.5l-5 -10.5c16.667 -0.666992 29.334 -9.66699 38.001 -27c5.33301 -11.333 7.83301 -20.5 7.5 -27.5s-2.16602 -13.167 -5.49902 -18.5c-6 -10 -14.167 -17.5 -24.5 -22.5
s-20.166 -7.5 -29.499 -7.5c-8 0 -16.333 2 -25 6s-16.334 10.667 -23.001 20c-3.33301 4.66699 -4 8.16699 -2 10.5s5 3.5 9 3.5c23.333 -1.33301 41.333 1.66699 54 9s18 12.666 16 15.999c-2 4 -6.16699 5.83301 -12.5 5.5s-12.833 -1.16602 -19.5 -2.49902
c-6 -1.33301 -11.167 -1.5 -15.5 -0.5s-9.16602 4.5 -14.499 10.5c-4.66699 5.33301 -7.33398 10 -8.00098 14s0.333008 8.66699 3 14c2 4 5 9.33301 9 16z" />
    <glyph glyph-name="Egrave" unicode="&#xc8;" horiz-adv-x="368" 
d="M258 705c7.33301 4.66699 17.6699 8.33008 31.0029 10.9971s26.666 1.33398 39.999 -3.99902c14 -5.33301 29.833 -12.666 47.5 -21.999s33.5 -18.666 47.5 -27.999c8.66699 -5.33301 8.66699 -10.333 0 -15c-6 -3.33301 -13.5 -5.33301 -22.5 -6
s-18.833 0.333008 -29.5 3c-6 1.33301 -13.5 3.83301 -22.5 7.5l-29 12l-31.5 13l-30 12.5c-4.66699 2 -6.83398 4.66699 -6.50098 8s2.16602 6 5.49902 8zM218.004 524.996c-12.667 5.33301 -21.9961 12.502 -27.9961 21.502s-10.667 18.833 -14 29.5
c-2 8.66699 1.66699 12.667 11 12c20.667 -1.33301 42.667 -0.833008 66 1.5s46.166 5.16602 68.499 8.49902s43.5 6.66602 63.5 9.99902s37 5 51 5c21.333 0.666992 37.833 -3.16602 49.5 -11.499s20.5 -20.833 26.5 -37.5c1.33301 -4 1.33301 -7.5 0 -10.5
s-5 -3.83301 -11 -2.5c-36 0.666992 -71.167 -2.33301 -105.5 -9s-66.833 -12.667 -97.5 -18c-20 -30 -41.833 -65.667 -65.5 -107l-72.5 -129c13.333 2.66699 26.166 4.5 38.499 5.5s23.166 1.83301 32.499 2.5c25.333 1.33301 44 -2 56 -10s20.667 -19.667 26 -35
c1.33301 -4.66699 1.66602 -8.33398 0.999023 -11.001s-4.33398 -4 -11.001 -4c-27.333 0 -58 -2.83301 -92 -8.5s-65 -12.167 -93 -19.5l-41.5 -82.5l-35.5 -75.5c12 4 24.833 7.66699 38.5 11s27.5 6.5 41.5 9.5s27.5 5.33301 40.5 7s24.5 2.83398 34.5 3.50098
c24.667 1.33301 43.667 -1.83398 57 -9.50098s22.666 -19.167 27.999 -34.5c1.33301 -4.66699 1.5 -8.33398 0.5 -11.001s-4.5 -4 -10.5 -4c-14 0 -30.833 -1.33301 -50.5 -4s-39.667 -6 -60 -10s-40.333 -8.33301 -60 -13s-36.5 -9 -50.5 -13
c-9.33301 -2.66699 -17.166 -3.5 -23.499 -2.5s-12.5 5.16699 -18.5 12.5c-4 4.66699 -7.66699 10.334 -11 17.001l-10 20c-4.66699 8.66699 -7 17 -7 25s2.66699 18.667 8 32c11.333 30.667 25.833 64.667 43.5 102s36.834 75.5 57.501 114.5l64 116
c22 38.333 43.667 73.833 65 106.5z" />
    <glyph glyph-name="Eacute" unicode="&#xc9;" horiz-adv-x="368" 
d="M465 705c3.33301 -2 5.5 -4.5 6.5 -7.5s-1.16699 -5.83301 -6.5 -8.5l-30 -15l-31.5 -15.5l-29.5 -14c-9.33301 -4.33301 -17.333 -7.5 -24 -9.5c-11.333 -3.33301 -21.666 -5 -30.999 -5s-16.666 1.33301 -21.999 4c-3.33301 1.33301 -5.33301 3.5 -6 6.5
s1.66602 6.16699 6.99902 9.5l48 31.5c18 11.667 33.667 20.5 47 26.5c14 6 27.667 8 41 6s23.666 -5 30.999 -9zM218 525c-12.667 5.33301 -21.9961 12.502 -27.9961 21.502s-10.667 18.833 -14 29.5c-2 8.66699 1.66699 12.667 11 12
c20.667 -1.33301 42.667 -0.833008 66 1.5s46.166 5.16602 68.499 8.49902s43.5 6.66602 63.5 9.99902s37 5 51 5c21.333 0.666992 37.833 -3.16602 49.5 -11.499s20.5 -20.833 26.5 -37.5c1.33301 -4 1.33301 -7.5 0 -10.5s-5 -3.83301 -11 -2.5
c-36 0.666992 -71.167 -2.33301 -105.5 -9s-66.833 -12.667 -97.5 -18c-20 -30 -41.833 -65.667 -65.5 -107l-72.5 -129c13.333 2.66699 26.166 4.5 38.499 5.5s23.166 1.83301 32.499 2.5c25.333 1.33301 44 -2 56 -10s20.667 -19.667 26 -35
c1.33301 -4.66699 1.66602 -8.33398 0.999023 -11.001s-4.33398 -4 -11.001 -4c-27.333 0 -58 -2.83301 -92 -8.5s-65 -12.167 -93 -19.5l-41.5 -82.5l-35.5 -75.5c12 4 24.833 7.66699 38.5 11s27.5 6.5 41.5 9.5s27.5 5.33301 40.5 7s24.5 2.83398 34.5 3.50098
c24.667 1.33301 43.667 -1.83398 57 -9.50098s22.666 -19.167 27.999 -34.5c1.33301 -4.66699 1.5 -8.33398 0.5 -11.001s-4.5 -4 -10.5 -4c-14 0 -30.833 -1.33301 -50.5 -4s-39.667 -6 -60 -10s-40.333 -8.33301 -60 -13s-36.5 -9 -50.5 -13
c-9.33301 -2.66699 -17.166 -3.5 -23.499 -2.5s-12.5 5.16699 -18.5 12.5c-4 4.66699 -7.66699 10.334 -11 17.001l-10 20c-4.66699 8.66699 -7 17 -7 25s2.66699 18.667 8 32c11.333 30.667 25.833 64.667 43.5 102s36.834 75.5 57.501 114.5l64 116
c22 38.333 43.667 73.833 65 106.5z" />
    <glyph glyph-name="Ecircumflex" unicode="&#xca;" horiz-adv-x="368" 
d="M364 679c-10 -8 -20.168 -15.5 -30.501 -22.5s-19.833 -13.167 -28.5 -18.5c-10 -5.33301 -19.667 -9 -29 -11s-16.666 -2.33301 -21.999 -1c-9.33301 3.33301 -9.66602 8.33301 -0.999023 15l24.5 20l30 24.5l31 25c10.333 8.33301 19.5 15.166 27.5 20.499
c1.33301 1.33301 3.16602 2.5 5.49902 3.5s4.5 1.5 6.5 1.5c5.33301 0.666992 9.83301 -0.5 13.5 -3.5s6.5 -6.16699 8.5 -9.5c5.33301 -9.33301 12.333 -20.666 21 -33.999s16.667 -24 24 -32c2.66699 -3.33301 3.16699 -6.33301 1.5 -9s-4.16699 -4.66699 -7.5 -6
c-18 -5.33301 -36 -0.333008 -54 15l-10.5 10.5c-3.66699 3.66699 -7.16699 7.5 -10.5 11.5zM217.999 525c-12.667 5.33301 -21.9961 12.502 -27.9961 21.502s-10.667 18.833 -14 29.5c-2 8.66699 1.66699 12.667 11 12c20.667 -1.33301 42.667 -0.833008 66 1.5
s46.166 5.16602 68.499 8.49902s43.5 6.66602 63.5 9.99902s37 5 51 5c21.333 0.666992 37.833 -3.16602 49.5 -11.499s20.5 -20.833 26.5 -37.5c1.33301 -4 1.33301 -7.5 0 -10.5s-5 -3.83301 -11 -2.5c-36 0.666992 -71.167 -2.33301 -105.5 -9s-66.833 -12.667 -97.5 -18
c-20 -30 -41.833 -65.667 -65.5 -107l-72.5 -129c13.333 2.66699 26.166 4.5 38.499 5.5s23.166 1.83301 32.499 2.5c25.333 1.33301 44 -2 56 -10s20.667 -19.667 26 -35c1.33301 -4.66699 1.66602 -8.33398 0.999023 -11.001s-4.33398 -4 -11.001 -4
c-27.333 0 -58 -2.83301 -92 -8.5s-65 -12.167 -93 -19.5l-41.5 -82.5l-35.5 -75.5c12 4 24.833 7.66699 38.5 11s27.5 6.5 41.5 9.5s27.5 5.33301 40.5 7s24.5 2.83398 34.5 3.50098c24.667 1.33301 43.667 -1.83398 57 -9.50098s22.666 -19.167 27.999 -34.5
c1.33301 -4.66699 1.5 -8.33398 0.5 -11.001s-4.5 -4 -10.5 -4c-14 0 -30.833 -1.33301 -50.5 -4s-39.667 -6 -60 -10s-40.333 -8.33301 -60 -13s-36.5 -9 -50.5 -13c-9.33301 -2.66699 -17.166 -3.5 -23.499 -2.5s-12.5 5.16699 -18.5 12.5
c-4 4.66699 -7.66699 10.334 -11 17.001l-10 20c-4.66699 8.66699 -7 17 -7 25s2.66699 18.667 8 32c11.333 30.667 25.833 64.667 43.5 102s36.834 75.5 57.501 114.5l64 116c22 38.333 43.667 73.833 65 106.5z" />
    <glyph glyph-name="Edieresis" unicode="&#xcb;" horiz-adv-x="368" 
d="M272 683c4.66699 10 11.498 17.832 20.498 23.499s17.167 7.16699 24.5 4.5c8 -2.66699 13.167 -8.5 15.5 -17.5s1.5 -19.167 -2.5 -30.5c-4 -10.667 -10.667 -18.667 -20 -24s-17.666 -6.66602 -24.999 -3.99902c-8.66699 3.33301 -14.167 9.5 -16.5 18.5
s-1.16602 18.833 3.50098 29.5zM382.998 691.999c5.33301 10.667 12.335 18.8311 21.002 24.498s16.667 7.16699 24 4.5c8.66699 -3.33301 14.167 -9.66602 16.5 -18.999s1.16602 -19.333 -3.50098 -30c-4.66699 -10 -11.334 -17.667 -20.001 -23s-17 -6.66602 -25 -3.99902
s-13.5 8.66699 -16.5 18s-1.83301 19 3.5 29zM218 524.996c-12.667 5.33301 -21.9961 12.502 -27.9961 21.502s-10.667 18.833 -14 29.5c-2 8.66699 1.66699 12.667 11 12c20.667 -1.33301 42.667 -0.833008 66 1.5s46.166 5.16602 68.499 8.49902
s43.5 6.66602 63.5 9.99902s37 5 51 5c21.333 0.666992 37.833 -3.16602 49.5 -11.499s20.5 -20.833 26.5 -37.5c1.33301 -4 1.33301 -7.5 0 -10.5s-5 -3.83301 -11 -2.5c-36 0.666992 -71.167 -2.33301 -105.5 -9s-66.833 -12.667 -97.5 -18
c-20 -30 -41.833 -65.667 -65.5 -107l-72.5 -129c13.333 2.66699 26.166 4.5 38.499 5.5s23.166 1.83301 32.499 2.5c25.333 1.33301 44 -2 56 -10s20.667 -19.667 26 -35c1.33301 -4.66699 1.66602 -8.33398 0.999023 -11.001s-4.33398 -4 -11.001 -4
c-27.333 0 -58 -2.83301 -92 -8.5s-65 -12.167 -93 -19.5l-41.5 -82.5l-35.5 -75.5c12 4 24.833 7.66699 38.5 11s27.5 6.5 41.5 9.5s27.5 5.33301 40.5 7s24.5 2.83398 34.5 3.50098c24.667 1.33301 43.667 -1.83398 57 -9.50098s22.666 -19.167 27.999 -34.5
c1.33301 -4.66699 1.5 -8.33398 0.5 -11.001s-4.5 -4 -10.5 -4c-14 0 -30.833 -1.33301 -50.5 -4s-39.667 -6 -60 -10s-40.333 -8.33301 -60 -13s-36.5 -9 -50.5 -13c-9.33301 -2.66699 -17.166 -3.5 -23.499 -2.5s-12.5 5.16699 -18.5 12.5
c-4 4.66699 -7.66699 10.334 -11 17.001l-10 20c-4.66699 8.66699 -7 17 -7 25s2.66699 18.667 8 32c11.333 30.667 25.833 64.667 43.5 102s36.834 75.5 57.501 114.5l64 116c22 38.333 43.667 73.833 65 106.5z" />
    <glyph glyph-name="Igrave" unicode="&#xcc;" horiz-adv-x="182" 
d="M304 759c8.66699 -2.66699 17.833 -7.83301 27.5 -15.5s16.5 -18.834 20.5 -33.501c3.33301 -13.333 6.33301 -28.5 9 -45.5s4.66699 -32.5 6 -46.5c0.666992 -10.667 -3 -15 -11 -13c-5.33301 1.33301 -11.5 5.33301 -18.5 12s-13.167 16 -18.5 28s-10 27.333 -14 46
s-8.66699 37.667 -14 57c-1.33301 5.33301 -0.5 8.83301 2.5 10.5s6.5 1.83398 10.5 0.500977zM268.999 616.001c4.66699 6.66699 9.00098 9.66895 13.001 9.00195s7.66699 -4 11 -10c7.33301 -14.667 9.5 -34.334 6.5 -59.001s-15.167 -56 -36.5 -94l-54 -96l-64.5 -116.5
l-66.5 -127c-22 -43.667 -42 -85.834 -60 -126.501c-4 -9.33301 -9.33301 -10 -16 -2c-3.33301 4 -6.5 9.16699 -9.5 15.5s-5 14 -6 23s-0.666992 19.5 1 31.5s5.16699 25.667 10.5 41c8 22.667 18.5 48.334 31.5 77.001l42.5 90c15.333 31.333 31.833 63.166 49.5 95.499
l52.5 94l50.5 85.5c16.333 26.667 31.166 49.667 44.499 69z" />
    <glyph glyph-name="Iacute" unicode="&#xcd;" horiz-adv-x="182" 
d="M462 728c3.33301 -1.33301 5.50195 -3.83203 6.50195 -7.49902s-1.16699 -6.83398 -6.5 -9.50098l-29.5 -15.5l-31 -16.5l-29.5 -15c-9.33301 -4.66699 -17.333 -8 -24 -10c-22.667 -7.33301 -40 -8.33301 -52 -3c-8.66699 4 -8.33398 9.66699 0.999023 17
c13.333 10 28.833 21 46.5 33s33.167 21.333 46.5 28s26.666 9 39.999 7s24 -4.66699 32 -8zM269.002 616.001c4.66699 6.66699 9.00098 9.66895 13.001 9.00195s7.66699 -4 11 -10c7.33301 -14.667 9.5 -34.334 6.5 -59.001s-15.167 -56 -36.5 -94l-54 -96l-64.5 -116.5
l-66.5 -127c-22 -43.667 -42 -85.834 -60 -126.501c-4 -9.33301 -9.33301 -10 -16 -2c-3.33301 4 -6.5 9.16699 -9.5 15.5s-5 14 -6 23s-0.666992 19.5 1 31.5s5.16699 25.667 10.5 41c8 22.667 18.5 48.334 31.5 77.001l42.5 90c15.333 31.333 31.833 63.166 49.5 95.499
l52.5 94l50.5 85.5c16.333 26.667 31.166 49.667 44.499 69z" />
    <glyph glyph-name="Icircumflex" unicode="&#xce;" horiz-adv-x="182" 
d="M311 682c-10 -7.33301 -20.501 -13.999 -31.501 -19.999l-28.5 -16c-10 -5.33301 -19.667 -8.5 -29 -9.5s-16.666 -0.5 -21.999 1.5c-3.33301 1.33301 -5.33301 3.33301 -6 6s1.33301 5.66699 6 9l25 17.5l31.5 22.5l32 23c10.333 7.33301 19.5 13.333 27.5 18
c4 2.66699 8.33301 4 13 4c4.66699 0.666992 8.66699 -0.833008 12 -4.5s6 -7.16699 8 -10.5l20 -35.5c8 -14.333 15 -25.833 21 -34.5c4.66699 -6.66699 2.66699 -11.334 -6 -14.001c-9.33301 -2 -18.333 -1.66699 -27 1s-17.667 8.66699 -27 18c-6 6 -12.333 14 -19 24z
M268.999 616.001c4.66699 6.66699 9.00098 9.66895 13.001 9.00195s7.66699 -4 11 -10c7.33301 -14.667 9.5 -34.334 6.5 -59.001s-15.167 -56 -36.5 -94l-54 -96l-64.5 -116.5l-66.5 -127c-22 -43.667 -42 -85.834 -60 -126.501c-4 -9.33301 -9.33301 -10 -16 -2
c-3.33301 4 -6.5 9.16699 -9.5 15.5s-5 14 -6 23s-0.666992 19.5 1 31.5s5.16699 25.667 10.5 41c8 22.667 18.5 48.334 31.5 77.001l42.5 90c15.333 31.333 31.833 63.166 49.5 95.499l52.5 94l50.5 85.5c16.333 26.667 31.166 49.667 44.499 69z" />
    <glyph glyph-name="Idieresis" unicode="&#xcf;" horiz-adv-x="182" 
d="M243 701c5.33301 10 12.1709 17.832 20.5039 23.499s16.5 7.16699 24.5 4.5c7.33301 -2.66699 12.166 -8.5 14.499 -17.5s1.16602 -19.167 -3.50098 -30.5c-4.66699 -10.667 -11.334 -18.667 -20.001 -24s-17 -6.66602 -25 -3.99902
c-7.33301 2.66699 -12.333 8.66699 -15 18s-1.33398 19.333 3.99902 30zM345.005 699.999c5.33301 10.667 12.335 18.501 21.002 23.501s16.667 6.5 24 4.5c8.66699 -2.66699 14.167 -8.66699 16.5 -18s1.16602 -19.333 -3.50098 -30c-4.66699 -10 -11 -17.833 -19 -23.5
s-16 -6.83398 -24 -3.50098s-13.833 9.5 -17.5 18.5s-2.83398 18.5 2.49902 28.5zM269.007 616c4.66699 6.66699 9.00098 9.66895 13.001 9.00195s7.66699 -4 11 -10c7.33301 -14.667 9.5 -34.334 6.5 -59.001s-15.167 -56 -36.5 -94l-54 -96l-64.5 -116.5l-66.5 -127
c-22 -43.667 -42 -85.834 -60 -126.501c-4 -9.33301 -9.33301 -10 -16 -2c-3.33301 4 -6.5 9.16699 -9.5 15.5s-5 14 -6 23s-0.666992 19.5 1 31.5s5.16699 25.667 10.5 41c8 22.667 18.5 48.334 31.5 77.001l42.5 90c15.333 31.333 31.833 63.166 49.5 95.499l52.5 94
l50.5 85.5c16.333 26.667 31.166 49.667 44.499 69z" />
    <glyph glyph-name="Ntilde" unicode="&#xd1;" horiz-adv-x="459" 
d="M320 669c3.33301 8.66699 10.6689 17.165 22.002 25.498s24.666 12.166 39.999 11.499c12 -0.666992 23.667 -3.16699 35 -7.5l34 -12.5c11.333 -4 23.166 -7 35.499 -9s25.833 -0.666992 40.5 4c5.33301 1.33301 9 0.833008 11 -1.5s1.66699 -6.16602 -1 -11.499
c-12 -21.333 -30 -33 -54 -35c-14 -1.33301 -27.667 0.166992 -41 4.5l-39.5 13c-13 4.33301 -25.667 7.83301 -38 10.5s-24.5 2 -36.5 -2c-4 -1.33301 -6.83301 -1.16602 -8.5 0.500977s-1.5 4.83398 0.5 9.50098zM241.003 428.998l-60.0059 -105.501l-62 -115.5
c-20 -38.667 -38.333 -76.5 -55 -113.5s-30 -70.5 -40 -100.5c-3.33301 -11.333 -9 -12.666 -17 -3.99902c-8.66699 9.33301 -14.167 23.5 -16.5 42.5s1.5 42.167 11.5 69.5c12 34 28.667 73.167 50 117.5l68.5 136l73.5 135.5l67 116
c4.66699 7.33301 8.83398 11.5 12.501 12.5s8.16699 -0.166992 13.5 -3.5c9.33301 -6.66699 16.833 -13.667 22.5 -21s9.83398 -15.833 12.501 -25.5s3.83398 -20.667 3.50098 -33s-1.83301 -27.166 -4.5 -44.499c-8 -48 -14.667 -102.333 -20 -163
s-9.66602 -126.334 -12.999 -197.001c16.667 38.667 36 79.834 58 123.501l68 130l69.5 123l62.5 102.5c4 6 8 8.5 12 7.5s7.66699 -4.16699 11 -9.5c4 -7.33301 6.66699 -15.5 8 -24.5s1 -19.333 -1 -31s-6 -24.834 -12 -39.501s-14.667 -31.334 -26 -50.001l-34.5 -60
l-42 -76l-46 -86l-46 -89.5l-42 -85.5l-34.5 -74c-4 -9.33301 -10.667 -11.333 -20 -6c-15.333 8 -26.666 19.333 -33.999 34s-12.333 38 -15 70c-1.33301 15.333 -2 34.833 -2 58.5s0.666992 50.334 2 80.001s3.33301 61.5 6 95.5s6.33398 68.667 11.001 104z" />
    <glyph glyph-name="Ograve" unicode="&#xd2;" horiz-adv-x="537" 
d="M385 733c9.33301 2.66699 20.666 3.5 33.999 2.5s26 -6.16699 38 -15.5c11.333 -8 24 -19 38 -33s26.667 -27.333 38 -40c6 -7.33301 4.66699 -12 -4 -14c-14.667 -3.33301 -31.667 0 -51 10c-11.333 7.33301 -26.166 18.5 -44.499 33.5l-51.5 41.5
c-4.66699 3.33301 -6.16699 6.33301 -4.5 9s4.16699 4.66699 7.5 6zM424 236c22.667 42 39.6689 82.166 51.002 120.499s17.833 72.666 19.5 102.999s-0.833008 55.5 -7.5 75.5s-17 32.667 -31 38c-12 4.66699 -28.5 3.83398 -49.5 -2.49902s-43.833 -17.666 -68.5 -33.999
s-50.334 -37.833 -77.001 -64.5s-51.667 -58.334 -75 -95.001c-24 -37.333 -42.333 -75 -55 -113s-20 -73.167 -22 -105.5s1 -60 9 -83s20.667 -38.167 38 -45.5c16.667 -7.33301 36 -7.83301 58 -1.5s45 18.5 69 36.5s48.167 41.333 72.5 70s47.166 62.334 68.499 101.001z
M476.002 596.999c30.667 -13.333 52.668 -34.6641 66.001 -63.9971s19.666 -62.333 18.999 -99s-6.83398 -74.834 -18.501 -114.501s-26.834 -76.834 -45.501 -111.501c-20 -37.333 -42.833 -71.833 -68.5 -103.5s-53.167 -58 -82.5 -79s-60.166 -35 -92.499 -42
s-65.5 -4.16699 -99.5 8.5c-41.333 15.333 -70.666 40 -87.999 74s-26 71.667 -26 113c0 53.333 10.333 104.166 31 152.499s46.167 92 76.5 131s63 72 98 99s66.5 45.5 94.5 55.5c29.333 10 55.833 12.833 79.5 8.5s42.5 -13.833 56.5 -28.5z" />
    <glyph glyph-name="Oacute" unicode="&#xd3;" horiz-adv-x="537" 
d="M585 715c3.33301 -2 5.33301 -4.66992 6 -8.00293s-1.66602 -6 -6.99902 -8c-10 -3.33301 -20.5 -7.16602 -31.5 -11.499l-33 -13c-11 -4.33301 -21.333 -8.16602 -31 -11.499s-17.834 -6 -24.501 -8c-11.333 -3.33301 -21.666 -4.16602 -30.999 -2.49902
s-16.666 4.16699 -21.999 7.5c-3.33301 1.33301 -5 3.33301 -5 6s2.66699 5.66699 8 9l51 27.5c18.667 9.66699 35 17.167 49 22.5c13.333 4.66699 26.666 5.5 39.999 2.5s23.666 -7.16699 30.999 -12.5zM424 235.997c22.667 42 39.6689 82.166 51.002 120.499
s17.833 72.666 19.5 102.999s-0.833008 55.5 -7.5 75.5s-17 32.667 -31 38c-12 4.66699 -28.5 3.83398 -49.5 -2.49902s-43.833 -17.666 -68.5 -33.999s-50.334 -37.833 -77.001 -64.5s-51.667 -58.334 -75 -95.001c-24 -37.333 -42.333 -75 -55 -113
s-20 -73.167 -22 -105.5s1 -60 9 -83s20.667 -38.167 38 -45.5c16.667 -7.33301 36 -7.83301 58 -1.5s45 18.5 69 36.5s48.167 41.333 72.5 70s47.166 62.334 68.499 101.001zM476.002 596.996c30.667 -13.333 52.668 -34.6641 66.001 -63.9971s19.666 -62.333 18.999 -99
s-6.83398 -74.834 -18.501 -114.501s-26.834 -76.834 -45.501 -111.501c-20 -37.333 -42.833 -71.833 -68.5 -103.5s-53.167 -58 -82.5 -79s-60.166 -35 -92.499 -42s-65.5 -4.16699 -99.5 8.5c-41.333 15.333 -70.666 40 -87.999 74s-26 71.667 -26 113
c0 53.333 10.333 104.166 31 152.499s46.167 92 76.5 131s63 72 98 99s66.5 45.5 94.5 55.5c29.333 10 55.833 12.833 79.5 8.5s42.5 -13.833 56.5 -28.5z" />
    </font>
</defs>
</svg>
